<?xml version="1.0" encoding="utf-8"?>
<!-- Generator: Adobe Illustrator 27.4.0, SVG Export Plug-In . SVG Version: 6.00 Build 0)  -->
<svg version="1.1" id="Layer_1" xmlns="http://www.w3.org/2000/svg" xmlns:xlink="http://www.w3.org/1999/xlink" x="0px" y="0px"
	 viewBox="0 0 49.7 45.5" style="enable-background:new 0 0 49.7 45.5;" xml:space="preserve">
<style type="text/css">
	.st0{fill:url(#SVGID_1_);}
	.st1{fill:url(#SVGID_00000067941875874751529120000013614583700527013779_);}
	.st2{fill:url(#SVGID_00000073711665963424788960000006556930963172294577_);}
	.st3{fill:url(#SVGID_00000057140864843657229490000001364618957622331521_);}
	.st4{fill:url(#SVGID_00000012456407646143022900000000155423101919148202_);}
	.st5{fill:url(#SVGID_00000085232203533482378900000001269103529140462519_);}
	.st6{fill:url(#SVGID_00000148639781444106590600000012235945861677251715_);}
	.st7{fill:url(#SVGID_00000029007806578778701130000006166725655981712048_);}
	.st8{fill:url(#SVGID_00000022528245153164056090000012709798218992490386_);}
	.st9{fill:url(#SVGID_00000039818007833416862120000010164746157571553722_);}
	.st10{fill:url(#SVGID_00000099661742112028571100000008146689159876686261_);}
</style>
<g>
	<linearGradient id="SVGID_1_" gradientUnits="userSpaceOnUse" x1="42.4689" y1="30.7758" x2="42.4689" y2="15.2951">
		<stop  offset="0" style="stop-color:#6A62AA"/>
		<stop  offset="0.1508" style="stop-color:#6459A5"/>
		<stop  offset="0.8464" style="stop-color:#C3E2ED"/>
		<stop  offset="1" style="stop-color:#C7E8F0"/>
		<stop  offset="1" style="stop-color:#CEEAEE"/>
	</linearGradient>
	<path class="st0" d="M40.9,16.9c0-0.2,0-0.5,0-0.8c0-0.5,0.3-0.8,0.7-0.8c0.6,0,1.2,0,1.7,0c0.4,0,0.6,0.4,0.7,0.8
		c0,0.2,0,0.4,0,0.6c0,0.2,0,0.3,0.2,0.4c0.2,0.1,0.3,0,0.4-0.2c0.6-1,1-1,1.8-0.3c0.2,0.2,0.5,0.4,0.7,0.6c0.5,0.4,0.6,0.8,0.2,1.4
		c-0.1,0.2-0.2,0.4-0.4,0.5c0.2,0.5,0.2,0.5,0.6,0.3c0.1,0,0.2-0.1,0.4-0.1c0.4-0.1,0.8,0.1,1,0.6c0.2,0.5,0.3,1,0.5,1.6
		c0.1,0.5-0.1,0.9-0.5,1.1c-0.1,0.1-0.3,0.1-0.4,0.2c-0.2,0-0.3,0.1-0.3,0.3c0,0.2,0.1,0.3,0.3,0.3c1.1,0.3,1.2,0.8,0.8,1.8
		c-0.1,0.3-0.2,0.6-0.3,0.9c-0.2,0.6-0.6,0.8-1.2,0.6c-0.1,0-0.2-0.1-0.3-0.1c-0.2-0.1-0.3-0.1-0.4,0.1c-0.1,0.2-0.1,0.3,0,0.5
		c0.6,0.8,0.6,1.3-0.3,1.9c-0.3,0.2-0.5,0.4-0.8,0.6c-0.4,0.3-0.9,0.2-1.2-0.2c-0.1-0.1-0.2-0.3-0.3-0.4c-0.1-0.1-0.1-0.3-0.3-0.2
		c-0.2,0.1-0.3,0.2-0.3,0.4c0,0.2,0,0.4,0,0.6c-0.1,0.4-0.3,0.7-0.4,0.7c-0.1,0-0.2-0.3-0.2-0.4c0,0.1,0.1,0.2,0.2,0.2
		c0.1,0,0.2-0.1,0.2-0.1c0,0.3-0.2,0.4-0.4,0.4c-0.6,0-1.2,0-1.9,0c-0.3,0-0.6-0.3-0.6-0.7c0-0.2,0-0.3,0-0.5
		c0.1-0.4-0.1-0.6-0.5-0.6c-0.1,0.2-0.3,0.4-0.4,0.6c-0.3,0.4-0.7,0.5-1.2,0.2c-0.4-0.3-0.8-0.6-1.2-0.9c-0.4-0.3-0.5-0.8-0.2-1.2
		c0.1-0.1,0.2-0.3,0.3-0.4c0.1-0.2,0.2-0.3,0-0.5c-0.1-0.2-0.3-0.2-0.4-0.1c0,0-0.1,0-0.1,0c-0.9,0.3-1.2,0.2-1.5-0.8
		c-0.1-0.4-0.2-0.8-0.3-1.1c-0.1-0.5,0.1-1,0.5-1.1c0.1-0.1,0.3-0.1,0.4-0.2c0.2,0,0.3-0.1,0.3-0.4c0-0.2-0.1-0.3-0.2-0.3
		c0,0,0,0,0,0c-1-0.3-1.2-0.7-0.8-1.7c0.1-0.4,0.2-0.7,0.3-1.1c0.2-0.5,0.5-0.7,1-0.6c0.1,0,0.3,0.1,0.4,0.1
		c0.2,0.1,0.3,0.1,0.4-0.1c0.1-0.2,0.1-0.3,0-0.5c0,0-0.1-0.1-0.1-0.1c-0.5-0.7-0.4-1.1,0.2-1.7c0.3-0.3,0.6-0.5,1-0.8
		c0.4-0.3,0.8-0.2,1.1,0.2c0.1,0.1,0.2,0.2,0.2,0.3C40.4,17.1,40.6,17.2,40.9,16.9z M41.8,29.8c0.5,0,0.9,0,1.4,0c0-0.4,0-0.7,0-1
		c0-0.3,0.1-0.5,0.4-0.6c0.3-0.1,0.5-0.2,0.8-0.3c0.3-0.1,0.5-0.1,0.7,0.2c0.2,0.3,0.3,0.5,0.5,0.8c0.4-0.3,0.7-0.6,1.1-0.9
		c-0.2-0.3-0.4-0.6-0.6-0.8c-0.2-0.3-0.2-0.5,0-0.7c0.2-0.2,0.3-0.5,0.5-0.7c0.2-0.3,0.4-0.4,0.7-0.3c0.3,0.1,0.6,0.2,0.9,0.3
		c0.1-0.5,0.3-1,0.4-1.5c-0.3-0.1-0.6-0.2-0.9-0.3c-0.3-0.1-0.4-0.3-0.4-0.6c0-0.3,0-0.6,0-0.9c0-0.3,0.1-0.5,0.4-0.6
		c0.3-0.1,0.6-0.2,0.9-0.3c-0.2-0.5-0.3-1-0.4-1.4c-0.3,0.1-0.6,0.2-0.9,0.3c-0.3,0.1-0.5,0-0.6-0.2c-0.1-0.3-0.3-0.5-0.5-0.7
		c-0.2-0.3-0.2-0.5,0-0.8c0.2-0.3,0.3-0.5,0.5-0.8c-0.4-0.3-0.7-0.6-1.1-0.9c-0.2,0.3-0.4,0.5-0.5,0.8c-0.2,0.3-0.4,0.3-0.7,0.2
		c-0.3-0.1-0.5-0.2-0.8-0.3c-0.3-0.1-0.4-0.3-0.4-0.6c0-0.3,0-0.6,0-1c-0.5,0-0.9,0-1.4,0c0,0.4,0,0.7,0,1c0,0.3-0.1,0.5-0.4,0.6
		c-0.3,0.1-0.5,0.2-0.8,0.3c-0.3,0.1-0.5,0.1-0.7-0.2c-0.2-0.3-0.3-0.5-0.5-0.8c-0.4,0.3-0.7,0.6-1.1,0.9c0.2,0.3,0.4,0.6,0.6,0.8
		c0.2,0.3,0.2,0.5,0,0.7c-0.2,0.2-0.3,0.5-0.5,0.7c-0.2,0.3-0.4,0.4-0.7,0.3c-0.3-0.1-0.6-0.2-0.9-0.3c-0.1,0.5-0.3,1-0.4,1.4
		c0.3,0.1,0.6,0.2,0.9,0.3c0.3,0.1,0.4,0.3,0.4,0.6c0,0.3,0,0.6,0,0.9c0,0.3-0.1,0.5-0.4,0.6c-0.3,0.1-0.6,0.2-0.8,0.3
		c0,0.1,0,0.2,0,0.2c0.1,0.4,0.2,0.8,0.4,1.2c0.3-0.1,0.6-0.2,0.9-0.3c0.3-0.1,0.5,0,0.6,0.2c0.1,0.3,0.3,0.5,0.5,0.7
		c0.2,0.3,0.2,0.5,0,0.8c-0.2,0.3-0.3,0.5-0.5,0.8c0.4,0.3,0.8,0.6,1.1,0.9c0.2-0.3,0.4-0.5,0.5-0.8c0.2-0.3,0.4-0.4,0.7-0.2
		c0.3,0.1,0.5,0.2,0.8,0.3c0.3,0.1,0.4,0.3,0.4,0.6C41.8,29.2,41.8,29.5,41.8,29.8z"/>
	
		<linearGradient id="SVGID_00000036250614389309124200000006375584712645947292_" gradientUnits="userSpaceOnUse" x1="25.1281" y1="44.3487" x2="25.1281" y2="32.832">
		<stop  offset="0" style="stop-color:#6A62AA"/>
		<stop  offset="0.1508" style="stop-color:#6459A5"/>
		<stop  offset="0.8464" style="stop-color:#C3E2ED"/>
		<stop  offset="1" style="stop-color:#C7E8F0"/>
		<stop  offset="1" style="stop-color:#CEEAEE"/>
	</linearGradient>
	<path style="fill:url(#SVGID_00000036250614389309124200000006375584712645947292_);" d="M11.2,37.9c-0.4,0.8-0.8,1.5-1.3,2.3
		c-0.5-2.5-1-4.9-1.5-7.4c2,1.3,3.9,2.6,5.9,4c-0.8,0.2-1.5,0.4-2.4,0.6c0.4,0.4,0.6,0.7,1,1c0.8,0.7,1.5,1.2,1.8,1.5
		c0.1,0.1,0.2,0.2,0.3,0.3c0.1,0.1,0.2,0.1,0.2,0.1c0,0,0.1,0.1,0.1,0.1c0.2,0.1,0.2,0.1,0.7,0.4c2.8,1.9,6.6,2.5,6.6,2.5
		c4.1,0.6,8-0.2,11.6-2.3c2.9-1.7,5.2-4.1,6.9-7.1c0.3-0.4,0.5-0.6,0.7-0.4c0.3,0.2,0.3,0.5,0,0.9c-3.2,5.4-7.7,8.8-13.5,9.8
		c-5.9,1-11.2-0.7-15.8-4.8C12,38.8,11.6,38.4,11.2,37.9z"/>
	
		<linearGradient id="SVGID_00000018196907941352688240000009004207409461223349_" gradientUnits="userSpaceOnUse" x1="25.1741" y1="13.2554" x2="25.1741" y2="1.7432">
		<stop  offset="0" style="stop-color:#6A62AA"/>
		<stop  offset="0.1508" style="stop-color:#6459A5"/>
		<stop  offset="0.8464" style="stop-color:#C3E2ED"/>
		<stop  offset="1" style="stop-color:#C7E8F0"/>
		<stop  offset="1" style="stop-color:#CEEAEE"/>
	</linearGradient>
	<path style="fill:url(#SVGID_00000018196907941352688240000009004207409461223349_);" d="M34.7,4.5c1.4,0.9,2.7,2,2.7,2
		C38,7,38.6,7.6,39.1,8.2c0.4-0.8,0.9-1.5,1.3-2.3c0.5,2.5,1,4.9,1.5,7.4c-2-1.3-3.9-2.6-5.9-4c0.8-0.2,1.5-0.4,2.3-0.6
		c-0.1-0.1-0.2-0.2-0.2-0.3c-3-3.2-6.7-5.1-10.9-5.6C20,1.9,13.1,5.6,9.2,12.4c0,0,0,0.1-0.1,0.1c-0.2,0.3-0.4,0.3-0.6,0.2
		c-0.2-0.2-0.3-0.4-0.1-0.7c0.4-0.7,0.9-1.4,1.3-2.1c0.5-0.7,1-1.4,1.6-2c0,0,1.5-1.7,3.5-3c0.3-0.2,0.6-0.4,0.6-0.4
		s0.3-0.2,0.5-0.3c2-1.2,4.1-1.8,4.1-1.8c0.6-0.2,1.2-0.3,1.8-0.4c1.9-0.3,3.8-0.4,5.6-0.1c0,0,2.8,0.4,6,1.9
		C33.8,3.9,33.8,4,33.8,4c0,0,0.1,0,0.2,0.1c0,0,0.1,0,0.1,0.1c0,0,0,0,0.1,0.1c0.1,0,0.1,0,0.1,0.1c0,0,0,0,0.1,0c0,0,0,0,0,0
		c0,0,0.1,0,0.1,0.1C34.6,4.4,34.7,4.4,34.7,4.5z"/>
	
		<linearGradient id="SVGID_00000143615526654007160860000013343832335721047446_" gradientUnits="userSpaceOnUse" x1="6.6386" y1="30.0882" x2="6.6386" y2="15.9989">
		<stop  offset="0" style="stop-color:#6A62AA"/>
		<stop  offset="0.1508" style="stop-color:#6459A5"/>
		<stop  offset="0.8464" style="stop-color:#C3E2ED"/>
		<stop  offset="1" style="stop-color:#C7E8F0"/>
		<stop  offset="1" style="stop-color:#CEEAEE"/>
	</linearGradient>
	<path style="fill:url(#SVGID_00000143615526654007160860000013343832335721047446_);" d="M6.7,16c3.6,0,6.5,3.2,6.4,7.1
		c0,3.9-2.9,7-6.5,7c-3.6,0-6.5-3.2-6.4-7.1C0.2,19.1,3.1,16,6.7,16z M1,23c0,3.4,2.5,6.1,5.5,6.1c3.1,0,5.6-2.7,5.6-6.1
		c0-3.4-2.5-6.2-5.5-6.2C3.6,16.9,1.1,19.6,1,23z"/>
	
		<linearGradient id="SVGID_00000176732628759900961660000002625699547429717664_" gradientUnits="userSpaceOnUse" x1="24.905" y1="27.8667" x2="24.905" y2="19.5347">
		<stop  offset="0" style="stop-color:#6A62AA"/>
		<stop  offset="0.1508" style="stop-color:#6459A5"/>
		<stop  offset="0.8464" style="stop-color:#C3E2ED"/>
		<stop  offset="1" style="stop-color:#C7E8F0"/>
		<stop  offset="1" style="stop-color:#CEEAEE"/>
	</linearGradient>
	<path style="fill:url(#SVGID_00000176732628759900961660000002625699547429717664_);" d="M24.9,27.9c-0.6,0-1.1,0-1.7,0
		c-0.3,0-0.6-0.1-0.7-0.4c-0.6-1.1-1.1-2.2-1.7-3.3c-0.2-0.3-0.2-0.6,0-0.9c0.6-1.1,1.2-2.2,1.7-3.3c0.2-0.3,0.4-0.4,0.7-0.4
		c1.2,0,2.3,0,3.5,0c0.3,0,0.5,0.1,0.7,0.4c0.6,1.1,1.1,2.2,1.7,3.3c0.2,0.3,0.2,0.6,0,1c-0.6,1.1-1.1,2.1-1.7,3.2
		c-0.2,0.3-0.4,0.5-0.7,0.5C26.1,27.9,25.5,27.9,24.9,27.9z M24.9,26.9C24.9,26.9,24.9,26.9,24.9,26.9c0.5,0,1,0,1.5,0
		c0.2,0,0.3,0,0.4-0.2c0.5-0.9,1-1.9,1.5-2.8c0.1-0.2,0.1-0.3,0-0.5c-0.5-0.9-1-1.9-1.5-2.8c-0.1-0.1-0.2-0.2-0.3-0.2c-1,0-2,0-3,0
		c-0.1,0-0.3,0.1-0.3,0.2c-0.5,0.9-1,1.9-1.5,2.8c-0.1,0.1-0.1,0.3,0,0.4c0.5,0.9,1,1.9,1.5,2.8c0.1,0.1,0.2,0.2,0.3,0.2
		C23.9,26.9,24.4,26.9,24.9,26.9z"/>
	
		<linearGradient id="SVGID_00000022528197305624497680000013102774615529017507_" gradientUnits="userSpaceOnUse" x1="42.4714" y1="26.1947" x2="42.4714" y2="19.892">
		<stop  offset="0" style="stop-color:#6A62AA"/>
		<stop  offset="0.1508" style="stop-color:#6459A5"/>
		<stop  offset="0.8464" style="stop-color:#C3E2ED"/>
		<stop  offset="1" style="stop-color:#C7E8F0"/>
		<stop  offset="1" style="stop-color:#CEEAEE"/>
	</linearGradient>
	<path style="fill:url(#SVGID_00000022528197305624497680000013102774615529017507_);" d="M39.6,23c0-1.8,1.3-3.1,2.9-3.1
		c1.6,0,2.9,1.4,2.9,3.2c0,1.7-1.3,3.1-2.9,3.1C40.8,26.2,39.6,24.8,39.6,23z M44.5,23c0-1.2-0.9-2.2-2-2.2c-1.1,0-2,1-2,2.2
		c0,1.2,0.9,2.2,2,2.2C43.6,25.3,44.5,24.3,44.5,23z"/>
	
		<linearGradient id="SVGID_00000078754847933941880610000003845738696300400273_" gradientUnits="userSpaceOnUse" x1="6.8274" y1="26.6531" x2="6.8274" y2="20.2537">
		<stop  offset="0" style="stop-color:#6A62AA"/>
		<stop  offset="0.1508" style="stop-color:#6459A5"/>
		<stop  offset="0.8464" style="stop-color:#C3E2ED"/>
		<stop  offset="1" style="stop-color:#C7E8F0"/>
		<stop  offset="1" style="stop-color:#CEEAEE"/>
	</linearGradient>
	<path style="fill:url(#SVGID_00000078754847933941880610000003845738696300400273_);" d="M5.9,25.4c0.8-1.3,1.5-2.6,2.3-3.8
		c0.2-0.3,0.4-0.7,0.6-1c0.2-0.3,0.4-0.4,0.6-0.2c0.2,0.1,0.3,0.4,0.1,0.7c-1.1,1.8-2.1,3.6-3.2,5.3c-0.2,0.3-0.5,0.4-0.8,0.1
		c-0.5-0.6-0.9-1.2-1.4-1.7C4,24.4,4,24.1,4.2,24c0.2-0.2,0.4-0.1,0.6,0.1C5.2,24.5,5.5,24.9,5.9,25.4z"/>
	
		<linearGradient id="SVGID_00000170999023883493831360000017163201908280744118_" gradientUnits="userSpaceOnUse" x1="43.2653" y1="31.554" x2="43.2653" y2="31.554">
		<stop  offset="0" style="stop-color:#6A62AA"/>
		<stop  offset="0.1508" style="stop-color:#6459A5"/>
		<stop  offset="0.8464" style="stop-color:#C3E2ED"/>
		<stop  offset="1" style="stop-color:#C7E8F0"/>
		<stop  offset="1" style="stop-color:#CEEAEE"/>
	</linearGradient>
	<path style="fill:url(#SVGID_00000170999023883493831360000017163201908280744118_);" d="M43.3,31.6"/>
	
		<linearGradient id="SVGID_00000137818209176752716530000017510761792340816030_" gradientUnits="userSpaceOnUse" x1="43.759" y1="30.9318" x2="43.759" y2="30.9318">
		<stop  offset="0" style="stop-color:#6A62AA"/>
		<stop  offset="0.1508" style="stop-color:#6459A5"/>
		<stop  offset="0.8464" style="stop-color:#C3E2ED"/>
		<stop  offset="1" style="stop-color:#C7E8F0"/>
		<stop  offset="1" style="stop-color:#CEEAEE"/>
	</linearGradient>
	<path style="fill:url(#SVGID_00000137818209176752716530000017510761792340816030_);" d="M43.8,30.9"/>
	
		<linearGradient id="SVGID_00000105402339348650396720000012456406779541871799_" gradientUnits="userSpaceOnUse" x1="29.0775" y1="6.8934" x2="29.0775" y2="6.8934">
		<stop  offset="0" style="stop-color:#6A62AA"/>
		<stop  offset="0.1508" style="stop-color:#6459A5"/>
		<stop  offset="0.8464" style="stop-color:#C3E2ED"/>
		<stop  offset="1" style="stop-color:#C7E8F0"/>
		<stop  offset="1" style="stop-color:#CEEAEE"/>
	</linearGradient>
	<path style="fill:url(#SVGID_00000105402339348650396720000012456406779541871799_);" d="M29.1,6.9"/>
	
		<linearGradient id="SVGID_00000069372254165497724000000003325974646746553266_" gradientUnits="userSpaceOnUse" x1="30.7793" y1="5.9408" x2="30.7793" y2="5.9408">
		<stop  offset="0" style="stop-color:#6A62AA"/>
		<stop  offset="0.1508" style="stop-color:#6459A5"/>
		<stop  offset="0.8464" style="stop-color:#C3E2ED"/>
		<stop  offset="1" style="stop-color:#C7E8F0"/>
		<stop  offset="1" style="stop-color:#CEEAEE"/>
	</linearGradient>
	<path style="fill:url(#SVGID_00000069372254165497724000000003325974646746553266_);" d="M30.8,5.9"/>
</g>
</svg>
