<?xml version="1.0" encoding="utf-8"?>
<!-- Generator: Adobe Illustrator 27.4.0, SVG Export Plug-In . SVG Version: 6.00 Build 0)  -->
<svg version="1.1" id="Layer_1" xmlns="http://www.w3.org/2000/svg" xmlns:xlink="http://www.w3.org/1999/xlink" x="0px" y="0px"
	 viewBox="0 0 49.7 45.5" style="enable-background:new 0 0 49.7 45.5;" xml:space="preserve">
<style type="text/css">
	.st0{fill:url(#SVGID_1_);}
	.st1{fill:url(#SVGID_00000107561235454675566020000009997777414401963452_);}
	.st2{fill:url(#SVGID_00000112628846542423579310000015291534667867878576_);}
	.st3{fill:url(#SVGID_00000124852407199669582630000001804552167553360018_);}
	.st4{fill:url(#SVGID_00000037694312547746560020000014809434786188918971_);}
	.st5{fill:url(#SVGID_00000068643377111186683500000010318161886385063353_);}
	.st6{fill:url(#SVGID_00000057131684489015591900000001439157409374564008_);}
	.st7{fill:url(#SVGID_00000129915886171006717030000015210958892254050705_);}
	.st8{fill:url(#SVGID_00000166665647858251041350000013534149853089969823_);}
	.st9{fill:url(#SVGID_00000021819462400929273600000018041543117568949636_);}
</style>
<g>
	<linearGradient id="SVGID_1_" gradientUnits="userSpaceOnUse" x1="34.2867" y1="39.5484" x2="34.2867" y2="4.9419">
		<stop  offset="0" style="stop-color:#6559A5"/>
		<stop  offset="1" style="stop-color:#CCEAEE"/>
		<stop  offset="1" style="stop-color:#C5E7EE"/>
	</linearGradient>
	<path class="st0" d="M26.1,18.6c-1.8,0-3.7,0-5.5,0c-0.8,0-1,0.4-1,1.4c0,1,0.3,1.4,1,1.4c3.8,0,7.6,0,11.4,0
		c0.7,0,1.3-0.3,1.8-0.9c1-1.1,2-2.3,3-3.4c0.2-0.3,0.6-0.4,1-0.5c1.4-0.1,2.8,0,4.2,0c0.4,0,0.5,0.1,0.7,0.5
		c0.8,1.6,2.4,2.2,3.9,1.8c1.5-0.5,2.5-2,2.5-3.7c0-1.7-1.1-3.2-2.5-3.6c-1.5-0.4-3,0.3-3.8,1.8c-0.2,0.4-0.4,0.5-0.8,0.5
		c-1.6,0-3.1,0-4.7,0c-0.8,0-1.4,0.3-1.9,0.9c-1,1.1-2,2.2-2.9,3.3c-0.3,0.4-0.7,0.6-1.2,0.6C29.5,18.6,27.8,18.6,26.1,18.6z
		 M27.4,23.7c-2.2,0-4.5,0-6.7,0c-0.3,0-0.8,0.2-0.9,0.4c-0.1,0.6-0.2,1.3,0,1.9c0.1,0.5,0.7,0.5,1.1,0.5c4.4,0,8.8,0,13.2,0
		c0.3,0,0.6,0.1,0.8,0.4c0.8,1.6,2.3,2.3,3.8,1.8c1.5-0.5,2.5-2,2.5-3.7c0-1.8-1-3.3-2.6-3.7c-1.5-0.4-3,0.3-3.8,1.9
		c-0.2,0.3-0.4,0.4-0.7,0.4C31.8,23.7,29.6,23.7,27.4,23.7z M24,13.5c-1.1,0-2.2,0-3.4,0c-0.8,0-1.1,0.4-1.1,1.4
		c0,1.1,0.3,1.4,1.1,1.4c2.5,0,4.9,0,7.4,0c0.7,0,1.3-0.3,1.8-0.9c0.6-0.7,1.2-1.4,1.7-2.1c0.4-0.6,0.8-0.8,1.5-0.8
		c2,0.1,3.6-1.8,3.5-4c-0.1-2.2-1.9-3.8-3.8-3.6c-2,0.3-3.5,2.4-2.9,4.5c0.3,1.2,0,1.8-0.7,2.5c-0.3,0.3-0.5,0.7-0.8,0.9
		c-0.3,0.2-0.7,0.5-1.1,0.5C26.2,13.5,25.1,13.5,24,13.5z M24.4,28.8C24.4,28.8,24.4,28.8,24.4,28.8c-1.2,0-2.5,0-3.7,0
		c-0.9,0-1.2,0.3-1.2,1.4c0,1.1,0.3,1.4,1.1,1.4c1.9,0,3.7,0,5.6,0c2.2,0,1.6-0.3,3.1,1.5c0.3,0.4,0.5,0.8,0.2,1.3
		c-0.1,0.3-0.2,0.6-0.2,1c-0.1,2.3,1.5,4.1,3.5,4.1c2-0.1,3.5-1.9,3.3-4.2c-0.2-2.2-2-3.7-4-3.3c-0.2,0-0.5-0.1-0.6-0.2
		c-0.5-0.6-1-1.3-1.5-1.9c-0.5-0.7-1.1-1-1.9-1C26.8,28.8,25.6,28.8,24.4,28.8z"/>
	
		<linearGradient id="SVGID_00000007388395991248244870000003755260915744005011_" gradientUnits="userSpaceOnUse" x1="14.1744" y1="42.0874" x2="14.1744" y2="2.7891">
		<stop  offset="0" style="stop-color:#6559A5"/>
		<stop  offset="1" style="stop-color:#CCEAEE"/>
		<stop  offset="1" style="stop-color:#C5E7EE"/>
	</linearGradient>
	<path style="fill:url(#SVGID_00000007388395991248244870000003755260915744005011_);" d="M25.4,33.3c-0.3,0-0.4,0-0.4,0
		c0,0,0.6-0.1,0.9,0.2c0.3,0.3,0.3,0.9,0.3,1c0,0,0,0,0,0.1c0,2.2,0,2.2-1.8,3c-1.4,0.6-2.2,1.8-2.6,3.4c-0.2,0.9-0.4,1.1-1.2,1.1
		c-0.8,0-1.6,0-2.4,0c-0.8,0-1-0.2-1.2-1.1c-0.3-1.6-1.2-2.8-2.6-3.4c-0.4-0.2-0.8-0.4-1.3-0.6c-1.3-0.5-2.5-0.4-3.7,0.4
		c-0.7,0.5-1,0.5-1.6-0.2c-0.6-0.7-1.2-1.3-1.8-2c-0.5-0.5-0.5-1-0.1-1.6c0.9-1.5,0.9-3,0.3-4.6c-0.1-0.4-0.3-0.7-0.4-1.1
		c-0.5-1.5-1.5-2.5-2.9-2.8c-0.9-0.2-1-0.4-1-1.4c0-0.9,0-1.9,0-2.8c0-0.7,0.3-1.1,0.9-1.2c1.5-0.3,2.6-1.4,3.1-3
		c0.1-0.4,0.3-0.7,0.4-1c0.6-1.6,0.5-3.1-0.4-4.5c-0.4-0.6-0.3-1.1,0.1-1.6c0.6-0.7,1.3-1.5,1.9-2.2C8.6,7,9,6.9,9.5,7.3
		c1.3,1,2.6,1.1,4,0.4c0.3-0.2,0.7-0.3,1-0.5c1.3-0.6,2.2-1.7,2.5-3.3c0.2-0.9,0.4-1.1,1.2-1.1c0.8,0,1.7,0,2.5,0
		c0.6,0,0.9,0.3,1.1,1c0.3,1.8,1.2,3,2.8,3.6c0.3,0.1,0.5,0.3,0.8,0.4C26,8,26.3,8.5,26.3,9.1c0,0.4,0,0.8,0,1.2
		c0,0.9-0.3,1.3-1.2,1.3c-1.9,0-3.7,0-5.6,0c-7.4,0-12,9-8.3,16.3c1.8,3.6,4.7,5.3,8.3,5.5c0.8,0,1.6,0,2.4,0
		C23,33.3,24.2,33.3,25.4,33.3z"/>
	
		<linearGradient id="SVGID_00000052105871020704520730000002089341834799690672_" gradientUnits="userSpaceOnUse" x1="34.2867" y1="21.4286" x2="34.2867" y2="11.4158">
		<stop  offset="0" style="stop-color:#6559A5"/>
		<stop  offset="1" style="stop-color:#CCEAEE"/>
		<stop  offset="1" style="stop-color:#C5E7EE"/>
	</linearGradient>
	<path style="fill:url(#SVGID_00000052105871020704520730000002089341834799690672_);" d="M26.1,18.6c1.7,0,3.5,0,5.2,0
		c0.5,0,0.9-0.2,1.2-0.6c1-1.1,2-2.2,2.9-3.3c0.5-0.6,1.1-0.9,1.9-0.9c1.6,0,3.1,0,4.7,0c0.4,0,0.6-0.1,0.8-0.5
		c0.8-1.5,2.3-2.2,3.8-1.8c1.4,0.4,2.5,2,2.5,3.6c0,1.7-1,3.3-2.5,3.7c-1.5,0.5-3.1-0.2-3.9-1.8c-0.2-0.3-0.4-0.5-0.7-0.5
		c-1.4,0-2.8,0-4.2,0c-0.3,0-0.7,0.2-1,0.5c-1,1.1-2,2.2-3,3.4c-0.5,0.6-1.1,0.9-1.8,0.9c-3.8,0-7.6,0-11.4,0c-0.8,0-1-0.4-1-1.4
		c0-1,0.3-1.4,1-1.4C22.4,18.6,24.2,18.6,26.1,18.6z M47.3,15.2c0-1-0.7-1.8-1.6-1.8c-0.9,0-1.6,0.8-1.6,1.8c0,1,0.7,1.8,1.6,1.8
		C46.5,17,47.3,16.2,47.3,15.2z"/>
	
		<linearGradient id="SVGID_00000035508466700347933870000008748517363326030232_" gradientUnits="userSpaceOnUse" x1="30.3363" y1="28.9607" x2="30.3363" y2="21.3008">
		<stop  offset="0" style="stop-color:#6559A5"/>
		<stop  offset="1" style="stop-color:#CCEAEE"/>
		<stop  offset="1" style="stop-color:#C5E7EE"/>
	</linearGradient>
	<path style="fill:url(#SVGID_00000035508466700347933870000008748517363326030232_);" d="M27.4,23.7c2.2,0,4.5,0,6.7,0
		c0.3,0,0.5-0.1,0.7-0.4c0.8-1.6,2.3-2.3,3.8-1.9c1.5,0.5,2.6,1.9,2.6,3.7c0,1.7-1,3.2-2.5,3.7c-1.5,0.5-3.1-0.3-3.8-1.8
		c-0.2-0.4-0.4-0.4-0.8-0.4c-4.4,0-8.8,0-13.2,0c-0.4,0-1,0-1.1-0.5c-0.1-0.6-0.1-1.3,0-1.9c0-0.2,0.6-0.4,0.9-0.4
		C22.9,23.7,25.1,23.7,27.4,23.7z M39.3,25.2c0-1-0.6-1.8-1.5-1.8c-0.9,0-1.6,0.7-1.7,1.8c0,1,0.7,1.8,1.6,1.8
		C38.5,26.9,39.3,26.1,39.3,25.2z"/>
	
		<linearGradient id="SVGID_00000041264275680257788210000002131732954259782076_" gradientUnits="userSpaceOnUse" x1="28.0304" y1="16.3061" x2="28.0304" y2="4.9419">
		<stop  offset="0" style="stop-color:#6559A5"/>
		<stop  offset="1" style="stop-color:#CCEAEE"/>
		<stop  offset="1" style="stop-color:#C5E7EE"/>
	</linearGradient>
	<path style="fill:url(#SVGID_00000041264275680257788210000002131732954259782076_);" d="M24,13.5c1.1,0,2.2,0,3.3,0
		c0.4,0,0.8-0.3,1.1-0.5c0.3-0.2,0.5-0.6,0.8-0.9c0.7-0.7,1-1.3,0.7-2.5c-0.6-2.1,0.9-4.3,2.9-4.5c1.9-0.3,3.7,1.4,3.8,3.6
		c0.1,2.2-1.5,4.1-3.5,4c-0.7,0-1.1,0.2-1.5,0.8c-0.5,0.7-1.1,1.4-1.7,2.1c-0.5,0.6-1.1,0.9-1.8,0.9c-2.5,0-4.9,0-7.4,0
		c-0.8,0-1.1-0.3-1.1-1.4c0-1,0.3-1.4,1.1-1.4C21.8,13.5,22.9,13.5,24,13.5z M33.2,10.6c0.9,0,1.6-0.8,1.6-1.8c0-1-0.8-1.8-1.6-1.8
		c-0.9,0-1.6,0.8-1.6,1.9C31.6,9.8,32.3,10.6,33.2,10.6z"/>
	
		<linearGradient id="SVGID_00000168839507883492194200000009143358666049247880_" gradientUnits="userSpaceOnUse" x1="27.8045" y1="39.5484" x2="27.8045" y2="28.8317">
		<stop  offset="0" style="stop-color:#6559A5"/>
		<stop  offset="1" style="stop-color:#CCEAEE"/>
		<stop  offset="1" style="stop-color:#C5E7EE"/>
	</linearGradient>
	<path style="fill:url(#SVGID_00000168839507883492194200000009143358666049247880_);" d="M24.4,28.8c1.2,0,2.4,0,3.6,0
		c0.8,0,1.4,0.3,1.9,1c0.5,0.7,1,1.3,1.5,1.9c0.1,0.2,0.4,0.3,0.6,0.2c2-0.3,3.8,1.2,4,3.3c0.2,2.3-1.3,4.2-3.3,4.2
		c-2,0.1-3.6-1.8-3.5-4.1c0-0.3,0.1-0.7,0.2-1c0.3-0.5,0.1-0.9-0.2-1.3c-1.5-1.8-0.9-1.5-3.1-1.5c-1.9,0-3.7,0-5.6,0
		c-0.9,0-1.1-0.3-1.1-1.4c0-1.1,0.3-1.4,1.2-1.4C21.9,28.8,23.2,28.8,24.4,28.8C24.4,28.8,24.4,28.8,24.4,28.8z M34.3,35.7
		c0-1-0.7-1.8-1.6-1.8c-0.9,0-1.6,0.8-1.6,1.8c0,1,0.7,1.8,1.6,1.8C33.6,37.6,34.3,36.8,34.3,35.7z"/>
	
		<linearGradient id="SVGID_00000014612237281114250980000003322015786311221935_" gradientUnits="userSpaceOnUse" x1="45.6525" y1="17.052" x2="45.6525" y2="13.4482">
		<stop  offset="0" style="stop-color:#6559A5"/>
		<stop  offset="1" style="stop-color:#CCEAEE"/>
		<stop  offset="1" style="stop-color:#C5E7EE"/>
	</linearGradient>
	<path style="fill:url(#SVGID_00000014612237281114250980000003322015786311221935_);" d="M47.3,15.2c0,1-0.7,1.8-1.6,1.8
		c-0.9,0-1.6-0.8-1.6-1.8c0-1,0.7-1.8,1.6-1.8C46.5,13.4,47.2,14.2,47.3,15.2z"/>
	
		<linearGradient id="SVGID_00000016785301163453020100000015249374231911861930_" gradientUnits="userSpaceOnUse" x1="37.6724" y1="26.9444" x2="37.6724" y2="23.345">
		<stop  offset="0" style="stop-color:#6559A5"/>
		<stop  offset="1" style="stop-color:#CCEAEE"/>
		<stop  offset="1" style="stop-color:#C5E7EE"/>
	</linearGradient>
	<path style="fill:url(#SVGID_00000016785301163453020100000015249374231911861930_);" d="M39.3,25.2c0,1-0.7,1.8-1.6,1.8
		c-0.9,0-1.6-0.9-1.6-1.8c0-1,0.7-1.8,1.7-1.8C38.6,23.4,39.3,24.2,39.3,25.2z"/>
	
		<linearGradient id="SVGID_00000129919822800663820270000017733580998659903876_" gradientUnits="userSpaceOnUse" x1="33.1446" y1="10.569" x2="33.1446" y2="6.9673">
		<stop  offset="0" style="stop-color:#6559A5"/>
		<stop  offset="1" style="stop-color:#CCEAEE"/>
		<stop  offset="1" style="stop-color:#C5E7EE"/>
	</linearGradient>
	<path style="fill:url(#SVGID_00000129919822800663820270000017733580998659903876_);" d="M33.2,10.6c-0.9,0-1.6-0.7-1.6-1.7
		c0-1,0.7-1.9,1.6-1.9c0.9,0,1.6,0.8,1.6,1.8C34.8,9.7,34,10.6,33.2,10.6z"/>
	
		<linearGradient id="SVGID_00000052067852524839733520000001874038888920485522_" gradientUnits="userSpaceOnUse" x1="32.6923" y1="37.5361" x2="32.6923" y2="33.9263">
		<stop  offset="0" style="stop-color:#6559A5"/>
		<stop  offset="1" style="stop-color:#CCEAEE"/>
		<stop  offset="1" style="stop-color:#C5E7EE"/>
	</linearGradient>
	<path style="fill:url(#SVGID_00000052067852524839733520000001874038888920485522_);" d="M34.3,35.7c0,1-0.7,1.8-1.6,1.8
		c-0.9,0-1.6-0.8-1.6-1.8c0-1,0.8-1.8,1.6-1.8C33.6,34,34.3,34.8,34.3,35.7z"/>
</g>
<path d="M38.1,59.8"/>
</svg>
