<?xml version="1.0" encoding="utf-8"?>
<!-- Generator: Adobe Illustrator 27.4.0, SVG Export Plug-In . SVG Version: 6.00 Build 0)  -->
<svg version="1.1" id="Layer_1" xmlns="http://www.w3.org/2000/svg" xmlns:xlink="http://www.w3.org/1999/xlink" x="0px" y="0px"
	 viewBox="0 0 49.7 45.5" style="enable-background:new 0 0 49.7 45.5;" xml:space="preserve">
<style type="text/css">
	.st0{fill:url(#SVGID_1_);}
	.st1{fill:url(#SVGID_00000176018897639787615990000003192034898413545874_);}
	.st2{fill:url(#SVGID_00000119805185124925557510000009027227590618882208_);}
	.st3{fill:url(#SVGID_00000115480715015854672880000010690663696558698380_);}
	.st4{fill:url(#SVGID_00000040574515713891460030000009400363527445294525_);}
	.st5{fill:url(#SVGID_00000145739690235960969210000017086882586265937293_);}
	.st6{fill:url(#SVGID_00000021110089834530420060000010094682657688681653_);}
	.st7{fill:url(#SVGID_00000072967885197156072770000005795677668302532277_);}
	.st8{fill:url(#SVGID_00000170963801940119902900000001253842041129632936_);}
	.st9{fill:url(#SVGID_00000080921422519802239160000011408325054415054986_);}
	.st10{fill:url(#SVGID_00000043426536878294932000000004138325882877866911_);}
	.st11{fill:url(#SVGID_00000099660011164943009390000000951307835531573152_);}
	.st12{fill:url(#SVGID_00000157997986943135935520000004984512275931746447_);}
	.st13{fill:url(#SVGID_00000074410360601850026540000009733310414573719968_);}
	.st14{fill:url(#SVGID_00000115503147668463275550000015164728373906951862_);}
	.st15{fill:url(#SVGID_00000064356310674613899480000010801096339061805204_);}
	.st16{fill:url(#SVGID_00000119093779560826683890000013499370627190760588_);}
	.st17{fill:url(#SVGID_00000155140051280916285180000011099106638577156766_);}
	.st18{fill:url(#SVGID_00000017477875637248898410000001863052526418101402_);}
	.st19{fill:url(#SVGID_00000155860590147287061670000006450610367267403925_);}
</style>
<g>
	<linearGradient id="SVGID_1_" gradientUnits="userSpaceOnUse" x1="25.5589" y1="45.53" x2="25.5589" y2="0.8794">
		<stop  offset="0" style="stop-color:#6A62AA"/>
		<stop  offset="0.1508" style="stop-color:#6459A5"/>
		<stop  offset="0.8464" style="stop-color:#C3E2ED"/>
		<stop  offset="1" style="stop-color:#C7E8F0"/>
		<stop  offset="1" style="stop-color:#CEEAEE"/>
	</linearGradient>
	<path class="st0" d="M14.9,27.7c-2.5,0-4.9,0-7.3,0c-1,0-1.9-0.2-2.6-0.8c-0.9-0.7-1.5-1.7-1.5-2.9c0-6.5,0-13,0-19.6
		c0-2,1.7-3.6,3.7-3.6c5.2,0,10.3,0,15.5,0c4.5,0,9.1,0,13.6,0c2.4,0,3.9,1.6,4,4c0,4.2,0,8.3,0,12.5c0,0.3,0.1,0.5,0.4,0.7
		c1.4,0.9,1.4,0.8,0.8,2.3c-0.3,0.8,0,1.3,0.6,1.7c0.1,0.1,0.4,0.2,0.6,0.1c0.5-0.1,0.9-0.3,1.4-0.4c0.4-0.1,0.7,0,1,0.3
		c0.5,0.8,0.9,1.6,1.4,2.4c0.2,0.4,0.1,0.7-0.2,1c-0.4,0.3-0.7,0.7-1.1,1c-0.1,0.1-0.1,0.3-0.1,0.5c0,0.9,0.5,1.3,1.4,1.4
		c1.2,0.2,1.3,0.3,1.3,1.6c0,0.7,0,1.4-0.1,2.1c0,0.4-0.3,0.7-0.7,0.8c-0.5,0.1-1,0.2-1.5,0.4c-0.1,0-0.3,0.2-0.3,0.3
		c-0.4,1.1-0.4,1.1,0.5,1.9c0.2,0.1,0.3,0.3,0.5,0.4c0.3,0.3,0.4,0.6,0.2,1c-0.4,0.8-0.9,1.6-1.4,2.4c-0.2,0.3-0.5,0.4-0.9,0.3
		c-0.5-0.1-0.9-0.3-1.4-0.4c-0.2,0-0.4,0-0.5,0.1c-0.7,0.5-0.8,1.1-0.5,1.9c0.5,1.2,0.4,1.3-0.7,2c-0.6,0.4-1.1,0.7-1.7,1
		c-0.4,0.2-0.8,0.2-1.1-0.2c-0.1-0.2-0.3-0.3-0.4-0.5c-0.4-0.7-0.9-0.9-1.7-0.5c-0.3,0.1-0.5,0.2-0.5,0.6c-0.1,0.4-0.2,0.9-0.3,1.3
		c-0.1,0.4-0.3,0.7-0.8,0.7c-0.9,0-1.8,0-2.8,0c-0.4,0-0.6-0.2-0.7-0.6c-0.1-0.5-0.2-1-0.4-1.5c0-0.2-0.2-0.3-0.4-0.4c0,0,0,0,0,0
		c-0.8-0.4-1.4-0.2-1.8,0.6c-0.1,0.2-0.3,0.3-0.4,0.5c-0.3,0.3-0.6,0.4-1,0.2c-0.8-0.5-1.6-0.9-2.4-1.4c-0.3-0.2-0.4-0.5-0.3-0.9
		c0.1-0.5,0.3-0.9,0.4-1.4c0-0.2,0-0.4-0.1-0.6c-0.5-0.8-1.1-0.9-1.9-0.5c-0.2,0.1-0.4,0.1-0.6,0.2c-0.4,0.1-0.8,0-1-0.4
		c-0.2-0.3-0.4-0.4-0.7-0.4c-2.8,0-5.7,0-8.5,0c-1.9,0-3.4-1.3-3.7-3.2c-0.1-0.9,0.1-1.2,1-1.2c1.1,0,2.1,0,3.2,0
		c0.3,0,0.4-0.1,0.5-0.3c0.7-2,1.5-4.1,2.2-6.1C14.9,27.9,14.9,27.8,14.9,27.7z M38.8,17c0-0.2,0-0.4,0-0.5c0-3.9,0-7.7,0-11.6
		c0-1.7-0.9-2.5-2.5-2.5c-9.6,0-19.3,0-28.9,0c-1.6,0-2.5,0.9-2.5,2.5c0,5,0,9.9,0,14.9c0,0.2,0,0.3,0,0.5c1,0,2,0,2.9,0
		c0-0.2,0-0.4,0-0.6c0-4.9,0-9.8,0-14.7c0-0.8,0.2-1.1,1-1.1c8.6,0,17.3,0,25.9,0c0.8,0,1,0.2,1,1c0,3,0,5.9,0,8.9
		c0,0.2,0,0.3,0,0.5c-0.5,0-1,0-1.5,0c0-3,0-5.9,0-8.9c-8.4,0-16.7,0-25,0c0,1.5,0,2.9,0,4.4c2.5,0,4.9,0,7.3,0c0,0.5,0,1,0,1.5
		c-2.5,0-4.9,0-7.3,0c0,3,0,6,0,8.9c5,0,9.9,0,14.9,0c0-0.2-0.1-0.3-0.1-0.5c-0.2-0.8-0.2-0.9,0.5-1.3c0.7-0.4,1.4-0.8,2.1-1.2
		c0.4-0.2,0.8-0.2,1.1,0.2c0.1,0.1,0.3,0.3,0.4,0.4c0.5,0.8,1.1,1,1.9,0.6c0,0,0,0,0,0c0.1-0.1,0.3-0.2,0.3-0.4
		c0.1-0.5,0.2-1,0.4-1.4c0.1-0.4,0.3-0.7,0.8-0.7c0.9,0,1.8,0,2.7,0c0.4,0,0.7,0.2,0.8,0.7c0.1,0.5,0.2,1,0.4,1.5
		c0,0.1,0.1,0.3,0.2,0.3c1,0.5,1.2,0.4,2-0.4C37.9,17.5,38.2,17,38.8,17z M21.1,36.7c0.2,0.4,0.4,0.8,0.7,1.1
		c0.1,0.1,0.3,0.2,0.4,0.1c0.5-0.1,0.9-0.3,1.4-0.4c0.4-0.1,0.6,0,0.9,0.2c0.5,0.5,1,1,1.5,1.5c0.3,0.3,0.4,0.6,0.2,0.9
		c-0.1,0.5-0.3,0.9-0.4,1.4c0,0.1,0,0.3,0.1,0.4c0.4,0.3,0.8,0.5,1.2,0.7c0.4-0.4,0.8-0.8,1.1-1.2c0.3-0.4,0.6-0.4,1.1-0.3
		c0.6,0.2,1.2,0.3,1.8,0.5c0.4,0.1,0.7,0.3,0.8,0.7c0.1,0.6,0.3,1.1,0.4,1.7c0.5,0,0.9,0,1.3,0c0.1,0,0.3-0.2,0.4-0.3
		c0.1-0.5,0.2-1,0.4-1.4c0.1-0.4,0.3-0.6,0.7-0.7c0.6-0.2,1.3-0.3,1.9-0.5c0.4-0.1,0.7-0.1,1,0.3c0.3,0.3,0.6,0.7,0.9,1
		c0.4,0.4,0.6,0,0.9-0.2c0.2-0.1,0.8-0.1,0.6-0.7c-0.1-0.5-0.3-0.9-0.4-1.4c-0.1-0.4,0-0.7,0.3-0.9c0.5-0.5,0.9-1,1.4-1.4
		c0.2-0.2,0.5-0.2,0.8-0.3c0.2,0,0.4,0.1,0.6,0.2c1.2,0.4,1.2,0.4,1.8-0.8c0.1-0.1,0-0.4-0.1-0.5c-0.3-0.3-0.6-0.6-1-0.9
		c-0.3-0.3-0.4-0.6-0.3-1.1c0.2-0.6,0.3-1.2,0.5-1.8c0.1-0.4,0.3-0.7,0.7-0.7c0.5-0.1,0.9-0.2,1.4-0.3c0.5-0.1,0.3-0.6,0.3-0.8
		c0-0.3,0.3-0.7-0.3-0.9c-0.5-0.1-1-0.2-1.4-0.3c-0.4-0.1-0.6-0.3-0.7-0.6c-0.2-0.7-0.4-1.4-0.5-2.1c0-0.3,0.1-0.6,0.2-0.8
		c0.1-0.2,0.3-0.3,0.5-0.5c0.9-0.9,0.9-0.9,0.2-1.9c-0.1-0.1-0.3-0.2-0.4-0.2c-0.5,0.1-0.9,0.3-1.4,0.4c-0.3,0-0.6-0.1-0.8-0.2
		c-0.5-0.5-1-1-1.5-1.5c-0.3-0.3-0.4-0.5-0.2-0.9c0.1-0.2,0.1-0.4,0.2-0.6c0.4-1.2,0.4-1.2-0.8-1.8c-0.1-0.1-0.4,0-0.5,0.1
		c-0.3,0.3-0.7,0.7-1,1c-0.3,0.3-0.6,0.3-1,0.2c-0.6-0.2-1.3-0.4-1.9-0.5c-0.4-0.1-0.6-0.3-0.7-0.7c-0.1-0.5-0.2-0.9-0.3-1.4
		c0-0.1-0.2-0.3-0.3-0.3c-0.5,0-0.9,0-1.4,0c-0.1,0.6-0.3,1.2-0.4,1.7c-0.1,0.4-0.3,0.6-0.7,0.7c-0.6,0.1-1.2,0.3-1.8,0.5
		c-0.5,0.2-0.8,0.1-1.1-0.3c-0.4-0.4-0.7-0.8-1.1-1.2c-0.4,0.2-0.7,0.4-1.1,0.6c-0.2,0.1-0.3,0.3-0.2,0.5c0.2,0.4,0.3,0.9,0.4,1.3
		c0.1,0.4,0,0.7-0.3,1c-0.5,0.5-0.9,0.9-1.4,1.4c-0.3,0.3-0.6,0.4-0.9,0.3c-0.5-0.2-0.9-0.3-1.4-0.4c-0.1,0-0.3,0-0.3,0.1
		c-0.3,0.4-0.5,0.8-0.7,1.2c0.4,0.4,0.8,0.8,1.2,1.2c0.3,0.3,0.4,0.6,0.3,1c-0.2,0.6-0.4,1.2-0.5,1.8c-0.1,0.4-0.3,0.7-0.7,0.8
		c-0.5,0.1-1.1,0.3-1.6,0.4c0,0.5,0,1.1,0,1.6c0.6,0.1,1.2,0.3,1.7,0.4c0.4,0.1,0.5,0.3,0.6,0.7c0.2,0.7,0.3,1.3,0.5,2
		c0.1,0.4,0.1,0.7-0.2,1C21.9,35.9,21.5,36.3,21.1,36.7z M4.9,21.8c0,0.7,0,1.4,0,2.1c0,1.4,0.9,2.3,2.3,2.3c4.3,0,8.6,0,12.9,0
		c0.1,0,0.2,0,0.4,0c-0.2-0.2-0.4-0.4-0.6-0.6c-0.5-0.5-0.6-0.7-0.2-1.3c0.5-0.9,0.9-1.7,1.4-2.5C15.7,21.8,10.4,21.8,4.9,21.8z
		 M20.8,27.9c0,0-0.1-0.1-0.1-0.1c-1.3,0-2.5,0-3.8,0c-0.3,0-0.5,0.1-0.6,0.4c-0.6,1.8-1.3,3.6-1.9,5.4c-0.1,0.3-0.2,0.5-0.3,0.8
		c2.3,0,4.6,0,6.9,0c-0.1-0.2-0.2-0.5-0.2-0.7c0-0.4-0.2-0.5-0.6-0.6c-0.4-0.1-0.8-0.2-1.3-0.3c-0.4-0.1-0.7-0.3-0.7-0.8
		c0-0.9,0-1.8,0-2.7c0-0.5,0.3-0.8,0.7-0.8c0.5-0.1,0.9-0.2,1.3-0.3C20.5,28.1,20.7,28,20.8,27.9z M9.6,35.9
		c0.2,0.9,1.1,1.5,2.1,1.5c2.6,0,5.3,0,7.9,0c0.1,0,0.1,0,0.3,0c-0.2-0.5-0.5-0.9-0.1-1.4C16.3,35.9,12.9,35.9,9.6,35.9z M22.2,21.8
		C22.2,21.8,22.2,21.8,22.2,21.8c0.3,0.2,0.7,0.3,1,0.4c0.4,0.2,0.6-0.1,0.8-0.4C23.4,21.8,22.8,21.8,22.2,21.8z"/>
	
		<linearGradient id="SVGID_00000132769930924086617180000007463441397116046515_" gradientUnits="userSpaceOnUse" x1="25.2085" y1="18.7474" x2="25.2085" y2="7.8573">
		<stop  offset="0" style="stop-color:#6A62AA"/>
		<stop  offset="0.1508" style="stop-color:#6459A5"/>
		<stop  offset="0.8464" style="stop-color:#C3E2ED"/>
		<stop  offset="1" style="stop-color:#C7E8F0"/>
		<stop  offset="1" style="stop-color:#CEEAEE"/>
	</linearGradient>
	<path style="fill:url(#SVGID_00000132769930924086617180000007463441397116046515_);" d="M18.9,18.7c-0.5,0-1,0-1.4,0
		c0-0.1,0-0.3,0-0.4c0-1.3,0-2.6,0-4c0-2.2,1.6-3.8,3.8-3.8c2.9,0,5.7,0,8.6,0c0.2,0,0.3,0,0.6,0c-0.6-0.6-1.1-1.1-1.7-1.6
		c0.4-0.4,0.8-0.7,1.1-1.1c1,1,2,2,2.9,3c0.3,0.3,0.3,0.7,0,1c-1,1-2,2-3,3c-0.3-0.4-0.7-0.7-1-1c0.5-0.5,1.1-1,1.6-1.5
		c0,0-0.1-0.1-0.1-0.1c-0.1,0-0.2,0-0.3,0c-2.9,0-5.8,0-8.7,0c-1.4,0-2.3,1-2.3,2.3c0,1.3,0,2.6,0,3.9
		C18.9,18.4,18.9,18.6,18.9,18.7z"/>
	
		<linearGradient id="SVGID_00000181791331679012338060000015581629828329115053_" gradientUnits="userSpaceOnUse" x1="14.506" y1="8.303" x2="14.506" y2="6.8673">
		<stop  offset="0" style="stop-color:#6A62AA"/>
		<stop  offset="0.1508" style="stop-color:#6459A5"/>
		<stop  offset="0.8464" style="stop-color:#C3E2ED"/>
		<stop  offset="1" style="stop-color:#C7E8F0"/>
		<stop  offset="1" style="stop-color:#CEEAEE"/>
	</linearGradient>
	<path style="fill:url(#SVGID_00000181791331679012338060000015581629828329115053_);" d="M13.8,6.9c0.5,0,0.9,0,1.4,0
		c0,0.5,0,0.9,0,1.4c-0.5,0-0.9,0-1.4,0C13.8,7.8,13.8,7.4,13.8,6.9z"/>
	
		<linearGradient id="SVGID_00000020370225031781130370000004194263868233521049_" gradientUnits="userSpaceOnUse" x1="17.463" y1="8.3018" x2="17.463" y2="6.8686">
		<stop  offset="0" style="stop-color:#6A62AA"/>
		<stop  offset="0.1508" style="stop-color:#6459A5"/>
		<stop  offset="0.8464" style="stop-color:#C3E2ED"/>
		<stop  offset="1" style="stop-color:#C7E8F0"/>
		<stop  offset="1" style="stop-color:#CEEAEE"/>
	</linearGradient>
	<path style="fill:url(#SVGID_00000020370225031781130370000004194263868233521049_);" d="M18.2,6.9c0,0.5,0,0.9,0,1.4
		c-0.5,0-0.9,0-1.4,0c0-0.5,0-0.9,0-1.4C17.2,6.9,17.7,6.9,18.2,6.9z"/>
	
		<linearGradient id="SVGID_00000182513377035991018810000009127059882941747353_" gradientUnits="userSpaceOnUse" x1="11.5651" y1="8.2991" x2="11.5651" y2="6.8664">
		<stop  offset="0" style="stop-color:#6A62AA"/>
		<stop  offset="0.1508" style="stop-color:#6459A5"/>
		<stop  offset="0.8464" style="stop-color:#C3E2ED"/>
		<stop  offset="1" style="stop-color:#C7E8F0"/>
		<stop  offset="1" style="stop-color:#CEEAEE"/>
	</linearGradient>
	<path style="fill:url(#SVGID_00000182513377035991018810000009127059882941747353_);" d="M10.9,6.9c0.5,0,0.9,0,1.4,0
		c0,0.5,0,0.9,0,1.4c-0.5,0-0.9,0-1.4,0C10.9,7.8,10.9,7.4,10.9,6.9z"/>
	
		<linearGradient id="SVGID_00000072997852977807935150000017758583522910075293_" gradientUnits="userSpaceOnUse" x1="32.9408" y1="35.9113" x2="32.9408" y2="25.4795">
		<stop  offset="0" style="stop-color:#6A62AA"/>
		<stop  offset="0.1508" style="stop-color:#6459A5"/>
		<stop  offset="0.8464" style="stop-color:#C3E2ED"/>
		<stop  offset="1" style="stop-color:#C7E8F0"/>
		<stop  offset="1" style="stop-color:#CEEAEE"/>
	</linearGradient>
	<path style="fill:url(#SVGID_00000072997852977807935150000017758583522910075293_);" d="M38.1,30.7c0,2.9-2.3,5.2-5.2,5.2
		c-2.8,0-5.2-2.3-5.2-5.2c0-2.9,2.3-5.2,5.2-5.2C35.8,25.5,38.1,27.8,38.1,30.7z M29.3,30.7c0,2.1,1.6,3.7,3.7,3.7
		c2,0,3.7-1.7,3.7-3.7c0-2.1-1.6-3.8-3.7-3.8C30.9,27,29.3,28.6,29.3,30.7z"/>
	
		<linearGradient id="SVGID_00000168796084072098466460000006004285615471664538_" gradientUnits="userSpaceOnUse" x1="40.5383" y1="28.6761" x2="40.5383" y2="26.7828">
		<stop  offset="0" style="stop-color:#6A62AA"/>
		<stop  offset="0.1508" style="stop-color:#6459A5"/>
		<stop  offset="0.8464" style="stop-color:#C3E2ED"/>
		<stop  offset="1" style="stop-color:#C7E8F0"/>
		<stop  offset="1" style="stop-color:#CEEAEE"/>
	</linearGradient>
	<path style="fill:url(#SVGID_00000168796084072098466460000006004285615471664538_);" d="M39.6,27.4c0.4-0.2,0.8-0.4,1.3-0.7
		c0.2,0.5,0.4,1,0.6,1.5c-0.5,0.1-0.9,0.3-1.4,0.4C39.9,28.3,39.8,27.9,39.6,27.4z"/>
	
		<linearGradient id="SVGID_00000054252013596646808210000001997568103181064383_" gradientUnits="userSpaceOnUse" x1="41.0129" y1="32.2858" x2="41.0129" y2="30.7013">
		<stop  offset="0" style="stop-color:#6A62AA"/>
		<stop  offset="0.1508" style="stop-color:#6459A5"/>
		<stop  offset="0.8464" style="stop-color:#C3E2ED"/>
		<stop  offset="1" style="stop-color:#C7E8F0"/>
		<stop  offset="1" style="stop-color:#CEEAEE"/>
	</linearGradient>
	<path style="fill:url(#SVGID_00000054252013596646808210000001997568103181064383_);" d="M40.3,30.7c0.5,0,0.9,0,1.5,0
		c0,0.5-0.1,1-0.1,1.6c-0.5-0.1-1-0.2-1.4-0.3C40.3,31.6,40.3,31.2,40.3,30.7z"/>
	
		<linearGradient id="SVGID_00000173875460158609857530000003288785287306942142_" gradientUnits="userSpaceOnUse" x1="35.4855" y1="23.8076" x2="35.4855" y2="21.957">
		<stop  offset="0" style="stop-color:#6A62AA"/>
		<stop  offset="0.1508" style="stop-color:#6459A5"/>
		<stop  offset="0.8464" style="stop-color:#C3E2ED"/>
		<stop  offset="1" style="stop-color:#C7E8F0"/>
		<stop  offset="1" style="stop-color:#CEEAEE"/>
	</linearGradient>
	<path style="fill:url(#SVGID_00000173875460158609857530000003288785287306942142_);" d="M36.4,22.4c-0.2,0.5-0.4,0.9-0.6,1.4
		c-0.4-0.1-0.8-0.3-1.3-0.4c0.1-0.5,0.2-0.9,0.3-1.4C35.4,22.1,35.9,22.3,36.4,22.4z"/>
	
		<linearGradient id="SVGID_00000152243568310619819040000014411424814353112480_" gradientUnits="userSpaceOnUse" x1="34.1369" y1="39.6527" x2="34.1369" y2="37.979">
		<stop  offset="0" style="stop-color:#6A62AA"/>
		<stop  offset="0.1508" style="stop-color:#6459A5"/>
		<stop  offset="0.8464" style="stop-color:#C3E2ED"/>
		<stop  offset="1" style="stop-color:#C7E8F0"/>
		<stop  offset="1" style="stop-color:#CEEAEE"/>
	</linearGradient>
	<path style="fill:url(#SVGID_00000152243568310619819040000014411424814353112480_);" d="M34.9,39.4c-0.6,0.1-1,0.1-1.6,0.2
		c0-0.5,0-1,0-1.5c0.4-0.1,0.8-0.1,1.2-0.2C34.7,38.4,34.8,38.9,34.9,39.4z"/>
	
		<linearGradient id="SVGID_00000075147912216614455680000002349911172709849272_" gradientUnits="userSpaceOnUse" x1="31.7658" y1="23.4127" x2="31.7658" y2="21.7393">
		<stop  offset="0" style="stop-color:#6A62AA"/>
		<stop  offset="0.1508" style="stop-color:#6459A5"/>
		<stop  offset="0.8464" style="stop-color:#C3E2ED"/>
		<stop  offset="1" style="stop-color:#C7E8F0"/>
		<stop  offset="1" style="stop-color:#CEEAEE"/>
	</linearGradient>
	<path style="fill:url(#SVGID_00000075147912216614455680000002349911172709849272_);" d="M32.5,21.7c0,0.5,0,1,0.1,1.5
		c-0.5,0.1-0.9,0.1-1.3,0.2c-0.1-0.5-0.2-0.9-0.3-1.4C31.5,21.9,32,21.8,32.5,21.7z"/>
	
		<linearGradient id="SVGID_00000050658664079025070450000011556789151098054820_" gradientUnits="userSpaceOnUse" x1="38.5673" y1="25.7541" x2="38.5673" y2="23.675">
		<stop  offset="0" style="stop-color:#6A62AA"/>
		<stop  offset="0.1508" style="stop-color:#6459A5"/>
		<stop  offset="0.8464" style="stop-color:#C3E2ED"/>
		<stop  offset="1" style="stop-color:#C7E8F0"/>
		<stop  offset="1" style="stop-color:#CEEAEE"/>
	</linearGradient>
	<path style="fill:url(#SVGID_00000050658664079025070450000011556789151098054820_);" d="M39.6,24.8c-0.4,0.3-0.7,0.7-1.1,1
		c-0.3-0.3-0.6-0.6-1-0.9c0.3-0.4,0.6-0.7,0.9-1.2C38.8,24,39.2,24.4,39.6,24.8z"/>
	
		<linearGradient id="SVGID_00000142885063024788369020000006201799298959831468_" gradientUnits="userSpaceOnUse" x1="39.9283" y1="35.9576" x2="39.9283" y2="33.9385">
		<stop  offset="0" style="stop-color:#6A62AA"/>
		<stop  offset="0.1508" style="stop-color:#6459A5"/>
		<stop  offset="0.8464" style="stop-color:#C3E2ED"/>
		<stop  offset="1" style="stop-color:#C7E8F0"/>
		<stop  offset="1" style="stop-color:#CEEAEE"/>
	</linearGradient>
	<path style="fill:url(#SVGID_00000142885063024788369020000006201799298959831468_);" d="M40.9,34.6c-0.3,0.5-0.5,0.9-0.8,1.4
		c-0.4-0.3-0.8-0.6-1.2-0.9c0.2-0.4,0.4-0.8,0.7-1.1C40,34.2,40.5,34.4,40.9,34.6z"/>
	
		<linearGradient id="SVGID_00000079460013906621719510000015739571193774221717_" gradientUnits="userSpaceOnUse" x1="28.4123" y1="24.8598" x2="28.4123" y2="22.8093">
		<stop  offset="0" style="stop-color:#6A62AA"/>
		<stop  offset="0.1508" style="stop-color:#6459A5"/>
		<stop  offset="0.8464" style="stop-color:#C3E2ED"/>
		<stop  offset="1" style="stop-color:#C7E8F0"/>
		<stop  offset="1" style="stop-color:#CEEAEE"/>
	</linearGradient>
	<path style="fill:url(#SVGID_00000079460013906621719510000015739571193774221717_);" d="M29.4,24.1c-0.4,0.3-0.7,0.5-1.1,0.7
		c-0.3-0.4-0.6-0.7-0.9-1.1c0.4-0.3,0.8-0.6,1.3-0.9C29,23.3,29.2,23.7,29.4,24.1z"/>
	
		<linearGradient id="SVGID_00000066494273792712089590000017151555980862529704_" gradientUnits="userSpaceOnUse" x1="25.3417" y1="34.5994" x2="25.3417" y2="32.7047">
		<stop  offset="0" style="stop-color:#6A62AA"/>
		<stop  offset="0.1508" style="stop-color:#6459A5"/>
		<stop  offset="0.8464" style="stop-color:#C3E2ED"/>
		<stop  offset="1" style="stop-color:#C7E8F0"/>
		<stop  offset="1" style="stop-color:#CEEAEE"/>
	</linearGradient>
	<path style="fill:url(#SVGID_00000066494273792712089590000017151555980862529704_);" d="M25.8,32.7c0.2,0.4,0.3,0.8,0.5,1.2
		c-0.4,0.2-0.8,0.4-1.3,0.6c-0.2-0.5-0.4-1-0.6-1.5C24.9,33,25.3,32.8,25.8,32.7z"/>
	
		<linearGradient id="SVGID_00000057108008721518117670000007217255348301238718_" gradientUnits="userSpaceOnUse" x1="27.3058" y1="37.7056" x2="27.3058" y2="35.6274">
		<stop  offset="0" style="stop-color:#6A62AA"/>
		<stop  offset="0.1508" style="stop-color:#6459A5"/>
		<stop  offset="0.8464" style="stop-color:#C3E2ED"/>
		<stop  offset="1" style="stop-color:#C7E8F0"/>
		<stop  offset="1" style="stop-color:#CEEAEE"/>
	</linearGradient>
	<path style="fill:url(#SVGID_00000057108008721518117670000007217255348301238718_);" d="M26.3,36.6c0.4-0.4,0.7-0.7,1.1-1
		c0.3,0.3,0.6,0.6,1,0.9c-0.3,0.4-0.6,0.7-0.9,1.2C27,37.3,26.7,37,26.3,36.6z"/>
	
		<linearGradient id="SVGID_00000054252449633568157850000013888080789016149675_" gradientUnits="userSpaceOnUse" x1="30.3799" y1="39.4254" x2="30.3799" y2="37.579">
		<stop  offset="0" style="stop-color:#6A62AA"/>
		<stop  offset="0.1508" style="stop-color:#6459A5"/>
		<stop  offset="0.8464" style="stop-color:#C3E2ED"/>
		<stop  offset="1" style="stop-color:#C7E8F0"/>
		<stop  offset="1" style="stop-color:#CEEAEE"/>
	</linearGradient>
	<path style="fill:url(#SVGID_00000054252449633568157850000013888080789016149675_);" d="M29.5,39c0.2-0.5,0.4-0.9,0.6-1.4
		c0.4,0.1,0.8,0.3,1.3,0.4c-0.1,0.5-0.2,0.9-0.3,1.4C30.5,39.3,30,39.1,29.5,39z"/>
	
		<linearGradient id="SVGID_00000057858732786454774860000013924633851078999424_" gradientUnits="userSpaceOnUse" x1="25.9494" y1="27.4606" x2="25.9494" y2="25.442">
		<stop  offset="0" style="stop-color:#6A62AA"/>
		<stop  offset="0.1508" style="stop-color:#6459A5"/>
		<stop  offset="0.8464" style="stop-color:#C3E2ED"/>
		<stop  offset="1" style="stop-color:#C7E8F0"/>
		<stop  offset="1" style="stop-color:#CEEAEE"/>
	</linearGradient>
	<path style="fill:url(#SVGID_00000057858732786454774860000013924633851078999424_);" d="M26.3,27.5c-0.4-0.2-0.8-0.4-1.3-0.6
		c0.3-0.5,0.5-0.9,0.8-1.4c0.4,0.3,0.8,0.6,1.2,0.9C26.7,26.7,26.5,27.1,26.3,27.5z"/>
	
		<linearGradient id="SVGID_00000037652148381823577540000002276499853048843430_" gradientUnits="userSpaceOnUse" x1="24.8717" y1="30.6698" x2="24.8717" y2="29.1207">
		<stop  offset="0" style="stop-color:#6A62AA"/>
		<stop  offset="0.1508" style="stop-color:#6459A5"/>
		<stop  offset="0.8464" style="stop-color:#C3E2ED"/>
		<stop  offset="1" style="stop-color:#C7E8F0"/>
		<stop  offset="1" style="stop-color:#CEEAEE"/>
	</linearGradient>
	<path style="fill:url(#SVGID_00000037652148381823577540000002276499853048843430_);" d="M25.7,29.4c0,0.5-0.1,0.9-0.1,1.3
		c-0.5,0-0.9,0-1.5,0c0-0.5,0.1-1,0.1-1.5C24.7,29.2,25.2,29.3,25.7,29.4z"/>
	
		<linearGradient id="SVGID_00000057122419283763858040000008343492146551337911_" gradientUnits="userSpaceOnUse" x1="37.4617" y1="38.587" x2="37.4617" y2="36.5394">
		<stop  offset="0" style="stop-color:#6A62AA"/>
		<stop  offset="0.1508" style="stop-color:#6459A5"/>
		<stop  offset="0.8464" style="stop-color:#C3E2ED"/>
		<stop  offset="1" style="stop-color:#C7E8F0"/>
		<stop  offset="1" style="stop-color:#CEEAEE"/>
	</linearGradient>
	<path style="fill:url(#SVGID_00000057122419283763858040000008343492146551337911_);" d="M36.5,37.3c0.4-0.2,0.7-0.5,1.1-0.7
		c0.3,0.4,0.6,0.7,0.9,1.2c-0.5,0.3-0.9,0.6-1.3,0.9C36.9,38.1,36.7,37.7,36.5,37.3z"/>
</g>
</svg>
