<?xml version="1.0" encoding="utf-8"?>
<!-- Generator: Adobe Illustrator 27.4.0, SVG Export Plug-In . SVG Version: 6.00 Build 0)  -->
<svg version="1.1" id="Layer_1" xmlns="http://www.w3.org/2000/svg" xmlns:xlink="http://www.w3.org/1999/xlink" x="0px" y="0px"
	 viewBox="0 0 49.7 45.5" style="enable-background:new 0 0 49.7 45.5;" xml:space="preserve">
<style type="text/css">
	.st0{fill:url(#SVGID_1_);}
	.st1{fill:url(#SVGID_00000165230371206154370780000012236066339071111308_);}
	.st2{fill:url(#SVGID_00000160892348921850888220000007814326045977640589_);}
</style>
<g>
	<linearGradient id="SVGID_1_" gradientUnits="userSpaceOnUse" x1="40.053" y1="23.5178" x2="40.053" y2="0.4221">
		<stop  offset="0" style="stop-color:#6A62AA"/>
		<stop  offset="0.1508" style="stop-color:#6459A5"/>
		<stop  offset="0.8464" style="stop-color:#C3E2ED"/>
		<stop  offset="1" style="stop-color:#C7E8F0"/>
		<stop  offset="1" style="stop-color:#CEEAEE"/>
	</linearGradient>
	<path class="st0" d="M49.2,13.2c-0.1,0.6-0.2,1.2-0.3,1.8c-1.2,5.4-5.1,8.8-9.6,8.4c-4.1-0.3-7.6-4.6-8.2-9.9
		C30.2,6.2,35.2-0.3,41,0.5c4.3,0.6,7.5,4.6,8.1,10c0,0.1,0.1,0.2,0.1,0.3C49.2,11.6,49.2,12.4,49.2,13.2z M40.1,21.6
		c4.1,0.1,7.6-4.2,7.6-9.4c0.1-5.4-3.3-9.8-7.5-9.9c-4.3-0.1-7.7,4.2-7.8,9.5C32.4,17.3,35.7,21.5,40.1,21.6z"/>
	
		<linearGradient id="SVGID_00000021103017673008525970000008336807932822205071_" gradientUnits="userSpaceOnUse" x1="19.9861" y1="45.0918" x2="19.9861" y2="6.3687">
		<stop  offset="0" style="stop-color:#6A62AA"/>
		<stop  offset="0.1508" style="stop-color:#6459A5"/>
		<stop  offset="0.8464" style="stop-color:#C3E2ED"/>
		<stop  offset="1" style="stop-color:#C7E8F0"/>
		<stop  offset="1" style="stop-color:#CEEAEE"/>
	</linearGradient>
	<path style="fill:url(#SVGID_00000021103017673008525970000008336807932822205071_);" d="M25.6,18.5c0,2.4,0,4.7,0,7.1
		c0.1,0,0.2,0.1,0.4,0.1c1.4,0,2.8,0,4.3,0c0.3,0,0.4-0.1,0.5-0.5c0.1-0.9,0.3-1.8,0.5-2.7c0-0.1,0-0.2,0.1-0.3
		c0.1-0.6,0.5-0.8,0.9-0.7c0.4,0.1,0.6,0.5,0.5,1.1c-0.1,0.9-0.3,1.8-0.4,2.6c0,0.2,0,0.3-0.1,0.6c0.2,0,0.3,0,0.5,0
		c1.6,0,3.1,0,4.7,0c0.2,0,0.4-0.1,0.6-0.3c0.3-0.3,0.6-0.4,0.9-0.2c0.3,0.2,0.5,0.7,0.3,1.1c-0.8,3.1-1.7,6.1-2.5,9.2
		c-0.2,0.7-0.6,1.1-1.2,1.1c-0.2,0-0.4,0-0.6,0c-6.4,0-12.8,0-19.3,0c-0.2,0-0.4,0-0.7,0c0.1,0.6,0.2,1.1,0.4,1.5
		c0,0.1,0.3,0.2,0.5,0.2c2.7,0,5.3,0,8,0c3.8,0,7.7,0,11.5,0c0.6,0,0.9,0.3,0.9,0.8c0.1,0.6-0.3,1.1-0.8,1.1c-0.3,0-0.5,0-0.8,0
		c-0.2,0-0.5,0-0.8,0c0.5,1.7,0.3,3.2-0.9,4.2c-0.9,0.8-2.1,0.8-3,0c-1.2-1.1-1.4-2.5-0.9-4.2c-2.8,0-5.6,0-8.4,0
		c0.5,1.8,0.2,3.3-1.1,4.3c-0.9,0.7-1.9,0.7-2.8-0.2c-1.1-1.1-1.3-2.5-0.9-4.2c-0.3,0-0.5,0-0.8,0c-0.6,0-0.8-0.2-1-0.9
		c-1.5-6.1-3-12.3-4.5-18.4c-1-4-2-8-2.9-12C6.4,8.4,6.2,8.3,5.8,8.3c-1.4,0-2.7,0-4.1,0c-0.2,0-0.4-0.1-0.6-0.2
		c-0.3-0.2-0.4-0.6-0.3-1c0.1-0.4,0.4-0.7,0.7-0.7c1.2,0,2.4,0,3.5,0c0.4,0,0.8,0,1.2,0c0.8,0,1.2,0.4,1.5,1.4
		c0.7,2.7,1.3,5.4,2,8.2c0.1,0.5,0.3,0.6,0.7,0.6c6.3,0,12.5,0,18.8,0c0.1,0,0.3,0,0.4,0c0.5,0,0.8,0.4,0.8,0.9c0,0.5-0.3,1-0.8,1
		c-1,0-2,0-2.9,0C26.3,18.5,26,18.5,25.6,18.5z M24,18.5c-2.1,0-4.2,0-6.3,0c0.4,2.3,0.8,4.6,1.2,6.8c0,0.1,0.2,0.3,0.4,0.3
		c1.5,0,3,0,4.5,0c0.1,0,0.1,0,0.2-0.1C24,23.2,24,20.9,24,18.5z M10.4,18.5c0,0.1,0,0.2,0,0.3c0.5,2.2,1.1,4.3,1.6,6.5
		c0.1,0.3,0.2,0.4,0.4,0.4c1.3,0,2.6,0,3.8,0c0.4,0,0.7,0,1.1,0c-0.4-2.4-0.8-4.8-1.2-7.1C14.3,18.5,12.4,18.5,10.4,18.5z
		 M31.8,27.6c-0.4,2.4-0.8,4.7-1.2,7.1c1.5,0,3,0,4.4,0c0.1,0,0.3-0.3,0.3-0.5c0.5-1.7,1-3.4,1.4-5.1c0.1-0.5,0.3-1,0.4-1.5
		C35.3,27.6,33.6,27.6,31.8,27.6z M12.7,27.5c0,0.1,0,0.1,0,0.1c0.5,2.2,1.1,4.5,1.6,6.7c0,0.1,0.2,0.3,0.4,0.3c0.8,0,1.5,0,2.3,0
		c0.6,0,1.3,0,1.9,0c0-0.1,0-0.2,0-0.2c-0.4-2.2-0.7-4.4-1.1-6.6c0-0.1-0.2-0.3-0.4-0.3c-0.7,0-1.4,0-2.2,0
		C14.4,27.5,13.5,27.5,12.7,27.5z M24,27.6c-1.6,0-3.1,0-4.7,0c0.3,1.9,0.6,3.7,1,5.6c0.3,1.5,0.3,1.5,1.5,1.5c0.7,0,1.5,0,2.3,0
		C24,32.2,24,29.9,24,27.6z M30.2,27.6c-1.6,0-3.1,0-4.7,0c0,2.4,0,4.7,0,7.1c1.2,0,2.3,0,3.4,0C29.4,32.3,29.8,30,30.2,27.6z
		 M16.9,41.8c0,0.8,0.5,1.5,1.1,1.4c0.6,0,1.1-0.7,1.1-1.5c0-0.8-0.5-1.4-1.1-1.4C17.4,40.3,16.9,41,16.9,41.8z M31.3,40.3
		c-0.6,0-1.1,0.7-1.1,1.5c0,0.8,0.5,1.4,1.1,1.4c0.6,0,1.1-0.7,1.1-1.4C32.4,41,31.9,40.3,31.3,40.3z"/>
	
		<linearGradient id="SVGID_00000067219768708170973200000002417211710855442587_" gradientUnits="userSpaceOnUse" x1="40.0574" y1="18.366" x2="40.0574" y2="5.5804">
		<stop  offset="0" style="stop-color:#6A62AA"/>
		<stop  offset="0.1508" style="stop-color:#6459A5"/>
		<stop  offset="0.8464" style="stop-color:#C3E2ED"/>
		<stop  offset="1" style="stop-color:#C7E8F0"/>
		<stop  offset="1" style="stop-color:#CEEAEE"/>
	</linearGradient>
	<path style="fill:url(#SVGID_00000067219768708170973200000002417211710855442587_);" d="M40.8,11c1,0,2,0,2.9,0c0.2,0,0.3,0,0.5,0
		c0.5,0,0.8,0.4,0.8,1c0,0.5-0.3,0.9-0.9,1c-1,0-1.9,0-2.9,0c-0.2,0-0.3,0-0.6,0c0,1.1,0,2.1,0,3.1c0,0.4,0,0.9,0,1.3
		c0,0.6-0.3,1-0.7,1c-0.4,0-0.7-0.4-0.8-1c0-0.9,0-1.7,0-2.6c0-0.6,0-1.2,0-1.8c-1,0-2,0-3,0c-0.2,0-0.4,0-0.6,0
		c-0.5-0.1-0.8-0.5-0.8-1c0-0.5,0.3-0.9,0.8-0.9c1,0,2,0,3.1,0c0.1,0,0.2,0,0.4,0c0-1.1,0-2.2,0-3.2c0-0.4,0-0.8,0-1.1
		c0-0.6,0.4-1.1,0.8-1c0.4,0,0.7,0.4,0.7,1.1c0,1.3,0,2.6,0,3.9C40.8,10.7,40.8,10.8,40.8,11z"/>
</g>
</svg>
