<?xml version="1.0" encoding="utf-8"?>
<!-- Generator: Adobe Illustrator 27.4.0, SVG Export Plug-In . SVG Version: 6.00 Build 0)  -->
<svg version="1.1" id="Layer_1" xmlns="http://www.w3.org/2000/svg" xmlns:xlink="http://www.w3.org/1999/xlink" x="0px" y="0px"
	 viewBox="0 0 49.7 45.5" style="enable-background:new 0 0 49.7 45.5;" xml:space="preserve">
<style type="text/css">
	.st0{fill:url(#SVGID_1_);}
	.st1{fill:url(#SVGID_00000089549523116142057860000010230011547626421677_);}
	.st2{fill:url(#SVGID_00000063627440381170173370000003319926254377893504_);}
	.st3{fill:url(#SVGID_00000173848884412916462950000017490803534404043152_);}
	.st4{fill:url(#SVGID_00000004504234371246994700000016122303913774370947_);}
	.st5{fill:url(#SVGID_00000168804292865298299760000011423737517226505122_);}
</style>
<g>
	<linearGradient id="SVGID_1_" gradientUnits="userSpaceOnUse" x1="25.3624" y1="44.5824" x2="25.3624" y2="0.9476">
		<stop  offset="0" style="stop-color:#6A62AA"/>
		<stop  offset="0.1508" style="stop-color:#6459A5"/>
		<stop  offset="0.8464" style="stop-color:#C3E2ED"/>
		<stop  offset="1" style="stop-color:#C7E8F0"/>
		<stop  offset="1" style="stop-color:#CEEAEE"/>
	</linearGradient>
	<path class="st0" d="M20.5,36.4C20.5,36.3,20.6,36.3,20.5,36.4c0.1-0.1,0.3-0.1,0.4,0c1.7,0.2,3.3,0.5,5,0.7
		c0.9,0.1,1.7,0.3,2.6,0.3c0.8-0.1,1.5-0.3,1.9-0.9c0.3-0.3,0.3-0.7,0.2-1c-0.2-0.6-0.8-0.9-1.5-1.1c-0.6-0.2-1.2-0.3-1.9-0.5
		c-2.4-0.6-4.9-1.2-7.3-1.7c-1.7-0.4-3.5-0.6-5.3-0.9c-0.9-0.1-1.8,0.1-2.4,0.7c-1.9,1.5-3.8,3-5.7,4.5c-0.2,0.1-0.1,0.2,0,0.3
		c0.6,0.5,1.2,0.9,1.8,1.4c1.4,1.1,2.8,2.1,4.1,3.2c0.1,0.1,0.3,0.1,0.5,0.1c0.2-0.1,0.4-0.2,0.6-0.2c0.6,0,1.3,0,1.9,0.1
		c1.6,0.2,3.3,0.4,4.9,0.6c1.9,0.2,3.8,0.5,5.7,0.7c0.9,0.1,1.7-0.1,2.4-0.6c0.8-0.7,1.7-1.3,2.5-2c2.2-1.8,4.5-3.6,6.7-5.3
		c0.9-0.7,1.8-1.5,2.8-2.2c0.9-0.7,1-1.7,0.6-2.4c-0.8-1.2-2.7-1.5-4.1-0.6c-0.7,0.4-1.3,0.9-2,1.3c-0.9,0.6-1.7,1.1-2.6,1.7
		c-0.4,0.2-0.6,0.5-0.5,0.9c0,0.2,0.1,0.3,0.2,0.5c0.1,0.4,0.3,0.8,0.3,1.2c-0.1,1.5-2,3.1-4.5,2.7c-1.4-0.2-2.7-0.4-4.1-0.6
		C22.7,36.8,21.6,36.6,20.5,36.4z M30.1,9.1C30,9.2,30,9.2,30.1,9.1c-0.1,0-0.2,0.1-0.3,0c-1.7-0.2-3.5-0.5-5.2-0.7
		c-0.7-0.1-1.4-0.2-2.1-0.2c-0.7,0-1.3,0.2-1.8,0.6c-0.6,0.5-0.6,1.1-0.2,1.7c0.4,0.5,1,0.7,1.6,0.8c2.2,0.5,4.4,1.1,6.7,1.6
		c2.4,0.5,4.8,0.9,7.3,1.4c1,0.2,2-0.1,2.7-0.7c0.3-0.3,0.7-0.5,1-0.8c1.6-1.3,3.2-2.5,4.8-3.8c0,0-0.1-0.1-0.2-0.1
		c-0.7-0.5-1.3-1-2-1.5c-1.3-1-2.7-2-4-3.1c-0.1-0.1-0.2-0.2-0.4-0.1c-0.5,0.2-1,0.2-1.5,0.2c-0.8-0.1-1.6-0.2-2.4-0.3
		c-3-0.4-6-0.7-9-1.1c-1.1-0.1-1.9,0.1-2.7,0.7c-2.8,2.3-5.7,4.6-8.6,6.8c-1.2,0.9-2.4,1.9-3.5,2.8c-1.1,0.9-0.8,2.4,0.5,3.1
		c1,0.5,2.3,0.4,3.3-0.3c1.5-1,2.9-1.9,4.4-2.8c0.6-0.4,0.7-0.6,0.5-1.2c-0.2-0.4-0.4-0.8-0.4-1.3c0-1.4,1.6-2.8,3.4-2.9
		c0.7,0,1.5,0.1,2.2,0.2c1.4,0.2,2.9,0.4,4.3,0.7C28.9,8.9,29.5,9,30.1,9.1z M16.1,29.5c0.2,0,0.3,0,0.4,0c5.9,0,11.8,0,17.6,0
		c0.4,0,0.4,0,0.4-0.3c-0.3-1.3-1.4-2.1-3-2.2c-0.6,0-1.3-0.1-1.7-0.5c-0.5-0.3-0.8-0.8-1-1.2c-0.2-0.4-0.3-0.9-0.1-1.3
		c0.2-0.4,0.4-0.8,0.6-1.2c0.1-0.2,0.3-0.3,0.5-0.4c1.1-0.4,1.7-1,1.6-1.9c0-0.3-0.2-0.6-0.3-0.8c0-0.1-0.1-0.3-0.1-0.4
		c0-0.3,0-0.6,0-0.9c-0.3-2.4-2.9-4-5.9-3.9c-2.9,0.2-5.2,2.3-5,4.7c0,0.2,0,0.4-0.1,0.6c-0.2,0.4-0.3,0.9-0.2,1.4
		c0.2,0.6,0.8,1,1.5,1.3c0.1,0.1,0.3,0.1,0.3,0.2c0.2,0.4,0.5,0.8,0.6,1.2c0.1,0.3,0.2,0.6,0.1,0.9c-0.3,1.3-1.5,2.2-3.2,2.3
		c-1.4,0.1-2.4,0.7-2.9,1.8C16.2,29,16.2,29.3,16.1,29.5z M46.1,9.8c0.2-0.1,0.4-0.2,0.6-0.3c0.6-0.5,1.3-1,1.9-1.6
		c0.5-0.4,0.5-0.6,0-0.9c-1.7-1.3-3.3-2.5-5-3.8c-0.8-0.6-1.7-1.3-2.5-1.9c-0.4-0.3-0.7-0.3-1.1,0c-0.7,0.5-1.3,1.1-2,1.7
		c-0.4,0.3-0.4,0.5,0,0.9c1,0.8,2,1.6,3.1,2.3c1.5,1.1,2.9,2.2,4.4,3.4C45.7,9.5,45.9,9.6,46.1,9.8z M13,42.3
		c-0.1-0.3-0.3-0.5-0.5-0.6C10,39.8,7.6,38,5.2,36.1c-0.5-0.4-0.7-0.4-1.2,0c-0.6,0.5-1.3,1.1-1.9,1.6c-0.4,0.4-0.4,0.6,0,0.9
		c1.4,1.1,2.9,2.2,4.3,3.3c1.1,0.8,2.1,1.6,3.2,2.4c0.4,0.3,0.6,0.3,0.9,0.1c0.7-0.6,1.5-1.2,2.2-1.8C12.9,42.5,12.9,42.4,13,42.3z"
		/>
	
		<linearGradient id="SVGID_00000007423723265372105990000015659495033815491241_" gradientUnits="userSpaceOnUse" x1="23.8013" y1="42.5329" x2="23.8013" y2="28.7596">
		<stop  offset="0" style="stop-color:#6A62AA"/>
		<stop  offset="0.1508" style="stop-color:#6459A5"/>
		<stop  offset="0.8464" style="stop-color:#C3E2ED"/>
		<stop  offset="1" style="stop-color:#C7E8F0"/>
		<stop  offset="1" style="stop-color:#CEEAEE"/>
	</linearGradient>
	<path style="fill:url(#SVGID_00000007423723265372105990000015659495033815491241_);" d="M20.5,36.4c1.1,0.2,2.1,0.4,3.2,0.6
		c1.4,0.2,2.7,0.4,4.1,0.6c2.5,0.4,4.3-1.2,4.5-2.7c0-0.4-0.2-0.8-0.3-1.2c0-0.2-0.1-0.3-0.2-0.5c-0.1-0.4,0.1-0.7,0.5-0.9
		c0.9-0.6,1.7-1.1,2.6-1.7c0.7-0.4,1.3-0.9,2-1.3c1.4-0.9,3.3-0.6,4.1,0.6c0.4,0.7,0.4,1.7-0.6,2.4c-0.9,0.7-1.8,1.5-2.8,2.2
		c-2.2,1.8-4.5,3.6-6.7,5.3c-0.8,0.7-1.7,1.3-2.5,2c-0.7,0.5-1.5,0.7-2.4,0.6c-1.9-0.2-3.8-0.5-5.7-0.7c-1.6-0.2-3.3-0.4-4.9-0.6
		c-0.6-0.1-1.2-0.1-1.9-0.1c-0.2,0-0.4,0.1-0.6,0.2c-0.2,0.1-0.3,0.1-0.5-0.1c-1.4-1.1-2.8-2.1-4.1-3.2c-0.6-0.5-1.2-0.9-1.8-1.4
		c-0.2-0.1-0.2-0.2,0-0.3c1.9-1.5,3.8-3,5.7-4.5c0.7-0.5,1.5-0.8,2.4-0.7c1.8,0.3,3.6,0.5,5.3,0.9c2.5,0.5,4.9,1.1,7.3,1.7
		c0.6,0.1,1.3,0.3,1.9,0.5c0.7,0.2,1.3,0.5,1.5,1.1c0.2,0.4,0.1,0.7-0.2,1c-0.5,0.5-1.1,0.8-1.9,0.9c-0.9,0.1-1.7-0.1-2.6-0.3
		c-1.7-0.2-3.3-0.5-5-0.7C20.8,36.3,20.7,36.3,20.5,36.4C20.6,36.3,20.5,36.3,20.5,36.4z"/>
	
		<linearGradient id="SVGID_00000119088796029350211880000010031491375041842087_" gradientUnits="userSpaceOnUse" x1="26.929" y1="16.755" x2="26.929" y2="2.9864">
		<stop  offset="0" style="stop-color:#6A62AA"/>
		<stop  offset="0.1508" style="stop-color:#6459A5"/>
		<stop  offset="0.8464" style="stop-color:#C3E2ED"/>
		<stop  offset="1" style="stop-color:#C7E8F0"/>
		<stop  offset="1" style="stop-color:#CEEAEE"/>
	</linearGradient>
	<path style="fill:url(#SVGID_00000119088796029350211880000010031491375041842087_);" d="M30.1,9.1c-0.6-0.1-1.2-0.3-1.8-0.4
		c-1.4-0.2-2.9-0.5-4.3-0.7c-0.7-0.1-1.5-0.2-2.2-0.2c-1.8,0.1-3.4,1.4-3.4,2.9c0,0.4,0.2,0.9,0.4,1.3c0.2,0.6,0.2,0.9-0.5,1.2
		c-1.5,0.9-2.9,1.9-4.4,2.8c-1.1,0.7-2.3,0.8-3.3,0.3c-1.3-0.7-1.6-2.1-0.5-3.1c1.1-1,2.3-1.9,3.5-2.8c2.9-2.3,5.7-4.5,8.6-6.8
		c0.8-0.6,1.6-0.8,2.7-0.7c3,0.4,6,0.7,9,1.1c0.8,0.1,1.6,0.2,2.4,0.3c0.5,0.1,1.1,0,1.5-0.2c0.2-0.1,0.3,0,0.4,0.1
		c1.3,1,2.7,2,4,3.1c0.7,0.5,1.3,1,2,1.5c0.1,0,0.1,0.1,0.2,0.1c-1.6,1.3-3.2,2.5-4.8,3.8c-0.3,0.3-0.7,0.5-1,0.8
		c-0.8,0.6-1.7,0.9-2.7,0.7c-2.4-0.4-4.9-0.8-7.3-1.4c-2.3-0.5-4.5-1.1-6.7-1.6c-0.6-0.2-1.2-0.3-1.6-0.8C19.9,10,20,9.4,20.5,8.9
		c0.5-0.4,1.1-0.7,1.8-0.6c0.7,0,1.4,0.1,2.1,0.2c1.7,0.2,3.5,0.5,5.2,0.7C29.8,9.2,29.9,9.2,30.1,9.1C30,9.2,30,9.2,30.1,9.1z"/>
	
		<linearGradient id="SVGID_00000075152146170667576260000011762475964942813084_" gradientUnits="userSpaceOnUse" x1="25.3368" y1="29.5427" x2="25.3368" y2="14.4857">
		<stop  offset="0" style="stop-color:#6A62AA"/>
		<stop  offset="0.1508" style="stop-color:#6459A5"/>
		<stop  offset="0.8464" style="stop-color:#C3E2ED"/>
		<stop  offset="1" style="stop-color:#C7E8F0"/>
		<stop  offset="1" style="stop-color:#CEEAEE"/>
	</linearGradient>
	<path style="fill:url(#SVGID_00000075152146170667576260000011762475964942813084_);" d="M16.1,29.5c0.1-0.3,0.1-0.5,0.2-0.8
		c0.4-1,1.5-1.7,2.9-1.8c1.6-0.1,2.9-1,3.2-2.3c0.1-0.3,0-0.6-0.1-0.9c-0.2-0.4-0.4-0.8-0.6-1.2c-0.1-0.1-0.2-0.2-0.3-0.2
		c-0.7-0.3-1.3-0.6-1.5-1.3c-0.2-0.5,0-0.9,0.2-1.4c0.1-0.2,0.2-0.4,0.1-0.6c-0.2-2.4,2.1-4.5,5-4.7c3-0.2,5.6,1.5,5.9,3.9
		c0,0.3,0,0.6,0,0.9c0,0.1,0.1,0.3,0.1,0.4c0.1,0.3,0.3,0.6,0.3,0.8c0.1,0.9-0.4,1.5-1.6,1.9c-0.2,0.1-0.4,0.2-0.5,0.4
		c-0.2,0.4-0.4,0.8-0.6,1.2c-0.2,0.4-0.1,0.9,0.1,1.3c0.2,0.5,0.6,0.9,1,1.2c0.5,0.4,1.1,0.5,1.7,0.5c1.6,0.1,2.8,0.9,3,2.2
		c0.1,0.3,0,0.3-0.4,0.3c-5.9,0-11.8,0-17.6,0C16.4,29.5,16.3,29.5,16.1,29.5z"/>
	
		<linearGradient id="SVGID_00000111878178647120138830000005207330888316412576_" gradientUnits="userSpaceOnUse" x1="43.333" y1="9.7531" x2="43.333" y2="0.9476">
		<stop  offset="0" style="stop-color:#6A62AA"/>
		<stop  offset="0.1508" style="stop-color:#6459A5"/>
		<stop  offset="0.8464" style="stop-color:#C3E2ED"/>
		<stop  offset="1" style="stop-color:#C7E8F0"/>
		<stop  offset="1" style="stop-color:#CEEAEE"/>
	</linearGradient>
	<path style="fill:url(#SVGID_00000111878178647120138830000005207330888316412576_);" d="M46.1,9.8c-0.2-0.1-0.4-0.2-0.6-0.3
		c-1.5-1.1-2.9-2.2-4.4-3.4c-1-0.8-2-1.6-3.1-2.3c-0.4-0.3-0.5-0.5,0-0.9c0.7-0.6,1.3-1.1,2-1.7c0.4-0.3,0.7-0.3,1.1,0
		c0.8,0.6,1.7,1.3,2.5,1.9c1.7,1.3,3.3,2.5,5,3.8c0.5,0.4,0.5,0.5,0,0.9c-0.6,0.5-1.2,1-1.9,1.6C46.6,9.5,46.4,9.6,46.1,9.8z
		 M40.3,3.6c0.5,0,0.8-0.3,0.8-0.6c0-0.3-0.4-0.6-0.8-0.6c-0.4,0-0.8,0.3-0.8,0.6C39.4,3.3,39.8,3.6,40.3,3.6z"/>
	
		<linearGradient id="SVGID_00000065782177317787690360000017488841302406515841_" gradientUnits="userSpaceOnUse" x1="7.3902" y1="44.5824" x2="7.3902" y2="35.8185">
		<stop  offset="0" style="stop-color:#6A62AA"/>
		<stop  offset="0.1508" style="stop-color:#6459A5"/>
		<stop  offset="0.8464" style="stop-color:#C3E2ED"/>
		<stop  offset="1" style="stop-color:#C7E8F0"/>
		<stop  offset="1" style="stop-color:#CEEAEE"/>
	</linearGradient>
	<path style="fill:url(#SVGID_00000065782177317787690360000017488841302406515841_);" d="M13,42.3c0,0.1-0.1,0.2-0.2,0.3
		c-0.7,0.6-1.5,1.2-2.2,1.8c-0.3,0.3-0.5,0.2-0.9-0.1c-1.1-0.8-2.1-1.6-3.2-2.4c-1.4-1.1-2.9-2.2-4.3-3.3c-0.5-0.3-0.5-0.6,0-0.9
		c0.6-0.5,1.3-1.1,1.9-1.6c0.5-0.4,0.7-0.4,1.2,0c2.4,1.8,4.9,3.7,7.3,5.5C12.7,41.8,12.9,42,13,42.3z M11.3,42.6
		c0-0.3-0.3-0.6-0.7-0.7c-0.5,0-0.9,0.2-0.9,0.6c0,0.3,0.3,0.7,0.8,0.7C10.8,43.2,11.2,42.9,11.3,42.6z"/>
</g>
</svg>
