<?xml version="1.0" encoding="utf-8"?>
<!-- Generator: Adobe Illustrator 27.4.0, SVG Export Plug-In . SVG Version: 6.00 Build 0)  -->
<svg version="1.1" id="Layer_1" xmlns="http://www.w3.org/2000/svg" xmlns:xlink="http://www.w3.org/1999/xlink" x="0px" y="0px"
	 viewBox="0 0 49.7 45.5" style="enable-background:new 0 0 49.7 45.5;" xml:space="preserve">
<style type="text/css">
	.st0{fill:url(#SVGID_1_);}
	.st1{fill:url(#SVGID_00000154420799752206262990000014000466802315114410_);}
	.st2{fill:url(#SVGID_00000080196137852012723220000003179070416347788187_);}
	.st3{fill:url(#SVGID_00000076603611196357299160000018154473397075966112_);}
	.st4{fill:url(#SVGID_00000160908440719124488370000010179499093546299778_);}
	.st5{fill:url(#SVGID_00000072241510746957119600000001619767180097941903_);}
	.st6{fill:url(#SVGID_00000173841159278908429460000013631244958356233908_);}
	.st7{fill:url(#SVGID_00000029740075612154536190000018063204070368531111_);}
</style>
<g>
	<linearGradient id="SVGID_1_" gradientUnits="userSpaceOnUse" x1="24.8287" y1="7.3881" x2="24.8287" y2="0.4279">
		<stop  offset="0" style="stop-color:#6A62AA"/>
		<stop  offset="0.1508" style="stop-color:#6459A5"/>
		<stop  offset="0.8464" style="stop-color:#C3E2ED"/>
		<stop  offset="1" style="stop-color:#C7E8F0"/>
		<stop  offset="1" style="stop-color:#CEEAEE"/>
	</linearGradient>
	<path class="st0" d="M25.4,0.4c0.3,0,0.6,0.1,0.9,0.3c1.2,0.6,2.5,2.2,2,4.1c-0.5,1.6-2.1,2.7-3.8,2.6c-1.7-0.1-3.1-1.5-3.3-3.2
		c-0.2-2,1.5-3.3,2.7-3.7c0.1,0,0.3-0.1,0.3-0.1C24.7,0.4,25,0.4,25.4,0.4z M24.8,6.1c1.2,0,2.3-1,2.3-2.2c0-1.2-1-2.2-2.2-2.2
		c-1.2,0-2.3,1-2.3,2.2C22.6,5.1,23.6,6.1,24.8,6.1z"/>
	
		<linearGradient id="SVGID_00000126313872131542478880000004577283801463548563_" gradientUnits="userSpaceOnUse" x1="5.3149" y1="26.0013" x2="5.3149" y2="19.5251">
		<stop  offset="0" style="stop-color:#6A62AA"/>
		<stop  offset="0.1508" style="stop-color:#6459A5"/>
		<stop  offset="0.8464" style="stop-color:#C3E2ED"/>
		<stop  offset="1" style="stop-color:#C7E8F0"/>
		<stop  offset="1" style="stop-color:#CEEAEE"/>
	</linearGradient>
	<path style="fill:url(#SVGID_00000126313872131542478880000004577283801463548563_);" d="M1.7,22.5c0.2-0.4,0.5-0.7,0.9-0.8
		c1.5-0.6,3-1.3,4.5-2c1-0.4,1.8,0,1.8,1.1c0,1.3,0,2.6,0,4c0,1-0.8,1.5-1.7,1.1c-1.6-0.7-3.2-1.4-4.7-2.1C2.2,23.6,2,23.3,1.7,23
		C1.7,22.8,1.7,22.7,1.7,22.5z M7.6,20.9c-1.4,0.6-2.7,1.2-4.1,1.8c1.4,0.6,2.8,1.2,4.1,1.8C7.6,23.3,7.6,22.2,7.6,20.9z"/>
	
		<linearGradient id="SVGID_00000042723754569271654770000002959132662034583995_" gradientUnits="userSpaceOnUse" x1="24.8789" y1="42.0754" x2="24.8789" y2="3.4458">
		<stop  offset="0" style="stop-color:#6A62AA"/>
		<stop  offset="0.1508" style="stop-color:#6459A5"/>
		<stop  offset="0.8464" style="stop-color:#C3E2ED"/>
		<stop  offset="1" style="stop-color:#C7E8F0"/>
		<stop  offset="1" style="stop-color:#CEEAEE"/>
	</linearGradient>
	<path style="fill:url(#SVGID_00000042723754569271654770000002959132662034583995_);" d="M15.1,27.3c-0.5,0.4-1,0.8-1.4,1.2
		c-1.7,1.6-3.3,3.2-5,4.8c-0.9,0.8-2.1,0.9-2.9,0.2c-1-0.8-1.1-2.2-0.1-3.1c1.3-1.3,2.7-2.6,4.1-3.9c0.5-0.5,0.7-1,0.7-1.7
		c0-1.3,0-2.7,0-4c0-0.7-0.2-1.2-0.7-1.7c-1.4-1.3-2.7-2.6-4.1-3.9c-0.7-0.6-0.8-1.5-0.4-2.3c0.4-0.8,1.2-1.2,2.1-1.2
		c0.6,0,1.1,0.3,1.5,0.7c1.6,1.6,3.3,3.2,4.9,4.7c0.4,0.4,0.9,0.7,1.4,1.1c1.2-2.2,2.8-3.8,5.1-4.9c-0.4-0.5-0.8-1-1.2-1.4
		c-1.6-1.6-3.3-3.2-4.9-4.8c-0.9-0.9-0.9-2.2,0-3C14.7,3.3,16,3.2,16.8,4c0.5,0.4,1,0.9,1.4,1.4c0.3,0.3,0.3,0.7,0,1
		c-0.3,0.3-0.7,0.2-1,0c-0.4-0.4-0.8-0.8-1.2-1.1c-0.4-0.4-0.9-0.5-1.3-0.1c-0.3,0.3-0.3,0.8,0.1,1.2c1.2,1.2,2.4,2.3,3.6,3.5
		c1,1,2.1,1.8,2.7,3.1c2.3-0.7,4.7-0.7,6.9,0c1.8-2.5,4.2-4.3,6.3-6.5c0.1-0.1,0.2-0.2,0.3-0.4c0.2-0.3,0.2-0.7-0.1-1
		c-0.3-0.3-0.7-0.3-1-0.1c-0.1,0.1-0.2,0.2-0.3,0.3c-1.3,1.2-2.6,2.5-3.9,3.7C28.9,9.7,28,10,27,10c-1.5,0-2.9,0-4.4,0
		c-1.4,0-2.3-0.8-3.1-1.7c-0.2-0.3-0.2-0.6,0.1-0.8c0.3-0.2,0.6-0.3,0.9,0c0.3,0.2,0.5,0.4,0.7,0.7c0.4,0.4,0.8,0.6,1.4,0.6
		c1.5,0,3,0,4.6,0c0.6,0,1.1-0.2,1.5-0.6c1.4-1.3,2.8-2.7,4.2-4c0.6-0.6,1.4-0.7,2.2-0.5c0.8,0.3,1.3,0.8,1.5,1.6
		c0.1,0.8-0.1,1.4-0.7,1.9c-1.6,1.6-3.2,3.1-4.8,4.7c-0.4,0.4-0.8,0.9-1.3,1.5c2.3,1.1,3.9,2.7,5.1,4.9c0.5-0.4,1-0.7,1.4-1.1
		c0.4-0.4,0.8-0.8,1.2-1.2c0.3-0.3,0.7-0.3,1,0c0.3,0.3,0.3,0.6,0,0.9c-0.9,0.9-1.7,1.8-2.9,2.4c-0.1,0.1-0.2,0.3-0.2,0.4
		c0.7,2.2,0.6,4.3-0.1,6.5c2.5,1.7,4.4,4,6.6,6c0.1,0.1,0.2,0.2,0.3,0.3c0.4,0.3,0.8,0.3,1.1,0c0.3-0.3,0.3-0.7,0-1.1
		c-0.1-0.1-0.2-0.2-0.3-0.2c-1.3-1.3-2.6-2.5-3.9-3.8c-0.7-0.7-1.1-1.5-1-2.4c0-1.4,0-2.8,0-4.2c0-1,0.3-1.8,1-2.4
		c1.3-1.2,2.6-2.5,3.9-3.8c0.1-0.1,0.2-0.2,0.3-0.2c0.3-0.4,0.3-0.8,0-1.1c-0.3-0.3-0.8-0.3-1.1,0c-0.5,0.4-0.9,0.9-1.3,1.3
		c-0.1,0.1-0.2,0.2-0.3,0.3c-0.3,0.2-0.6,0.2-0.9-0.1c-0.3-0.3-0.3-0.6,0-0.9c0.6-0.6,1.2-1.2,1.8-1.7c0.9-0.7,2.1-0.6,2.9,0.2
		c0.8,0.8,0.8,2-0.1,2.8c-1.3,1.3-2.7,2.6-4.1,3.9c-0.5,0.5-0.8,1.1-0.8,1.8c0,1.3,0,2.7,0,4c0,0.7,0.2,1.2,0.7,1.6
		c1.4,1.3,2.8,2.6,4.1,4c0.7,0.6,0.8,1.6,0.4,2.3c-0.4,0.8-1.2,1.2-2.1,1.2c-0.6,0-1.1-0.3-1.5-0.7c-1.6-1.6-3.3-3.2-4.9-4.7
		c-0.4-0.4-1-0.8-1.5-1.2c-1.2,2.2-2.8,3.8-5.1,4.9c0.5,0.5,0.9,1,1.3,1.5c1.6,1.6,3.3,3.2,4.9,4.7c0.8,0.8,0.9,1.9,0.3,2.7
		c-0.8,1.1-2.3,1.2-3.3,0.2c-1.3-1.3-2.7-2.5-4-3.8c-0.5-0.5-1.1-0.8-1.9-0.8c-1.4,0-2.8,0-4.2,0c-0.6,0-1.1,0.2-1.6,0.6
		c-1.4,1.3-2.8,2.7-4.2,4c-0.7,0.6-1.6,0.8-2.4,0.4c-0.8-0.4-1.3-1.2-1.2-2c0.1-0.4,0.3-0.9,0.6-1.3c0.6-0.7,1.3-1.3,1.9-1.9
		c0.3-0.3,0.7-0.3,1-0.1c0.3,0.3,0.3,0.7-0.1,1c-0.6,0.6-1.2,1.1-1.8,1.7c-0.4,0.4-0.5,0.8-0.1,1.2c0.4,0.4,0.8,0.3,1.3-0.1
		c1.3-1.3,2.7-2.5,4-3.8c0.7-0.7,1.6-1.1,2.7-1.1c1.4,0,2.8,0,4.2,0c1,0,1.9,0.3,2.6,1c1.3,1.3,2.6,2.6,4,3.9
		c0.2,0.2,0.6,0.4,0.9,0.3c0.7-0.1,0.8-0.9,0.3-1.4c-1.1-1.1-2.2-2.1-3.3-3.2c-0.3-0.3-0.6-0.5-0.8-0.8c-0.8-0.8-1.6-1.7-2.4-2.6
		c-0.6,0.1-1.4,0.3-2.2,0.4c-1.5,0.2-2.9,0-4.3-0.4c-0.3-0.1-0.4,0-0.6,0.2c-0.7,0.8-1.4,1.6-2.1,2.4c-0.3,0.3-0.7,0.3-0.9,0
		c-0.3-0.3-0.3-0.6,0-0.9c0.5-0.6,1.1-1.1,1.6-1.7c0.1-0.2,0.2-0.4,0.4-0.6C17.9,31.1,16.2,29.5,15.1,27.3z M15.4,22.3
		c0.1,0,0.2,0.1,0.4,0.1c1.5,0.4,2,0.1,2.2-1.4c0.1-0.7,0.2-1.4,0.4-2.1c0.3-1,1.2-1.5,2.2-1.4c0.5,0.1,1,0.2,1.5,0.3
		c0.4,0.1,0.6,0.4,0.5,0.8c-0.1,0.4-0.4,0.5-0.8,0.5c-0.4-0.1-0.7-0.2-1.1-0.2c-0.7-0.1-1,0.1-1.2,0.8c0,0.2-0.1,0.4-0.1,0.6
		c-0.1,0.6-0.1,1.3-0.3,1.9c-0.3,1-1.1,1.7-2.3,1.7c-0.4,0-0.9-0.1-1.4-0.1c0.2,2,1,3.7,2.4,5.2c0.1-0.2,0.1-0.3,0.2-0.5
		c0.5-1.1,1.4-1.9,2.7-2c1.4-0.1,2.5,0.3,3.3,1.5c0.1,0.2,0.3,0.4,0.4,0.6c0.3,0.5,0.8,0.7,1.4,0.6c0.2,0,0.4-0.1,0.6-0.1
		c1.2-0.3,2.1,0.2,2.5,1.3c0.1,0.2,0.2,0.4,0.2,0.6c2.3-1,4.5-3.8,4.9-6.3c0-0.3,0-0.4-0.3-0.5c-3.1-1.4-3.6-5.3-1.6-7
		c-1.4-1.7-3.3-2.8-5.5-3.3c0.2,0.5,0.4,1,0.4,1.5c0.1,1.4-0.7,2.4-1.8,3.2c-0.4,0.3-0.8,0.3-1.1,0c-0.3-0.3-0.1-0.7,0.3-1
		c0.4-0.3,0.7-0.6,1-1c0.4-0.5,0.3-1.1,0-1.7c-0.4-0.5-0.9-1.1-1.6-1c-3.4,0.3-6,2-7.6,5C15.7,19.7,15.4,21,15.4,22.3z M7.1,32.8
		c0.3-0.2,0.6-0.3,0.8-0.5c1.6-1.5,3.2-3.1,4.8-4.6c0.5-0.5,1.1-0.8,1.6-1.2c0.2-0.1,0.3-0.2,0.2-0.5c-0.7-2.1-0.7-4.2,0-6.3
		c0.1-0.2,0-0.3-0.2-0.5c-0.6-0.4-1.2-0.8-1.7-1.3c-1.6-1.5-3.1-3-4.7-4.5c-0.1-0.1-0.2-0.2-0.4-0.3c-0.3-0.2-0.8-0.2-1,0.1
		c-0.3,0.3-0.3,0.6-0.1,1c0.1,0.1,0.2,0.2,0.3,0.3c1.3,1.3,2.6,2.5,3.9,3.8c0.7,0.7,1.1,1.5,1,2.4c0,1.4,0,2.8,0,4.2
		c0,1-0.3,1.8-1,2.4c-1.2,1.1-2.4,2.3-3.6,3.5c-0.2,0.2-0.5,0.4-0.6,0.6c-0.1,0.2-0.2,0.6-0.1,0.8C6.5,32.4,6.8,32.5,7.1,32.8z
		 M27.9,31.4c0-1-0.4-1.3-1.3-1.1c-0.1,0-0.2,0.1-0.4,0.1c-1.1,0.2-2.1-0.1-2.8-1c-0.2-0.3-0.4-0.6-0.6-0.9c-0.3-0.3-0.6-0.6-1-0.7
		c-1.3-0.4-2.4,0.3-2.8,1.7c-0.1,0.3,0,0.4,0.2,0.6c1.5,1,3.2,1.6,5,1.7C25.5,32,26.7,31.8,27.9,31.4z M33.1,18.2
		c-0.7,0.8-0.8,1.6-0.5,2.5c0.2,1,0.8,1.7,1.8,2.2C34.3,21.2,33.9,19.7,33.1,18.2z"/>
	
		<linearGradient id="SVGID_00000072241526481045716660000017225077412038423479_" gradientUnits="userSpaceOnUse" x1="44.3536" y1="26.2595" x2="44.3536" y2="19.2663">
		<stop  offset="0" style="stop-color:#6A62AA"/>
		<stop  offset="0.1508" style="stop-color:#6459A5"/>
		<stop  offset="0.8464" style="stop-color:#C3E2ED"/>
		<stop  offset="1" style="stop-color:#C7E8F0"/>
		<stop  offset="1" style="stop-color:#CEEAEE"/>
	</linearGradient>
	<path style="fill:url(#SVGID_00000072241526481045716660000017225077412038423479_);" d="M44.3,19.3c0.8,0,1.6,0,2.3,0
		c0.8,0,1.3,0.4,1.3,1.2c0,1.5,0,3.1,0,4.6c0,0.8-0.5,1.2-1.2,1.2c-1.6,0-3.2,0-4.7,0c-0.8,0-1.2-0.4-1.3-1.2c0-1.5,0-3,0-4.5
		c0-0.8,0.5-1.2,1.3-1.2C42.8,19.3,43.6,19.3,44.3,19.3z M46.6,24.9c0-1.5,0-2.9,0-4.3c-1.5,0-3,0-4.5,0c0,1.5,0,2.9,0,4.3
		C43.6,24.9,45.1,24.9,46.6,24.9z"/>
	
		<linearGradient id="SVGID_00000172416191676517323350000012413038721036226462_" gradientUnits="userSpaceOnUse" x1="24.838" y1="45.133" x2="24.838" y2="38.1245">
		<stop  offset="0" style="stop-color:#6A62AA"/>
		<stop  offset="0.1508" style="stop-color:#6459A5"/>
		<stop  offset="0.8464" style="stop-color:#C3E2ED"/>
		<stop  offset="1" style="stop-color:#C7E8F0"/>
		<stop  offset="1" style="stop-color:#CEEAEE"/>
	</linearGradient>
	<path style="fill:url(#SVGID_00000172416191676517323350000012413038721036226462_);" d="M24.9,38.1c0.5,0,1,0,1.5,0
		c0.4,0,0.6,0.1,0.8,0.4c0.5,0.9,1.1,1.8,1.6,2.7c0.1,0.2,0.1,0.6,0,0.8c-0.5,0.9-1.1,1.8-1.6,2.7c-0.2,0.3-0.4,0.4-0.8,0.4
		c-1.1,0-2.1,0-3.2,0c-0.3,0-0.6-0.2-0.7-0.4c-0.6-0.9-1.1-1.8-1.6-2.7c-0.1-0.2-0.1-0.6,0-0.8c0.5-0.9,1-1.8,1.6-2.7
		c0.1-0.2,0.5-0.4,0.7-0.4C23.8,38.1,24.3,38.1,24.9,38.1z M24.8,44c0.2,0,0.7,0,1.2-0.3c0.4-0.2,0.6-0.5,0.8-0.7
		c0.2-0.2,0.4-0.6,0.5-1.1c0-0.6-0.2-1-0.4-1.3c-0.5-0.9-1.1-1.2-2.1-1.2c-0.9,0-1.4,0.3-1.9,1.1c-0.2,0.3-0.4,0.7-0.4,1.2
		c0,0.5,0.2,0.9,0.4,1.1c0.1,0.2,0.5,0.8,1.1,1C24.3,44,24.6,44,24.8,44z"/>
	
		<linearGradient id="SVGID_00000017489339363392502110000007640573501375665330_" gradientUnits="userSpaceOnUse" x1="26.8945" y1="26.007" x2="26.8945" y2="20.6054">
		<stop  offset="0" style="stop-color:#6A62AA"/>
		<stop  offset="0.1508" style="stop-color:#6459A5"/>
		<stop  offset="0.8464" style="stop-color:#C3E2ED"/>
		<stop  offset="1" style="stop-color:#C7E8F0"/>
		<stop  offset="1" style="stop-color:#CEEAEE"/>
	</linearGradient>
	<path style="fill:url(#SVGID_00000017489339363392502110000007640573501375665330_);" d="M25.9,26c-1.9,0-2.8-1.1-2.3-2.6
		c0.2-0.6,0.6-1,1.2-1.1c0.7-0.1,1.2-0.5,1.6-1c0.6-0.7,1.3-0.9,2.1-0.5c0.5,0.2,0.9,0.6,1.2,0.9c0.8,0.9,0.7,2-0.3,2.8
		C28.4,25.5,27.1,25.9,25.9,26z M25.8,24.7c0.8-0.1,1.7-0.3,2.4-0.8c0.9-0.6,0.8-1.3-0.1-1.8c-0.3-0.2-0.5-0.2-0.7,0.1
		c-0.5,0.7-1.2,1.2-2.1,1.4c-0.2,0-0.3,0.2-0.4,0.4C24.7,24.5,25,24.7,25.8,24.7z"/>
</g>
<linearGradient id="SVGID_00000037679785280104535350000009330871295443591595_" gradientUnits="userSpaceOnUse" x1="16.7339" y1="52.4405" x2="16.7339" y2="52.4405">
	<stop  offset="0" style="stop-color:#6A62AA"/>
	<stop  offset="0.1508" style="stop-color:#6459A5"/>
	<stop  offset="0.8464" style="stop-color:#C3E2ED"/>
	<stop  offset="1" style="stop-color:#C7E8F0"/>
	<stop  offset="1" style="stop-color:#CEEAEE"/>
</linearGradient>
<path style="fill:url(#SVGID_00000037679785280104535350000009330871295443591595_);" d="M16.7,52.4"/>
<linearGradient id="SVGID_00000036235418638830912250000015056722235989680779_" gradientUnits="userSpaceOnUse" x1="10.4587" y1="60.8625" x2="10.4587" y2="60.8625">
	<stop  offset="0" style="stop-color:#6A62AA"/>
	<stop  offset="0.1508" style="stop-color:#6459A5"/>
	<stop  offset="0.8464" style="stop-color:#C3E2ED"/>
	<stop  offset="1" style="stop-color:#C7E8F0"/>
	<stop  offset="1" style="stop-color:#CEEAEE"/>
</linearGradient>
<path style="fill:url(#SVGID_00000036235418638830912250000015056722235989680779_);" d="M10.5,60.9"/>
</svg>
