<?xml version="1.0" encoding="utf-8"?>
<!-- Generator: Adobe Illustrator 27.4.0, SVG Export Plug-In . SVG Version: 6.00 Build 0)  -->
<svg version="1.1" id="Layer_1" xmlns="http://www.w3.org/2000/svg" xmlns:xlink="http://www.w3.org/1999/xlink" x="0px" y="0px"
	 viewBox="0 0 49.7 45.5" style="enable-background:new 0 0 49.7 45.5;" xml:space="preserve">
<style type="text/css">
	.st0{fill:url(#SVGID_1_);}
	.st1{fill:url(#SVGID_00000068665469732758341790000018365395867478455689_);}
	.st2{fill:url(#SVGID_00000180328406997623369210000009581872492554520708_);}
	.st3{fill:url(#SVGID_00000138565224183212323670000010415016860117111985_);}
	.st4{fill:url(#SVGID_00000012454658622151514410000006641991292175883666_);}
	.st5{fill:url(#SVGID_00000067194856602576211700000005918456464583977344_);}
	.st6{fill:url(#SVGID_00000170246437637220427980000006743819093871197064_);}
</style>
<g>
	<linearGradient id="SVGID_1_" gradientUnits="userSpaceOnUse" x1="24.835" y1="42.6624" x2="24.835" y2="4.907">
		<stop  offset="0" style="stop-color:#6A62AA"/>
		<stop  offset="0.1508" style="stop-color:#6459A5"/>
		<stop  offset="0.8464" style="stop-color:#C3E2ED"/>
		<stop  offset="1" style="stop-color:#C7E8F0"/>
		<stop  offset="1" style="stop-color:#CEEAEE"/>
	</linearGradient>
	<path class="st0" d="M10.9,38.7c0,0.6,0,1,0,1.3c-0.1,1.5-1,2.5-2.6,2.6c-1.6,0.1-3.3,0-4.9,0C2,42.5,1,41.5,1,40.1
		c0-6.4,0-12.7,0-19.1c0-1.4,1-2.4,2.5-2.5c1.6-0.1,3.3,0,4.9,0c1.3,0,2,0.8,2.5,1.8c1.6-1.1,3.3-2,4.8-3.1c3-2.2,4.5-5.2,4.5-8.9
		c0-2.1,1.5-3.6,3.6-3.5c1.9,0,3.4,1.5,3.4,3.4c-0.2,3.6-0.5,7.3-0.8,10.9c0,0.4-0.1,0.9-0.2,1.5c0.5,0,0.9,0,1.2,0
		c5.9,0,11.8,0,17.6,0c2.7,0,4.4,2.2,3.5,4.5c-0.5,1.3-1.7,2.2-3.2,2.2c-1.9,0-3.9,0-5.8,0c-0.3,0-0.6,0-0.9,0
		c0.3,1.7-0.3,3.1-1.8,3.9c1.5,3.2,1,4.7-1.9,5.9c0.2,0.7,0.5,1.4,0.5,2.1c0.1,1.7-1.2,3.1-2.9,3.4c-0.7,0.1-1.5,0.1-2.2,0.1
		c-3.6,0-7.1,0-10.7-0.1c-3.1-0.1-5.7-1.3-8-3.3C11.4,39.1,11.2,39,10.9,38.7z M27.5,35.8c-1-2.3-0.8-3,1-4.9c0.1-0.1,0.1-0.6,0-0.8
		c-0.7-1.1-0.8-2.3-0.2-3.5c0.7-1.2,1.8-1.8,3.2-1.8c1.2,0,2.5-0.1,3.7,0c0.8,0.1,1.5,0.5,2.3,0.7c0.4,0.1,0.8,0.4,1.2,0.4
		c2.1,0,4.3,0,6.4,0c1.5,0,2.4-0.9,2.4-2.1c0-1.3-1-2.1-2.5-2.1c-6,0-12.1,0-18.1,0c-0.8,0-0.9,0.3-1,0.9c-0.1,1.5-0.2,3-0.3,4.5
		c-0.3,3.4-3.5,6.3-6.8,6.3c-0.3,0-0.7-0.4-1-0.6c0.3-0.2,0.5-0.6,0.8-0.7c3.7-0.5,5.6-2.5,5.8-6.1c0.1-2.4,0.3-4.7,0.7-7.1
		c0.5-3.6,0.9-7.2,0.8-10.8c0-1.6-1.4-2.6-2.9-2.1c-0.9,0.3-1.4,1.1-1.4,2.2c-0.1,4.8-2.3,8.4-6.6,10.8c-1.2,0.7-2.2,1.6-3.3,2.5
		c-0.5,0.4-0.7,0.9-0.7,1.6c0,4.2,0,8.4,0,12.6c0,0.5,0.2,1,0.5,1.4c3.7,4.2,8.6,4.3,13.7,3.9C24.2,38.1,24.5,37.4,27.5,35.8z
		 M9.6,30.7c0-3.1,0-6.2,0-9.2c0-1.2-0.4-1.6-1.6-1.6c-1.4,0-2.7,0-4.1,0c-1.1,0-1.6,0.4-1.6,1.5c0,6.2,0,12.4,0,18.5
		c0,1.1,0.4,1.5,1.6,1.5c1.3,0,2.6,0,3.9,0c1.4,0,1.8-0.4,1.8-1.7C9.6,36.7,9.6,33.7,9.6,30.7z M30,41.4c0.7,0,1.3,0,2,0
		c1.2-0.1,2.1-1,2.1-2.1c0-1.1-0.9-2-2.1-2.1c-1.3-0.1-2.7-0.1-4,0c-1.2,0.1-2.1,1-2.1,2.1c0,1.1,0.9,2,2.1,2.1
		C28.7,41.4,29.3,41.4,30,41.4z M32.3,35.9c0.6,0,1.2,0,1.8,0c1.3,0,2.3-0.9,2.3-2.1c0-1.2-0.9-2-2.2-2.1c-1.3,0-2.6,0-3.9,0
		c-1.2,0-2.1,0.9-2.1,2.1c0,1.2,0.9,2.1,2.2,2.1C31,35.9,31.7,35.9,32.3,35.9z M33.3,26.2C33.3,26.2,33.3,26.2,33.3,26.2
		c-0.7,0-1.5-0.1-2.2,0c-1.2,0.1-1.9,1-1.9,2.1c0,1.1,0.8,2,2,2.1c1.4,0.1,2.8,0.1,4.2,0c1.1-0.1,1.9-1,2-2c0-1.1-0.8-2-1.9-2.1
		C34.7,26.2,34,26.2,33.3,26.2z"/>
	
		<linearGradient id="SVGID_00000061451604039063422240000012407209545196802999_" gradientUnits="userSpaceOnUse" x1="32.2188" y1="8.504" x2="32.2188" y2="2.393">
		<stop  offset="0" style="stop-color:#6A62AA"/>
		<stop  offset="0.1508" style="stop-color:#6459A5"/>
		<stop  offset="0.8464" style="stop-color:#C3E2ED"/>
		<stop  offset="1" style="stop-color:#C7E8F0"/>
		<stop  offset="1" style="stop-color:#CEEAEE"/>
	</linearGradient>
	<path style="fill:url(#SVGID_00000061451604039063422240000012407209545196802999_);" d="M30.3,2.9c0.1-0.1,0.3-0.5,0.5-0.5
		c0.3,0,0.7,0.1,0.9,0.4c0.5,0.7,0.8,1.5,1.2,2.3c0.4,0.9,0.9,1.7,1.3,2.6c0.1,0.2-0.1,0.6-0.2,0.9c-0.3-0.1-0.8-0.1-0.9-0.3
		c-0.9-1.7-1.8-3.3-2.6-5C30.4,3.1,30.4,3,30.3,2.9z"/>
	
		<linearGradient id="SVGID_00000164485856585027951630000000225987510319917711_" gradientUnits="userSpaceOnUse" x1="38.6074" y1="8.272" x2="38.6074" y2="1.7503">
		<stop  offset="0" style="stop-color:#6A62AA"/>
		<stop  offset="0.1508" style="stop-color:#6459A5"/>
		<stop  offset="0.8464" style="stop-color:#C3E2ED"/>
		<stop  offset="1" style="stop-color:#C7E8F0"/>
		<stop  offset="1" style="stop-color:#CEEAEE"/>
	</linearGradient>
	<path style="fill:url(#SVGID_00000164485856585027951630000000225987510319917711_);" d="M40.1,2.3c-0.7,2-1.3,3.8-1.9,5.6
		c-0.1,0.2-0.5,0.3-0.8,0.4C37.3,8,37,7.7,37.1,7.4c0.5-1.8,1.1-3.5,1.8-5.3C39,2,39.4,1.7,39.7,1.8C39.9,1.8,40,2.2,40.1,2.3z"/>
	
		<linearGradient id="SVGID_00000078007026610996545620000007108449056258284474_" gradientUnits="userSpaceOnUse" x1="43.3702" y1="10.7508" x2="43.3702" y2="7.0986">
		<stop  offset="0" style="stop-color:#6A62AA"/>
		<stop  offset="0.1508" style="stop-color:#6459A5"/>
		<stop  offset="0.8464" style="stop-color:#C3E2ED"/>
		<stop  offset="1" style="stop-color:#C7E8F0"/>
		<stop  offset="1" style="stop-color:#CEEAEE"/>
	</linearGradient>
	<path style="fill:url(#SVGID_00000078007026610996545620000007108449056258284474_);" d="M46.6,7.9C46.4,8,46.3,8.2,46,8.3
		c-1.6,0.8-3.2,1.6-4.9,2.4c-0.2,0.1-0.7-0.1-1-0.2c0.1-0.3,0.2-0.8,0.4-0.9c1.6-0.9,3.3-1.7,5-2.5C46.1,6.9,46.6,7.3,46.6,7.9z"/>
	
		<linearGradient id="SVGID_00000125561202526653652190000008254417482008412324_" gradientUnits="userSpaceOnUse" x1="43.7932" y1="16.6233" x2="43.7932" y2="13.6292">
		<stop  offset="0" style="stop-color:#6A62AA"/>
		<stop  offset="0.1508" style="stop-color:#6459A5"/>
		<stop  offset="0.8464" style="stop-color:#C3E2ED"/>
		<stop  offset="1" style="stop-color:#C7E8F0"/>
		<stop  offset="1" style="stop-color:#CEEAEE"/>
	</linearGradient>
	<path style="fill:url(#SVGID_00000125561202526653652190000008254417482008412324_);" d="M46.5,16.6c-1.7-0.5-3.3-1-4.8-1.5
		c-0.3-0.1-0.6-0.1-0.8-0.3c-0.2-0.2-0.3-0.5-0.4-0.8c0.3-0.1,0.6-0.4,0.8-0.3c1.8,0.5,3.7,1.1,5.5,1.8c0.2,0.1,0.4,0.5,0.4,0.7
		C47.1,16.3,46.7,16.5,46.5,16.6z"/>
	
		<linearGradient id="SVGID_00000055692292010048528290000004478486705878967945_" gradientUnits="userSpaceOnUse" x1="5.9103" y1="39.4262" x2="5.9103" y2="36.0387">
		<stop  offset="0" style="stop-color:#6A62AA"/>
		<stop  offset="0.1508" style="stop-color:#6459A5"/>
		<stop  offset="0.8464" style="stop-color:#C3E2ED"/>
		<stop  offset="1" style="stop-color:#C7E8F0"/>
		<stop  offset="1" style="stop-color:#CEEAEE"/>
	</linearGradient>
	<path style="fill:url(#SVGID_00000055692292010048528290000004478486705878967945_);" d="M6.5,37.7C6.5,37.7,6.5,37.7,6.5,37.7
		c0-0.4,0.1-0.8,0-1.1C6.4,36.4,6.2,36.1,6,36c-0.2,0-0.6,0.3-0.6,0.5c-0.1,0.8-0.1,1.6,0,2.4c0,0.2,0.4,0.5,0.6,0.5
		c0.2,0,0.5-0.3,0.6-0.6C6.6,38.5,6.5,38.1,6.5,37.7z"/>
	
		<linearGradient id="SVGID_00000107569903876569357190000007884593033001352333_" gradientUnits="userSpaceOnUse" x1="5.9103" y1="39.4262" x2="5.9103" y2="36.0387">
		<stop  offset="0" style="stop-color:#6A62AA"/>
		<stop  offset="0.1508" style="stop-color:#6459A5"/>
		<stop  offset="0.8464" style="stop-color:#C3E2ED"/>
		<stop  offset="1" style="stop-color:#C7E8F0"/>
		<stop  offset="1" style="stop-color:#CEEAEE"/>
	</linearGradient>
	<path style="fill:url(#SVGID_00000107569903876569357190000007884593033001352333_);" d="M6.5,37.7c0,0.4,0.1,0.8,0,1.1
		c-0.1,0.2-0.4,0.6-0.6,0.6c-0.2,0-0.6-0.3-0.6-0.5c-0.1-0.8-0.1-1.6,0-2.4C5.3,36.3,5.7,36,6,36c0.2,0,0.5,0.4,0.6,0.6
		C6.6,37,6.5,37.4,6.5,37.7C6.5,37.7,6.5,37.7,6.5,37.7z"/>
</g>
</svg>
