<svg id="Layer_1" data-name="Layer 1" xmlns="http://www.w3.org/2000/svg" xmlns:xlink="http://www.w3.org/1999/xlink" viewBox="0 0 50 16.87"><defs><style>.cls-1{fill:none;}.cls-2{clip-path:url(#clip-path);}.cls-3{fill-rule:evenodd;fill:url(#linear-gradient);}</style><clipPath id="clip-path" transform="translate(0 -17)"><rect class="cls-1" width="50" height="50"/></clipPath><linearGradient id="linear-gradient" x1="25" y1="35.27" x2="25" y2="18.18" gradientTransform="matrix(1, 0, 0, -1, 0, 52)" gradientUnits="userSpaceOnUse"><stop offset="0" stop-color="#c2faf7"/><stop offset="1" stop-color="#6f3ce8"/></linearGradient></defs><g class="cls-2"><path class="cls-3" d="M6.38,19A5.72,5.72,0,0,0,4,19.42H4a2.78,2.78,0,0,0-1.28,1,2.75,2.75,0,0,0-.09,2.66,2.37,2.37,0,0,0,.93.86l1.63.89-1.65.86a2.83,2.83,0,0,0-1.16,1A3,3,0,0,0,2,28.33a3.2,3.2,0,0,0,.54,1.89,3.47,3.47,0,0,0,1.52,1.21,5.76,5.76,0,0,0,2.33.45,5.57,5.57,0,0,0,2.31-.45h0a3.48,3.48,0,0,0,1.54-1.21,3.2,3.2,0,0,0,.54-1.89,3,3,0,0,0-.38-1.57,2.83,2.83,0,0,0-1.16-1l-1.65-.86L9.22,24a2.27,2.27,0,0,0,.9-.83h0a2.42,2.42,0,0,0,.32-1.28,2.51,2.51,0,0,0-.4-1.38h0a2.63,2.63,0,0,0-1.25-1h0A5.74,5.74,0,0,0,6.38,19ZM3.17,17.62A7.57,7.57,0,0,1,6.38,17a7.59,7.59,0,0,1,3.22.62,4.64,4.64,0,0,1,2.11,1.76,4.58,4.58,0,0,1,.11,4.78,3.74,3.74,0,0,1-.48.63,4.35,4.35,0,0,1,.76.95,4.93,4.93,0,0,1,.67,2.59c0,.17,0,.33,0,.5l.09-.07c1.26-1,2.28-1.83,3.07-2.53a13.1,13.1,0,0,0,1.89-2.05l.05-.08H12.38l0-1a6.63,6.63,0,0,1,.91-3.37,5.3,5.3,0,0,1,2.26-2.07,6.85,6.85,0,0,1,3-.64,5.83,5.83,0,0,1,4.29,1.49,5.09,5.09,0,0,1,1.42,3,7.87,7.87,0,0,1,1-2.12A5.91,5.91,0,0,1,30.42,17a5.91,5.91,0,0,1,5.12,2.36,8.22,8.22,0,0,1,1.33,3.2,8.19,8.19,0,0,1,1.31-3.2A5.88,5.88,0,0,1,43.3,17a5.88,5.88,0,0,1,5.12,2.36A9.94,9.94,0,0,1,50,25.25a10.13,10.13,0,0,1-1.55,5.92,5.92,5.92,0,0,1-5.15,2.36,5.9,5.9,0,0,1-5.14-2.36h0A8.43,8.43,0,0,1,36.87,28a8.3,8.3,0,0,1-1.31,3.19,5.91,5.91,0,0,1-5.14,2.36,5.92,5.92,0,0,1-5.15-2.36h0a7.57,7.57,0,0,1-.83-1.57v3.82h-12v-3.2a4.61,4.61,0,0,1-.6,1.14h0a5.55,5.55,0,0,1-2.38,1.89,7.73,7.73,0,0,1-3.1.61,7.84,7.84,0,0,1-3.11-.61h0A5.6,5.6,0,0,1,.91,31.37h0a5.2,5.2,0,0,1-.9-3,4.93,4.93,0,0,1,.67-2.59,4.56,4.56,0,0,1,.75-.94,3.64,3.64,0,0,1-.52-.7,4.44,4.44,0,0,1-.57-2.26A4.52,4.52,0,0,1,1,19.38H1A4.75,4.75,0,0,1,3.17,17.62ZM24.05,28.31a14,14,0,0,1-.31-3.06V25a8,8,0,0,1-1,1.7,14.26,14.26,0,0,1-1.42,1.6Zm-5.91-4.68a2.42,2.42,0,0,0,.3-1.07.79.79,0,0,0-.06-.34h-.09l0,0h0a1.5,1.5,0,0,0-.13.82ZM18.55,19a4.67,4.67,0,0,0-2.1.45h0A3.29,3.29,0,0,0,15,20.75h0a4.08,4.08,0,0,0-.51,1.37h1.71a2.59,2.59,0,0,1,.38-.94A2.08,2.08,0,0,1,19.91,21a2.49,2.49,0,0,1,.51,1.6,4.79,4.79,0,0,1-1,2.77h0a15.47,15.47,0,0,1-2.18,2.38c-.75.66-1.68,1.43-2.79,2.3v1.41h8V30.3H15.37L18,28.49a13.75,13.75,0,0,0,3.17-3h0a5.13,5.13,0,0,0,1.17-3.21,3.29,3.29,0,0,0-.89-2.41A3.91,3.91,0,0,0,18.55,19Zm11.87,0a4,4,0,0,0-3.51,1.52,8.13,8.13,0,0,0-1.19,4.74A8.23,8.23,0,0,0,26.9,30a4,4,0,0,0,3.52,1.52A4,4,0,0,0,33.94,30a8.23,8.23,0,0,0,1.19-4.78,8,8,0,0,0-1.21-4.74h0A3.94,3.94,0,0,0,30.42,19ZM43.3,19a3.93,3.93,0,0,0-3.5,1.52,8.06,8.06,0,0,0-1.19,4.74A8.32,8.32,0,0,0,39.78,30a4,4,0,0,0,3.52,1.52A4,4,0,0,0,46.82,30,8.15,8.15,0,0,0,48,25.25a8.05,8.05,0,0,0-1.2-4.74h0A3.91,3.91,0,0,0,43.3,19ZM4.72,20.7A2.25,2.25,0,0,1,6.38,20a2.21,2.21,0,0,1,1.68.71,2.49,2.49,0,0,1,.61,1.73A2.39,2.39,0,0,1,8,24.17a2.2,2.2,0,0,1-1.64.68,2.28,2.28,0,0,1-1.64-.67h0a2.73,2.73,0,0,1,0-3.45h0Zm1.45,1.36a.61.61,0,0,0-.09.38.53.53,0,0,0,.08.35.29.29,0,0,0,.22.07c.14,0,.18,0,.21-.06h0s.09-.08.09-.34a.59.59,0,0,0-.08-.37h0S6.53,22,6.38,22A.25.25,0,0,0,6.17,22.06Zm22.76-1a2.81,2.81,0,0,1,1.49-.38A2.77,2.77,0,0,1,31.9,21a2.43,2.43,0,0,1,1,1.18,8.43,8.43,0,0,1,.44,3.06,8.63,8.63,0,0,1-.44,3.1,2.34,2.34,0,0,1-1,1.18,2.77,2.77,0,0,1-1.48.38,2.87,2.87,0,0,1-1.49-.37,2.36,2.36,0,0,1-1-1.18h0a9,9,0,0,1-.42-3.09A8.65,8.65,0,0,1,28,22.19,2.49,2.49,0,0,1,28.93,21ZM30,22.7a.46.46,0,0,0-.17.23h0a6.54,6.54,0,0,0-.3,2.32,7.39,7.39,0,0,0,.28,2.38.38.38,0,0,0,.16.2.89.89,0,0,0,.47.09.8.8,0,0,0,.45-.09c.05,0,.1-.07.15-.19h0a6.94,6.94,0,0,0,.3-2.38,6.54,6.54,0,0,0-.3-2.32h0a.41.41,0,0,0-.16-.23.81.81,0,0,0-.44-.09A.76.76,0,0,0,30,22.7ZM41.82,21a3.07,3.07,0,0,1,3,0,2.38,2.38,0,0,1,1,1.18,8.41,8.41,0,0,1,.45,3.06,8.85,8.85,0,0,1-.44,3.1,2.31,2.31,0,0,1-1,1.18,2.75,2.75,0,0,1-1.48.38,2.83,2.83,0,0,1-1.48-.37,2.38,2.38,0,0,1-1-1.18h0a9.32,9.32,0,0,1-.41-3.09,8.43,8.43,0,0,1,.44-3.06A2.38,2.38,0,0,1,41.82,21Zm1,1.69a.41.41,0,0,0-.16.23h0a6.79,6.79,0,0,0-.3,2.32,7.32,7.32,0,0,0,.29,2.38.38.38,0,0,0,.15.2.92.92,0,0,0,.47.09.85.85,0,0,0,.46-.09c.05,0,.1-.07.14-.19h0a6.94,6.94,0,0,0,.3-2.38,6.54,6.54,0,0,0-.3-2.32h0a.46.46,0,0,0-.17-.23.78.78,0,0,0-.44-.09A.81.81,0,0,0,42.86,22.7ZM4.48,26.22a2.66,2.66,0,0,1,1.9-.73,2.6,2.6,0,0,1,1.89.73A2.54,2.54,0,0,1,9,28.11a2.53,2.53,0,0,1-2.64,2.6A2.63,2.63,0,0,1,4.47,30a2.73,2.73,0,0,1,0-3.75Zm1.9,1.26a.67.67,0,0,0-.52.17h0a.75.75,0,0,0,0,.91.65.65,0,0,0,.51.16.61.61,0,0,0,.48-.14h0a.75.75,0,0,0,0-.91h0A.61.61,0,0,0,6.38,27.48Z" transform="translate(0 -17)"/></g></svg>