<svg id="Layer_1" data-name="Layer 1" xmlns="http://www.w3.org/2000/svg" xmlns:xlink="http://www.w3.org/1999/xlink" viewBox="0 0 45.14 49.84"><defs><style>.cls-1{fill:url(#linear-gradient);}.cls-2{fill:url(#linear-gradient-2);}.cls-3{fill:url(#linear-gradient-3);}.cls-4{fill:url(#linear-gradient-4);}.cls-5{fill:url(#linear-gradient-5);}.cls-6{fill:url(#linear-gradient-6);}.cls-7{fill:url(#linear-gradient-7);}</style><linearGradient id="linear-gradient" x1="19.42" y1="50.01" x2="19.42" y2="0.52" gradientUnits="userSpaceOnUse"><stop offset="0" stop-color="#6f3ce8"/><stop offset="1" stop-color="#c2faf7"/><stop offset="1"/></linearGradient><linearGradient id="linear-gradient-2" x1="26.73" y1="28.59" x2="26.73" y2="12.05" xlink:href="#linear-gradient"/><linearGradient id="linear-gradient-3" x1="44.41" y1="29.5" x2="44.41" y2="22.29" xlink:href="#linear-gradient"/><linearGradient id="linear-gradient-4" x1="40.85" y1="39.21" x2="40.85" y2="32.09" xlink:href="#linear-gradient"/><linearGradient id="linear-gradient-5" x1="43.39" y1="18.66" x2="43.39" y2="12.27" xlink:href="#linear-gradient"/><linearGradient id="linear-gradient-6" x1="38.03" y1="9.22" x2="38.03" y2="4.23" xlink:href="#linear-gradient"/><linearGradient id="linear-gradient-7" x1="29.53" y1="3.33" x2="29.53" y2="0.17" xlink:href="#linear-gradient"/></defs><path class="cls-1" d="M26.25,42.43l-.94-2.54c-.3-.83.05-1.22.78-1.12,3.1.4,6.2.84,9.3,1.29.85.12,1.14.6.56,1.42q-2.81,4-5.62,8c-.56.79-1,.67-1.42-.21C27.86,47,27.85,47,25.56,47.17c-11.17.87-21.64-8.92-22.85-21C1.64,15.43,7.54,4.37,18,.94c.56-.19,1.32-.91,1.75.12.06.16-.75.93-1.25,1.17C10.55,6,5.72,15.1,6.92,24.2c1.26,9.55,8,16.87,16.71,18.07C24.42,42.38,25.22,42.37,26.25,42.43Z" transform="translate(-2.59 -0.17)"/><path class="cls-2" d="M23.62,24.77A56.8,56.8,0,0,1,33.79,13.22c.18-.16.38-.31.56-.48.7-.63,1.48-1.12,2.17-.12s.07,1.66-.66,2.27A52.29,52.29,0,0,0,25,27.45c-1,1.54-1.66,1.49-2.76.05-1.56-2-3.18-4-4.83-6-.6-.72-1.06-1.42-.36-2.25s1.45-.42,2.07.27C20.58,21.27,22.09,23,23.62,24.77Z" transform="translate(-2.59 -0.17)"/><path class="cls-3" d="M44.38,29.5A3.61,3.61,0,1,1,47.73,26,3.54,3.54,0,0,1,44.38,29.5Z" transform="translate(-2.59 -0.17)"/><path class="cls-4" d="M40.94,32.09a3.57,3.57,0,1,1-3.39,3.42A3.39,3.39,0,0,1,40.94,32.09Z" transform="translate(-2.59 -0.17)"/><path class="cls-5" d="M46.34,15.52a3,3,0,0,1-3,3.14,3.09,3.09,0,0,1-2.89-3.18,3,3,0,1,1,5.91,0Z" transform="translate(-2.59 -0.17)"/><path class="cls-6" d="M40.32,6.8a2.3,2.3,0,1,1-4.58-.06,2.42,2.42,0,0,1,2.38-2.51A2.44,2.44,0,0,1,40.32,6.8Z" transform="translate(-2.59 -0.17)"/><path class="cls-7" d="M31,1.67A1.48,1.48,0,0,1,29.6,3.32,1.53,1.53,0,0,1,28.08,1.7c.07-.95.58-1.54,1.47-1.53S30.92.73,31,1.67Z" transform="translate(-2.59 -0.17)"/></svg>