<svg id="Layer_1" data-name="Layer 1" xmlns="http://www.w3.org/2000/svg" xmlns:xlink="http://www.w3.org/1999/xlink" viewBox="0 0 44.74 50.21"><defs><style>.cls-1{fill:none;}.cls-2{clip-path:url(#clip-path);}.cls-3,.cls-4,.cls-5,.cls-6{fill-rule:evenodd;}.cls-3{fill:url(#linear-gradient);}.cls-4{fill:url(#linear-gradient-2);}.cls-5{fill:url(#linear-gradient-3);}.cls-6{fill:url(#linear-gradient-4);}</style><clipPath id="clip-path" transform="translate(-2.64 0.09)"><rect class="cls-1" width="50" height="50"/></clipPath><linearGradient id="linear-gradient" x1="24.2" y1="52.91" x2="24.2" y2="2.01" gradientTransform="matrix(1, 0, 0, -1, 0, 52)" gradientUnits="userSpaceOnUse"><stop offset="0" stop-color="#c2faf7"/><stop offset="1" stop-color="#6f3ce8"/></linearGradient><linearGradient id="linear-gradient-2" x1="24.9" y1="36.44" x2="24.9" y2="9.3" xlink:href="#linear-gradient"/><linearGradient id="linear-gradient-3" x1="9.47" y1="45.17" x2="9.47" y2="31.38" xlink:href="#linear-gradient"/><linearGradient id="linear-gradient-4" x1="40.58" y1="45.17" x2="40.58" y2="31.38" xlink:href="#linear-gradient"/></defs><g class="cls-2"><path class="cls-3" d="M16.7,2.56A2.65,2.65,0,0,1,19.35-.09H30.69a2.65,2.65,0,0,1,2.65,2.65v3a2.65,2.65,0,0,1-2.65,2.65H28.25v.7A20.74,20.74,0,1,1,6.09,37.85l-.26.1a2.43,2.43,0,0,1-2.44-.31,2.43,2.43,0,0,1-.69-2.36h0l.19-1h0L3,33.52c.24-1.26.54-2.9.74-4h0l.19-1H4a2.43,2.43,0,0,1,1.49-2,2.43,2.43,0,0,1,2.39.59h0l.8.68,3.63,3.1h0l.8.68h0A2.43,2.43,0,0,1,14,33.87a2.4,2.4,0,0,1-1.69,1.78h0l-.11,0A14.29,14.29,0,1,0,11.44,25l-.31.95L5,23.89l.31-.95a20.68,20.68,0,0,1,16.49-14v-.7H19.35A2.66,2.66,0,0,1,16.7,5.56ZM27.15,9.78l-.21,1,1.31.43v-.23A18.74,18.74,0,1,1,7.58,36.23l-.37-1-.94.4h0l0,0h0l-1,.35h0a.73.73,0,0,1-.47.06.69.69,0,0,1,0-.48h0l.19-1h0L5,33.88c.23-1.26.54-2.89.73-4l.19-1a.72.72,0,0,1,.19-.44s.18,0,.43.22h0l.8.68h0c1,.84,2.63,2.23,3.62,3.09h0l.8.69h0c.25.21.28.34.29.38s-.09.15-.4.26h0l-1,.35h-.08l-.06,0-1,.36.38.95a16.28,16.28,0,1,0,0-12.09l-2.34-.77A18.68,18.68,0,0,1,22.9,10.78l.89-.1V6.21H19.35a.66.66,0,0,1-.65-.65v-3a.66.66,0,0,1,.65-.65H30.69a.66.66,0,0,1,.65.65v3a.65.65,0,0,1-.65.65H26.25V9.78ZM12.05,33.52h0Z" transform="translate(-2.64 0.09)"/><path class="cls-4" d="M22.56,16h4.91v2.66a8.9,8.9,0,0,1,3.62,1.49,7.74,7.74,0,0,1,2.69,3.68l.36,1-4.78,1.49c.4.12.75.25,1.06.37a6.18,6.18,0,0,1,2.81,2.26h0a6.42,6.42,0,0,1,1.13,3.76,6.74,6.74,0,0,1-2.15,5.06h0A9.11,9.11,0,0,1,27.47,40v2.75H22.56V40a8.89,8.89,0,0,1-4.1-1.86,8.64,8.64,0,0,1-2.74-4.5l-.29-1,5.15-1A6.28,6.28,0,0,1,18.2,30a6.4,6.4,0,0,1-1.58-4.26,7,7,0,0,1,1.7-4.64h0a7.44,7.44,0,0,1,4.24-2.38Zm.5,16.49a1.93,1.93,0,0,0,.67.84,2.89,2.89,0,0,0,1.64.41h0a2.68,2.68,0,0,0,1.13-.17h0a.17.17,0,0,0,0-.09v0l0,0h0A4,4,0,0,0,25.09,33h0C24.36,32.82,23.68,32.66,23.06,32.49Zm3.47,3.16v.09H25.4A4.82,4.82,0,0,1,22.61,35a3.8,3.8,0,0,1-1.26-1.44L18,34.16a6.29,6.29,0,0,0,1.74,2.46,7.33,7.33,0,0,0,3.94,1.54l.88.1v2.51h.91V38.25l.89-.09a7.49,7.49,0,0,0,4.47-1.84,4.72,4.72,0,0,0,1.53-3.61,4.48,4.48,0,0,0-.77-2.62,4.21,4.21,0,0,0-1.91-1.55h0a34.2,34.2,0,0,0-4.56-1.24h0a9.73,9.73,0,0,1-1.27-.35,2.77,2.77,0,0,1-1-.53h0a2.07,2.07,0,0,1,.31-3.21,3.64,3.64,0,0,1,1.95-.46,4.36,4.36,0,0,1,2.4.64,3.67,3.67,0,0,1,1.07,1.08l2.85-.89a5.44,5.44,0,0,0-1.56-1.79,7.32,7.32,0,0,0-3.55-1.25l-.89-.1V18h-.91v2.45l-.85.13a5.92,5.92,0,0,0-3.86,1.85,5,5,0,0,0-1.23,3.35,4.41,4.41,0,0,0,1.1,3h0a4.8,4.8,0,0,0,1.87,1.15A22.07,22.07,0,0,0,25.48,31a5.93,5.93,0,0,1,2.14.77,2.1,2.1,0,0,1,.93,1.79h0a2,2,0,0,1-.28,1,2.07,2.07,0,0,1-.77.73A3.37,3.37,0,0,1,26.53,35.65Zm.5-10a1.76,1.76,0,0,0-.57-.63,2.35,2.35,0,0,0-1.31-.32,1.8,1.8,0,0,0-.87.14h0s0,0,0,.06h0a1.34,1.34,0,0,0,.25.11,10,10,0,0,0,1,.28Z" transform="translate(-2.64 0.09)"/><path class="cls-5" d="M7.39,8.39a4.58,4.58,0,0,1,6.48,0l-.71.71.71-.71h0l2.4,2.4L15,11.4a16.76,16.76,0,0,0-8,8l-.6,1.29L4,18.26l.71-.71L4,18.26a4.58,4.58,0,0,1,0-6.48l.71.71L4,11.78,7.39,8.39ZM4,11.78Zm8.46-2a2.6,2.6,0,0,0-3.65,0l-3.4,3.4a2.6,2.6,0,0,0,0,3.65l.43.43a18.76,18.76,0,0,1,7.05-7Z" transform="translate(-2.64 0.09)"/><path class="cls-6" d="M36.18,8.39a4.57,4.57,0,0,1,6.47,0l3.4,3.39a4.6,4.6,0,0,1,0,6.48h0l-2.4,2.4L43,19.37a16.7,16.7,0,0,0-8-8l-1.29-.61,2.41-2.4Zm8.47,4.82-3.41-3.4h0a2.59,2.59,0,0,0-3.65,0l-.43.44a18.71,18.71,0,0,1,7,7l.43-.42A2.59,2.59,0,0,0,44.65,13.21Z" transform="translate(-2.64 0.09)"/></g></svg>