<svg id="Layer_1" data-name="Layer 1" xmlns="http://www.w3.org/2000/svg" xmlns:xlink="http://www.w3.org/1999/xlink" viewBox="0 0 50.21 37.85"><defs><style>.cls-1{fill:none;}.cls-2{clip-path:url(#clip-path);}.cls-3{fill-rule:evenodd;fill:url(#linear-gradient);}</style><clipPath id="clip-path" transform="translate(0.09 -6.39)"><rect class="cls-1" width="50" height="50"/></clipPath><linearGradient id="linear-gradient" x1="25.02" y1="46.22" x2="25.02" y2="7.85" gradientTransform="matrix(1, 0, 0, -1, 0, 52)" gradientUnits="userSpaceOnUse"><stop offset="0" stop-color="#c2faf7"/><stop offset="1" stop-color="#6f3ce8"/></linearGradient></defs><g class="cls-2"><path class="cls-3" d="M17.18,6.67a1.93,1.93,0,0,1,2,0c5,2.94,7.43,4.26,9.69,5.44A14.21,14.21,0,0,1,32,14.37a83.26,83.26,0,0,1,8.84,10,2.49,2.49,0,0,0,1,.79,16.9,16.9,0,0,0,7.17,1.26l1.05-.05V44.24l-1.48-.79a45,45,0,0,0-10.24-4.13,4.65,4.65,0,0,0-1.9,0,25.55,25.55,0,0,1-7.89.2h0l-.22,0h0A112.37,112.37,0,0,1,17.27,37c-3.81-1-7.07-1.9-7.35-2A3.51,3.51,0,0,1,7.46,33.4a3.07,3.07,0,0,1-.28-1.87,4.24,4.24,0,0,1-3-1.71A2.86,2.86,0,0,1,3.79,28L2.66,28h0a3.19,3.19,0,0,1-2-.81A2.29,2.29,0,0,1-.09,25.4h0A2.3,2.3,0,0,1,.7,23.74a3,3,0,0,1,1.71-.68,2.23,2.23,0,0,1,0-1.51,2.82,2.82,0,0,1,2.77-1.71l14.07-.49a15.53,15.53,0,0,0,3.46-.5q.58-.17,1-.33c-.4-1.8-1.82-3.06-3.56-4.52h0l0,0a18.51,18.51,0,0,1-2.48-2.37,5.54,5.54,0,0,1-1.34-3.32A1.79,1.79,0,0,1,17.18,6.67Zm.52.86-.51-.86h0m8.09,10.18a1,1,0,0,0,.18-.15v0h0a1.4,1.4,0,0,1,2-.2h0a1.39,1.39,0,0,1,.22,1.95c-.18.23-1.29,1.47-4.43,2.32a17.32,17.32,0,0,1-3.91.57l-14.09.49h0c-.73,0-.89.29-.91.36s0,0,0,0l13.48-.17h0a1.4,1.4,0,1,1,0,2.79l-15,.19h0a1,1,0,0,0-.71.2.29.29,0,0,0-.11.21.3.3,0,0,0,.11.23,1.24,1.24,0,0,0,.79.27h0c.22,0,9.19.72,15.49.85h0a1.4,1.4,0,0,1,1.36,1.43h0a1.4,1.4,0,0,1-1.4,1.36h0c-3.93-.08-8.87-.38-12.14-.6a3.8,3.8,0,0,0,2,.65L19,30.77a1.39,1.39,0,0,1-.14,2.78h-.14l-9.36-1a1.89,1.89,0,0,0,1,.49h.09c.06,0,3.39,1,7.32,2a109.43,109.43,0,0,0,10.86,2.39l.24,0h0a23.07,23.07,0,0,0,7.28-.18,6.48,6.48,0,0,1,2.74.07,45,45,0,0,1,9.24,3.54V28.46a19.07,19.07,0,0,1-7-1.43,4.45,4.45,0,0,1-1.86-1.43,81.19,81.19,0,0,0-8.63-9.78,12.26,12.26,0,0,0-2.75-2c-2.26-1.18-4.66-2.5-9.58-5.37a3.71,3.71,0,0,0,.88,1.86,16.58,16.58,0,0,0,2.24,2.12l.11.09A12.68,12.68,0,0,1,25.27,16.85Zm-7-8.46h0s0,0,.05-.07a.15.15,0,0,0,0-.12h0m.46,24.56Zm-1-8.69Zm0-1.21Z" transform="translate(0.09 -6.39)"/></g></svg>