<svg id="Layer_1" data-name="Layer 1" xmlns="http://www.w3.org/2000/svg" xmlns:xlink="http://www.w3.org/1999/xlink" viewBox="0 0 50 50"><defs><style>.cls-1,.cls-3,.cls-4{fill:none;}.cls-2{clip-path:url(#clip-path);}.cls-3,.cls-4{stroke-width:2px;}.cls-3{stroke:url(#linear-gradient);}.cls-4{stroke:url(#linear-gradient-2);}</style><clipPath id="clip-path"><rect class="cls-1" width="50" height="50"/></clipPath><linearGradient id="linear-gradient" x1="25.02" y1="40.17" x2="25.02" y2="6.33" gradientTransform="matrix(1, 0, 0, -1, 0, 52)" gradientUnits="userSpaceOnUse"><stop offset="0" stop-color="#c2faf7"/><stop offset="1" stop-color="#6f3ce8"/></linearGradient><linearGradient id="linear-gradient-2" x1="22.83" y1="47.97" x2="22.83" y2="32.24" xlink:href="#linear-gradient"/></defs><g class="cls-2"><path class="cls-3" d="M47.27,42.05H45.42V14.23a1.85,1.85,0,0,0-1.86-1.85H36.14a1.85,1.85,0,0,0-1.85,1.85V42.05H30.58V27.21a1.85,1.85,0,0,0-1.85-1.85H21.31a1.86,1.86,0,0,0-1.86,1.85V42.05h-3.7V32.78a1.86,1.86,0,0,0-1.86-1.86H6.47a1.85,1.85,0,0,0-1.85,1.86v9.27H2.77a1.86,1.86,0,1,0,0,3.71h44.5a1.86,1.86,0,1,0,0-3.71Z"/><path class="cls-4" d="M16.93,19.8a1.84,1.84,0,0,0,1.31-.55l8.63-8.63v.77a1.86,1.86,0,0,0,3.71,0V6.14a1.85,1.85,0,0,0-1.85-1.85H23.48a1.85,1.85,0,0,0,0,3.7h.77l-8.63,8.64a1.86,1.86,0,0,0,1.31,3.17Z"/></g></svg>