<svg id="Layer_1" data-name="Layer 1" xmlns="http://www.w3.org/2000/svg" xmlns:xlink="http://www.w3.org/1999/xlink" viewBox="0 0 50 50"><defs><style>.cls-1,.cls-3{fill:none;}.cls-2{clip-path:url(#clip-path);}.cls-3{stroke-width:2px;stroke:url(#linear-gradient);}</style><clipPath id="clip-path"><rect class="cls-1" width="50" height="50"/></clipPath><linearGradient id="linear-gradient" x1="25.02" y1="46.62" x2="25.02" y2="8.09" gradientTransform="matrix(1, 0, 0, -1, 0, 52)" gradientUnits="userSpaceOnUse"><stop offset="0" stop-color="#c2faf7"/><stop offset="1" stop-color="#6f3ce8"/></linearGradient></defs><g class="cls-2"><path class="cls-3" d="M4.92,6A1.75,1.75,0,0,0,3.23,7.73,1.81,1.81,0,0,0,5,9.62l5.62.25,1.35,4.93c0,.1,0,.21.05.31l.82,3H2.74a1.83,1.83,0,0,0,0,3.66H13.81l.56,2H8.47a1.83,1.83,0,0,0,0,3.66h6.91l1,3.77.2.72a1.8,1.8,0,0,0,1.74,1.33H42.68a1.81,1.81,0,0,0,1.74-1.33l4.64-16.8a1.81,1.81,0,0,0-1.74-2.29H15.14L13.72,7.64a1.8,1.8,0,0,0-1.67-1.33L5.12,6ZM16.13,16.44H44.94L41.3,29.62H19.74l-.6-2.2H29.43a1.83,1.83,0,1,0,0-3.66H18.14l-.56-2H32.75a1.83,1.83,0,0,0,0-3.66H16.58Zm6.55,17.61a5,5,0,1,0,5,5A5,5,0,0,0,22.68,34.05Zm15.08,0a5,5,0,1,0,5,5A5,5,0,0,0,37.76,34.05ZM22.68,37.67A1.36,1.36,0,1,1,21.32,39,1.36,1.36,0,0,1,22.68,37.67Zm15.08,0A1.36,1.36,0,1,1,36.41,39,1.36,1.36,0,0,1,37.76,37.67Z"/></g></svg>