<?xml version="1.0" encoding="UTF-8"?>
<svg id="Layer_1" data-name="Layer 1" xmlns="http://www.w3.org/2000/svg" xmlns:xlink="http://www.w3.org/1999/xlink" viewBox="0 0 49.67 45.53">
  <defs>
    <style>
      .cls-1 {
        fill: url(#linear-gradient);
      }
    </style>
    <linearGradient id="linear-gradient" x1="24.84" y1="45.53" x2="24.84" y2="0" gradientUnits="userSpaceOnUse">
      <stop offset="0" stop-color="#6a47e0"/>
      <stop offset="1" stop-color="#cbf6f6"/>
      <stop offset="1" stop-color="#c6eef5"/>
    </linearGradient>
  </defs>
  <path class="cls-1" d="m45.53,0H4.14C1.86,0,0,1.86,0,4.14v33.11c0,2.29,1.86,4.14,4.14,4.14h15.52v2.07h-4.14c-.57,0-1.03.46-1.03,1.03s.46,1.03,1.03,1.03h18.63c.57,0,1.03-.46,1.03-1.03s-.46-1.03-1.03-1.03h-4.14v-2.07h13.15c.58,0,1.03-.47,1.03-1.03s-.46-1.03-1.03-1.03H4.14c-1.14,0-2.07-.93-2.07-2.07v-4.14h45.53v3.1c0,.57.47,1.03,1.03,1.03s1.03-.47,1.03-1.03V4.14c0-2.28-1.86-4.14-4.14-4.14ZM2.07,4.14c0-1.14.93-2.07,2.07-2.07h41.39c1.14,0,2.07.93,2.07,2.07v26.91H2.07V4.14Zm25.87,39.32h-6.21v-2.07h6.21v2.07Zm20.14-4.16c.31.48.18,1.12-.31,1.44-.17.1-.36.16-.56.16-.35,0-.68-.18-.87-.48-.03-.05-.05-.1-.08-.15-.08-.19-.11-.41-.07-.62.06-.26.22-.5.45-.64,0,0,.01,0,.01-.01.42-.27.99-.18,1.32.18.04.04.08.08.11.13Zm-22.21-4.12c.57,0,1.03.46,1.03,1.03s-.46,1.03-1.03,1.03h-2.07c-.57,0-1.03-.46-1.03-1.03s.46-1.03,1.03-1.03h2.07ZM6.21,18.11v-5.69c0-.57.46-1.03,1.03-1.03s1.03.46,1.03,1.03v5.69c0,.86.7,1.55,1.57,1.55s1.57-.7,1.57-1.55v-5.69c0-.57.46-1.03,1.03-1.03s1.03.46,1.03,1.03v5.69c0,2-1.63,3.62-3.64,3.62s-3.64-1.62-3.64-3.62Zm9.25,2.12l1.85-3.67-1.85-3.67c-.26-.51-.05-1.13.46-1.39.51-.26,1.13-.05,1.39.46l1.16,2.3,1.16-2.3c.26-.51.88-.72,1.39-.46.51.26.72.88.46,1.39l-1.85,3.67,1.85,3.67c.26.51.05,1.13-.46,1.39-.51.26-1.13.05-1.39-.46l-1.16-2.3-1.16,2.3c-.18.36-.55.57-.92.57-.16,0-.31-.04-.46-.11-.51-.26-.72-.88-.46-1.39Zm18.86-7.81v5.69c0,.86.7,1.55,1.57,1.55s1.57-.7,1.57-1.55v-5.69c0-.57.46-1.03,1.03-1.03s1.03.46,1.03,1.03v5.69c0,2-1.63,3.62-3.64,3.62s-3.64-1.62-3.64-3.62v-5.69c0-.57.46-1.03,1.03-1.03s1.03.46,1.03,1.03Zm9.14,0v8.28c0,.57-.46,1.03-1.03,1.03s-1.03-.46-1.03-1.03v-8.28c0-.57.46-1.03,1.03-1.03s1.03.46,1.03,1.03Zm-19.09,12.36c-.54-.19-.82-.79-.62-1.32l5.21-14.49c.19-.54.79-.82,1.32-.62.54.19.82.79.62,1.32l-5.21,14.49c-.15.42-.55.69-.97.69-.12,0-.23-.02-.35-.06ZM43.46,5.17c0,.57-.46,1.03-1.03,1.03H7.24c-.57,0-1.03-.46-1.03-1.03s.46-1.03,1.03-1.03h35.18c.57,0,1.03.46,1.03,1.03Zm0,22.77c0,.57-.46,1.03-1.03,1.03H7.24c-.57,0-1.03-.46-1.03-1.03s.46-1.03,1.03-1.03h35.18c.57,0,1.03.46,1.03,1.03Z"/>
</svg>