<svg id="Layer_1" data-name="Layer 1" xmlns="http://www.w3.org/2000/svg" xmlns:xlink="http://www.w3.org/1999/xlink" viewBox="0 0 81.8 81.8"><defs><style>.cls-1{fill:#fff;}.cls-2,.cls-4{fill:none;}.cls-3{clip-path:url(#clip-path);}.cls-4{stroke-width:2px;stroke:url(#linear-gradient);}.cls-5{mask:url(#mask);}.cls-6{fill:url(#linear-gradient-2);}.cls-7{mask:url(#mask-2);}.cls-8{fill:url(#linear-gradient-3);}.cls-9{mask:url(#mask-3);}.cls-10{fill:url(#linear-gradient-4);}.cls-11{mask:url(#mask-4);}.cls-12{fill:url(#linear-gradient-5);}.cls-13{mask:url(#mask-5);}.cls-14{fill:url(#linear-gradient-6);}.cls-15{mask:url(#mask-6);}.cls-16{fill:url(#linear-gradient-7);}.cls-17{mask:url(#mask-7);}.cls-18{fill:url(#linear-gradient-8);}.cls-19{mask:url(#mask-8);}.cls-20{fill:url(#linear-gradient-9);}.cls-21{mask:url(#mask-9);}.cls-22{fill:url(#linear-gradient-10);}.cls-23{mask:url(#mask-10);}.cls-24{fill:url(#linear-gradient-11);}.cls-25{mask:url(#mask-11);}.cls-26{fill:url(#linear-gradient-12);}.cls-27{mask:url(#mask-12);}.cls-28{fill:url(#linear-gradient-13);}</style><clipPath id="clip-path" transform="translate(15.88 15.88)"><rect class="cls-2" width="50" height="50"/></clipPath><linearGradient id="linear-gradient" x1="25" y1="40.42" x2="25" y2="14.07" gradientTransform="matrix(1, 0, 0, -1, 0, 52)" gradientUnits="userSpaceOnUse"><stop offset="0" stop-color="#c2faf7"/><stop offset="1" stop-color="#6f3ce8"/></linearGradient><mask id="mask" x="29.34" y="0" width="23.12" height="33.1" maskUnits="userSpaceOnUse"><g transform="translate(15.88 15.88)"><g id="path-3-inside-1_1_2" data-name="path-3-inside-1 1 2"><path class="cls-1" d="M22.72,5l1.56-1.56V9.22h1.48V3.43L27.32,5a.71.71,0,0,0,1,0,.73.73,0,0,0,0-1L25.54,1.13a.73.73,0,0,0-1,0L21.68,4a.74.74,0,1,0,1,1Z"/></g></g></mask><linearGradient id="linear-gradient-2" x1="25.02" y1="51.22" x2="25.02" y2="42.8" xlink:href="#linear-gradient"/><mask id="mask-2" x="29.34" y="48.48" width="23.12" height="33.32" maskUnits="userSpaceOnUse"><g transform="translate(15.88 15.88)"><g id="path-5-inside-2_1_2" data-name="path-5-inside-2 1 2"><path class="cls-1" d="M27.32,45.05,25.76,46.6v-6H24.28v6l-1.56-1.55a.71.71,0,0,0-1,0,.7.7,0,0,0,0,1L24.5,48.9a.81.81,0,0,0,.52.23.68.68,0,0,0,.52-.23l2.81-2.82a.73.73,0,0,0-1-1Z"/></g></g></mask><linearGradient id="linear-gradient-3" x1="25.02" y1="11.54" x2="25.02" y2="2.9" xlink:href="#linear-gradient"/><mask id="mask-3" x="0" y="24.94" width="33.25" height="38.61" maskUnits="userSpaceOnUse"><g transform="translate(15.88 15.88)"><g id="path-7-inside-3_1_2" data-name="path-7-inside-3 1 2"><path class="cls-1" d="M5,28.36a.71.71,0,0,0,0-1L3.43,25.76H9.37V24.28H3.43L5,22.72a.74.74,0,1,0-1-1L1.13,24.5a.73.73,0,0,0,0,1L4,28.36a.73.73,0,0,0,1,0Z"/></g></g></mask><linearGradient id="linear-gradient-4" x1="0.74" y1="30.66" x2="0.74" y2="23.44" xlink:href="#linear-gradient"/><mask id="mask-4" x="48.55" y="29.34" width="33.25" height="23.11" maskUnits="userSpaceOnUse"><g transform="translate(15.88 15.88)"><g id="path-9-inside-4_1_2" data-name="path-9-inside-4 1 2"><path class="cls-1" d="M48.9,24.5l-2.82-2.82a.7.7,0,0,0-1,0,.71.71,0,0,0,0,1l1.55,1.56H40.67v1.48H46.6l-1.55,1.56c-.67.66.37,1.7,1,1l2.82-2.82A.71.71,0,0,0,48.9,24.5Z"/></g></g></mask><linearGradient id="linear-gradient-5" x1="49.29" y1="30.66" x2="49.29" y2="23.45" xlink:href="#linear-gradient"/><mask id="mask-5" x="36.94" y="2.16" width="30.78" height="37.54" maskUnits="userSpaceOnUse"><g transform="translate(15.88 15.88)"><g id="path-11-inside-5_1_2" data-name="path-11-inside-5 1 2"><path class="cls-1" d="M33,6.55,35.11,6,32.21,11a6.52,6.52,0,0,1,1.26.74l2.9-5L37,8.77a.7.7,0,0,0,.89.52.77.77,0,0,0,.52-.89l-1-3.86A.75.75,0,0,0,36.44,4l-3.86,1a.76.76,0,0,0-.51.89.86.86,0,0,0,1,.6Z"/></g></g></mask><linearGradient id="linear-gradient-6" x1="36.45" y1="48.11" x2="36.45" y2="40.28" xlink:href="#linear-gradient"/><mask id="mask-6" x="14.12" y="42.62" width="30.31" height="37.05" maskUnits="userSpaceOnUse"><g transform="translate(15.88 15.88)"><g id="path-13-inside-6_1_2" data-name="path-13-inside-6 1 2"><path class="cls-1" d="M17,43.49l-2.08.59,3-5.19c-.23-.15-.45-.22-.67-.37s-.45-.23-.67-.37l-3,5.19L13,41.26a.73.73,0,0,0-1.41.37l1,3.86a.78.78,0,0,0,.37.45.82.82,0,0,0,.59.07l3.86-1a.77.77,0,0,0,.52-.89.86.86,0,0,0-1-.59Z"/></g></g></mask><linearGradient id="linear-gradient-7" x1="13.39" y1="13.98" x2="13.39" y2="5.98" xlink:href="#linear-gradient"/><mask id="mask-7" x="2.2" y="13.95" width="36.46" height="30.79" maskUnits="userSpaceOnUse"><g transform="translate(15.88 15.88)"><g id="path-15-inside-7_1_2" data-name="path-15-inside-7 1 2"><path class="cls-1" d="M5.06,17.38a.71.71,0,0,0,.9.52A.76.76,0,0,0,6.47,17l-.59-2.08,5.12,3,.74-1.26-5.12-3,2.08-.59a.78.78,0,0,0,.52-.9.7.7,0,0,0-.89-.51l-3.86,1a.77.77,0,0,0-.52.89Z"/></g></g></mask><linearGradient id="linear-gradient-8" x1="4.55" y1="40.48" x2="4.55" y2="34.08" xlink:href="#linear-gradient"/><mask id="mask-8" x="43.29" y="36.83" width="36.31" height="31.02" maskUnits="userSpaceOnUse"><g transform="translate(15.88 15.88)"><g id="path-17-inside-8_1_2" data-name="path-17-inside-8 1 2"><path class="cls-1" d="M45,32.66a.76.76,0,0,0-.89-.52.77.77,0,0,0-.52.89l.59,2.08-5.11-3c-.23.44-.45.74-.74,1.26l5.11,3L41.34,37a.73.73,0,0,0,.37,1.41l3.85-1a.75.75,0,0,0,.52-.89Z"/></g></g></mask><linearGradient id="linear-gradient-9" x1="45.56" y1="19.98" x2="45.56" y2="13.61" xlink:href="#linear-gradient"/><mask id="mask-9" x="42.7" y="14" width="36.86" height="30.47" maskUnits="userSpaceOnUse"><g transform="translate(15.88 15.88)"><g id="path-19-inside-9_1_2" data-name="path-19-inside-9 1 2"><path class="cls-1" d="M41.19,13l2.08.6-5.05,2.89c.3.44.52.89.74,1.26l5-2.89-.6,2.07a.77.77,0,0,0,.52.89.75.75,0,0,0,.89-.52l1-3.85a.76.76,0,0,0-.52-.89l-3.85-1a.77.77,0,0,0-.9.52c0,.44.23.89.6,1Z"/></g></g></mask><linearGradient id="linear-gradient-10" x1="45.25" y1="40.6" x2="45.25" y2="34.18" xlink:href="#linear-gradient"/><mask id="mask-10" x="2.12" y="37.37" width="37.05" height="30.31" maskUnits="userSpaceOnUse"><g transform="translate(15.88 15.88)"><g id="path-21-inside-10_1_2" data-name="path-21-inside-10 1 2"><path class="cls-1" d="M8.77,37,6.7,36.44l5.19-3c-.15-.22-.22-.44-.37-.66s-.22-.45-.37-.67l-5.2,3L6.55,33A.77.77,0,0,0,6,32.14a.76.76,0,0,0-.89.52l-1,3.85a.9.9,0,0,0,.07.6.81.81,0,0,0,.45.37l3.86,1A.77.77,0,0,0,9.37,38a.8.8,0,0,0-.6-1Z"/></g></g></mask><linearGradient id="linear-gradient-11" x1="4.77" y1="19.98" x2="4.77" y2="13.49" xlink:href="#linear-gradient"/><mask id="mask-11" x="11.85" y="2.35" width="32.73" height="37.04" maskUnits="userSpaceOnUse"><g transform="translate(15.88 15.88)"><g id="path-23-inside-11_1_2" data-name="path-23-inside-11 1 2"><path class="cls-1" d="M12.11,9.37A.77.77,0,0,0,13,8.85l.59-2.08,3,5.12a13.2,13.2,0,0,1,1.26-.74L14.86,6l2.07.59a.73.73,0,0,0,.37-1.41l-3.85-1a.77.77,0,0,0-.89.52l-1,3.86a1,1,0,0,0,.59.82Z"/></g></g></mask><linearGradient id="linear-gradient-12" x1="12.33" y1="47.97" x2="12.33" y2="40.13" xlink:href="#linear-gradient"/><mask id="mask-12" x="35.69" y="42.99" width="40.25" height="36.46" maskUnits="userSpaceOnUse"><g transform="translate(15.88 15.88)"><g id="path-25-inside-12_1_2" data-name="path-25-inside-12 1 2"><path class="cls-1" d="M37.92,40.67a.76.76,0,0,0-.89.52l-.59,2.07-3-5.11-1.26.74,3,5.12-2.08-.6a.73.73,0,1,0-.37,1.41l3.86,1a.76.76,0,0,0,.89-.52l1-3.86a.94.94,0,0,0-.6-.81Z"/></g></g></mask><linearGradient id="linear-gradient-13" x1="39.93" y1="13.98" x2="39.93" y2="6.14" xlink:href="#linear-gradient"/></defs><g class="cls-3"><path class="cls-4" d="M25,12A13,13,0,0,0,12,25a12.77,12.77,0,0,0,4.55,9.84A12.41,12.41,0,0,0,25,38,13,13,0,0,0,38,25,13.13,13.13,0,0,0,25,12Zm3.46,17.79a4.42,4.42,0,0,1-2.79,1V32H24.56V30.8A6.91,6.91,0,0,1,20.42,29l1.22-1.49A6.32,6.32,0,0,0,24.56,29V25.71a5.91,5.91,0,0,1-2.78-1.22,2.56,2.56,0,0,1-.89-2.17,3.09,3.09,0,0,1,1-2.38,4.24,4.24,0,0,1,2.65-1v-.81h1.08V19a6.87,6.87,0,0,1,3.47,1.29l-1,1.43a4.64,4.64,0,0,0-2.38-.95V24h.07a6.21,6.21,0,0,1,2.85,1.22,2.82,2.82,0,0,1,.88,2.24,3.38,3.38,0,0,1-1.08,2.38Z" transform="translate(15.88 15.88)"/><g class="cls-5"><path class="cls-6" d="M24.28,3.43h8V-15.88L18.62-2.22Zm0,5.79h-8v8h8Zm1.48,0v8h8v-8Zm0-5.79,5.66-5.65L17.76-15.88V3.43ZM27.32,5l-5.66,5.66h0Zm1,0L34,10.65h0Zm0-1L34-1.7h0ZM25.54,1.13l5.65-5.65h0Zm-1,0L18.84-4.52h0ZM21.68,4l5.66,5.66h0Zm0,1L27.34-.66h0Zm6.7,5.66,1.55-1.56L18.62-2.22,17.06-.67ZM16.28,3.43V9.22h16V3.43Zm8,13.79h1.48v-16H24.28Zm9.48-8V3.43h-16V9.22ZM20.1,9.09l1.56,1.56L33-.67,31.42-2.22Zm1.56,1.56a8.72,8.72,0,0,0,12.35,0L22.7-.67A7.29,7.29,0,0,1,33-.67Zm12.35,0A8.72,8.72,0,0,0,34-1.7L22.7,9.61a7.28,7.28,0,0,1,0-10.28ZM34-1.7,31.19-4.52,19.88,6.79,22.7,9.61ZM31.19-4.52a8.72,8.72,0,0,0-12.35,0L30.16,6.79a7.28,7.28,0,0,1-10.28,0Zm-12.35,0L16-1.7,27.34,9.61l2.82-2.82ZM16-1.7a8.72,8.72,0,0,0,0,12.35L27.34-.67a7.3,7.3,0,0,1,0,10.28Zm0,12.34a8.71,8.71,0,0,0,12.36,0L17.06-.66a7.28,7.28,0,0,1,10.28,0Z" transform="translate(15.88 15.88)"/></g><g class="cls-7"><path class="cls-8" d="M27.32,45.05v-8H24l-2.34,2.34ZM25.76,46.6h-8V65.92L31.42,52.26Zm0-6h8v-8h-8Zm-1.48,0v-8h-8v8Zm0,6-5.66,5.66L32.28,65.92V46.6Zm-1.56-1.55L17.06,50.7h0Zm-1,0L16,39.39h0Zm0,1L16,51.74h0ZM24.5,48.9l5.65-5.65Zm1,0-5.66-5.65h0Zm2.81-3.85L22.69,50.7h0Zm-1,0v8h3.31L33,50.7Zm-5.66-5.66L20.1,41,31.42,52.26,33,50.7Zm12.1,7.21v-6h-16v6Zm-8-14H25v16h.74Zm-.74,0h-.74v16H25Zm-8.74,8v6h16v-6ZM29.93,41l-1.56-1.56L17.06,50.7l1.56,1.56Zm-1.56-1.56a8.72,8.72,0,0,0-12.35,0L27.34,50.7a7.28,7.28,0,0,1-10.28,0ZM16,39.39a8.72,8.72,0,0,0,0,12.35L27.34,40.43a7.29,7.29,0,0,1,0,10.27Zm0,12.35,2.82,2.82L30.15,43.25l-2.81-2.82Zm2.82,2.82A8.8,8.8,0,0,0,25,57.13v-16a7.46,7.46,0,0,1,2.71.51,7,7,0,0,1,2.42,1.61ZM25,57.13a8.65,8.65,0,0,0,6.18-2.58L19.87,43.25A7.31,7.31,0,0,1,25,41.13Zm6.17-2.57L34,51.74,22.7,40.43l-2.82,2.82ZM34,51.74a8.72,8.72,0,0,0,0-12.35L22.7,50.7a7.27,7.27,0,0,1,0-10.27Zm0-12.35a8.72,8.72,0,0,0-12.36,0L33,50.7a7.3,7.3,0,0,1-10.29,0Zm-6.7-2.34h0v16h0Z" transform="translate(15.88 15.88)"/></g><g class="cls-9"><path class="cls-10" d="M5,28.36H-3V47.67L10.65,34Zm0-1,5.66-5.66h0ZM3.43,25.76v-8H-15.88L-2.22,31.42Zm5.94,0v8h8v-8Zm0-1.48h8v-8h-8Zm-5.94,0-5.65-5.66L-15.88,32.28H3.43ZM5,22.72l5.66,5.65h0Zm0-1L10.65,16h0Zm-1,0L-1.7,16h0ZM1.13,24.5l-5.65-5.66h0Zm0,1-5.65,5.65h0ZM4,28.36-1.7,34h0Zm1,0h8V9.06L-.66,22.7ZM10.65,34a8.72,8.72,0,0,0,0-12.35L-.67,33a7.29,7.29,0,0,1,0-10.27Zm0-12.35L9.09,20.1-2.22,31.42-.67,33ZM3.43,33.76H9.37v-16H3.43Zm13.94-8V24.28h-16v1.48Zm-8-9.48H3.43v16H9.37ZM9.09,29.93l1.56-1.56L-.67,17.06l-1.55,1.56Zm1.56-1.56a8.72,8.72,0,0,0,0-12.35L-.67,27.34a7.3,7.3,0,0,1,0-10.28Zm0-12.35A8.72,8.72,0,0,0-1.7,16L9.61,27.34a7.3,7.3,0,0,1-10.28,0ZM-1.7,16l-2.82,2.82L6.79,30.16l2.82-2.82Zm-2.82,2.82a8.72,8.72,0,0,0,0,12.35L6.79,19.88a7.28,7.28,0,0,1,0,10.28Zm0,12.35L-1.7,34,9.61,22.7,6.79,19.88ZM-1.7,34a8.71,8.71,0,0,0,12.34,0L-.66,22.7a7.27,7.27,0,0,1,10.27,0ZM-3,28.36Z" transform="translate(15.88 15.88)"/></g><g class="cls-11"><path class="cls-12" d="M46.08,21.68,51.74,16Zm-1,0L39.39,16h0Zm0,1-5.66,5.66h0Zm1.55,1.56v8H65.92L52.26,18.62Zm-5.93,0v-8h-8v8Zm0,1.48h-8v8h8Zm5.93,0,5.66,5.66L65.91,17.76H46.6Zm-1.55,1.56L50.7,33h0Zm1,1L40.43,22.7h0Zm8.48-9.52L51.74,16,40.43,27.34l2.82,2.82ZM51.74,16a8.72,8.72,0,0,0-12.35,0L50.7,27.34a7.29,7.29,0,0,1-10.27,0ZM39.39,16a8.73,8.73,0,0,0,0,12.36L50.7,17.06a7.28,7.28,0,0,1,0,10.28Zm0,12.36L41,29.93,52.26,18.62,50.7,17.06Zm7.21-12.1H40.67v16H46.6Zm-13.93,8v1.48h16V24.28Zm8,9.48H46.6v-16H40.67ZM41,20.1l-1.56,1.56L50.7,33l1.56-1.55Zm-1.56,1.56a8.65,8.65,0,0,0-2.53,6.81A8.73,8.73,0,0,0,51.74,34L40.43,22.7a7.3,7.3,0,0,1,10.29,0,7.2,7.2,0,0,1,2.09,4.56A7.32,7.32,0,0,1,50.7,33ZM51.74,34l2.82-2.82L43.25,19.88,40.43,22.7Zm2.82-2.82a8.72,8.72,0,0,0,0-12.35L43.25,30.16a7.28,7.28,0,0,1,0-10.28Z" transform="translate(15.88 15.88)"/></g><g class="cls-13"><path class="cls-14" d="M33,6.55l-2.2-7.69L23.56.93l1.67,7.38ZM35.11,6l6.94,4L51.84-7.15,32.91-1.74ZM32.21,11,25.27,7l-4.21,7.34,7.57,3.79Zm1.26.74-5,6.25,7.29,5.83,4.64-8.1Zm2.9-5,7.69-2.2L38.85-13.72,29.43,2.72ZM37,8.77l7.85-1.56-.07-.32-.09-.31Zm.89.52L36.28,1.45l-.72.14-.68.27Zm.52-.89,7.84-1.57-.05-.26-.06-.25Zm-1-3.86L29.49,6.11l.05.26.07.25ZM36.44,4,34.87-3.82l-.26,0-.25.07Zm-3.86,1,1.57,7.85.26-.05.25-.07ZM32.07,6,24.22,7.53l.1.48.15.47Zm1,.6,1.57,7.84,8-1.61-1.81-8Zm2.2,7.69,2.07-.59L32.91-1.74l-2.08.6ZM28.17,2,25.27,7l13.88,8,2.9-5.05Zm.46,16.18.25.13.06,0-.14-.09L28.48,18l10-12.5a14.72,14.72,0,0,0-2.68-1.65Zm11.78-2.43,2.9-5-13.88-8-2.9,5ZM28.68,8.89,29.27,11,44.65,6.58,44.06,4.5Zm.44,1.45a8.69,8.69,0,0,0,4,5.71,8.61,8.61,0,0,0,7.7.67L34.88,1.86a7.4,7.4,0,0,1,6.59.54,7.33,7.33,0,0,1,3.34,4.81Zm10.3,6.8a8.63,8.63,0,0,0,5.85-4.3,8.75,8.75,0,0,0,.94-6L30.53,10a7.15,7.15,0,0,1,.75-4.9,7.39,7.39,0,0,1,5-3.62ZM46.1,6.32l-1-3.86L29.61,6.62l1,3.86ZM45.18,3a8.71,8.71,0,0,0-4.3-5.86,8.86,8.86,0,0,0-6-.94L38,11.87a7.15,7.15,0,0,1-4.9-.76,7.36,7.36,0,0,1-3.62-5ZM34.36-3.7l-3.86,1,4.16,15.45,3.86-1ZM31-2.78a8.64,8.64,0,0,0-5.86,4.29,8.89,8.89,0,0,0-.94,6L39.91,4.38a7.15,7.15,0,0,1-.76,4.9,7.37,7.37,0,0,1-5,3.63ZM24.47,8.48A8.88,8.88,0,0,0,34.6,14.39L31.46-1.3a7.15,7.15,0,0,1,8.2,4.73Zm16.36-3.7h0L25.23,8.31h0Z" transform="translate(15.88 15.88)"/></g><g class="cls-15"><path class="cls-16" d="M17,43.49l2.19,7.69,8.74-2.5-3.58-8.34Zm-2.08.59L8,40.11-1.76,57.17l18.89-5.4Zm3-5.19,6.94,4,3.71-6.49-6.22-4.14Zm-1.34-.74L21,31.49l-7.13-4.75L9.62,34.18Zm-3,5.19L5.9,45.54,11.12,63.8l9.42-16.49ZM13,41.26,5.16,42.83l.06.32.09.31Zm-.89-.52,1.57,7.85h0Zm-.52.89L3.75,43.21l0,.25.07.25Zm1,3.86L4.91,47.57,5,47.8,5,48Zm.37.45,3.58-7.16h0Zm.59.07-2.08-7.73-.22.07-.22.07Zm3.86-1-1.57-7.84-.25,0-.26.07Zm.52-.89,7.84-1.57L25.72,42l-.16-.47Zm-1-.59-1.57-7.85L5.77,37.57l3.88,9.07Zm-2.2-7.69-2.08.59,4.4,15.38,2.07-.59Zm7.07,12.25,3-5.19L11,34.92,8,40.11Zm.45-15.82c-.31-.21-.58-.36-.79-.48l-.4-.2c-.07,0,0,0,.07,0l.45.28L12.8,45.18c.31.2.58.36.79.47l.39.21c.08,0,0,0-.06,0s-.26-.14-.46-.27Zm-.67-.37a8.39,8.39,0,0,0-.79-.48l-.39-.2.06,0c.09.05.26.15.45.28L12.13,44.81c.31.2.58.36.79.47l.4.21-.07,0a5.18,5.18,0,0,1-.45-.27Zm-12,2.32-3,5.19,13.89,7.94,3-5.19Zm11.67,7-.6-2.08L5.31,43.46l.59,2.08Zm-.44-1.45a8.68,8.68,0,0,0-4.3-5.85,8.86,8.86,0,0,0-6-.94l3.14,15.69a7.21,7.21,0,0,1-4.9-.76,7.36,7.36,0,0,1-3.62-5ZM10.54,32.9a8.62,8.62,0,0,0-5.85,4.29,8.89,8.89,0,0,0-.94,6l15.69-3.15a7.21,7.21,0,0,1-.76,4.9,7.37,7.37,0,0,1-5,3.63ZM3.87,43.71l1,3.86,15.44-4.16-1-3.86ZM5,48a8.76,8.76,0,0,0,4.38,5.07l7.16-14.31A7.23,7.23,0,0,1,20.22,43Zm4.38,5.07a8.77,8.77,0,0,0,6.7.51L11.07,38.42a7.25,7.25,0,0,1,3.63-.26,6.87,6.87,0,0,1,1.88.62Zm6.25.64,3.86-1L15.37,37.25l-3.86,1ZM19,52.82a8.76,8.76,0,0,0,6.79-10.31L10.13,45.65a7.15,7.15,0,0,1,.75-4.9,7.36,7.36,0,0,1,5-3.62Zm6.54-11.27a8.87,8.87,0,0,0-10.12-5.91l3.13,15.69a7.12,7.12,0,0,1-8.19-4.72ZM9.65,46.64h0l14.71-6.3h0Z" transform="translate(15.88 15.88)"/></g><g class="cls-17"><path class="cls-18" d="M5.06,17.38l7.85-1.57-.07-.35-.1-.34Zm.9.52L4.39,10.05l-.72.15L3,10.47ZM6.47,17l7.85-1.58-.07-.31-.08-.31Zm-.59-2.08L9.89,8-7.26-1.93l5.45,19.06Zm5.12,3L7,24.82l7,4,4-7Zm.74-1.26,6.86,4.11,4.18-7-7-4.08Zm-5.12-3L4.42,6l-18.1,5.17L2.61,20.59Zm2.08-.59L7.13,5.23l-.32.06-.31.09Zm.52-.9L1.37,13.75h0Zm-.89-.51,2.08,7.72.45-.12.44-.18Zm-3.86,1L6,20.55l.26-.05.25-.07ZM4,13.59l-7.84,1.58.07.34.1.34ZM-2.78,19a8.72,8.72,0,0,0,4,5.71,8.61,8.61,0,0,0,7.7.66L3,10.47A7.36,7.36,0,0,1,9.57,11a7.25,7.25,0,0,1,3.34,4.8Zm10.3,6.79a8.67,8.67,0,0,0,5.86-4.29,8.89,8.89,0,0,0,.94-6L-1.37,18.58a7.15,7.15,0,0,1,.76-4.9,7.37,7.37,0,0,1,5-3.63Zm6.65-10.93-.6-2.08-15.38,4.4.59,2.07Zm-12.3,7,5.12,3L15,11,9.89,8Zm16.07,0c.26-.45.44-.76.66-1.12L4.88,12.52c-.23.38-.49.81-.83,1.41ZM15.75,9.71l-5.12-3-8,13.84,5.12,3ZM8.82,21.36l2.08-.59L6.5,5.38,4.42,6Zm1.45-.44a8.64,8.64,0,0,0,5.85-4.29,8.89,8.89,0,0,0,.94-6L1.37,13.76a7.21,7.21,0,0,1,.76-4.9,7.37,7.37,0,0,1,5-3.63Zm6.79-10.3A8.68,8.68,0,0,0,5.36,4.24L11.3,19.09a7.4,7.4,0,0,1-6.59-.53,7.33,7.33,0,0,1-3.34-4.81ZM6.25,3.94,2.39,5,6.55,20.43l3.86-1ZM2.9,4.86A8.64,8.64,0,0,0-2.95,9.15a8.89,8.89,0,0,0-.94,6L11.8,12a7.21,7.21,0,0,1-.76,4.9,7.37,7.37,0,0,1-5,3.63Zm-6.62,11,1.11,3.79,15.35-4.52-1.11-3.78Z" transform="translate(15.88 15.88)"/></g><g class="cls-19"><path class="cls-20" d="M45,32.66l-7.84,1.57.07.34.1.34Zm-.89-.52L45.65,40h0Zm-.52.89L35.72,34.6l.06.32.09.31Zm.59,2.08-4,6.92L57.29,52,51.85,32.91Zm-5.11-3,4-6.92L35.69,21l-3.81,7.61ZM38.3,33.4l-6.95-4-3.94,6.9,6.87,4Zm5.11,3,2.2,7.69,18.1-5.17L47.43,29.45ZM41.34,37l1.8,7.8.2,0,.19-.06Zm.37,1.41-2.08-7.73-.23.07-.22.07Zm3.85-1L44,29.49l-.26.05-.26.07Zm.52-.89,7.85-1.57-.07-.35-.1-.34Zm6.74-5.35a8.66,8.66,0,0,0-4.3-5.85,8.8,8.8,0,0,0-6-.95L45.65,40a7.15,7.15,0,0,1-4.9-.76,7.31,7.31,0,0,1-3.62-5Zm-10.31-6.8a8.68,8.68,0,0,0-5.85,4.3,8.86,8.86,0,0,0-.94,6l15.69-3.14a7.21,7.21,0,0,1-.76,4.9,7.36,7.36,0,0,1-5,3.62ZM35.87,35.23l.59,2.07,15.39-4.39-.6-2.08Zm12.3-7-5.12-3L35,39.06l5.12,3Zm-16.29.38c.05-.11.09-.16,0,0s-.3.48-.54.9l13.89,7.94c.06-.1.08-.14.26-.42s.42-.68.69-1.23Zm2.4,11.76,5.12,3,8-13.84-5.12-3Zm6.94-11.65-2.08.6,4.39,15.38,2.08-.59Zm-1.68.5a8.62,8.62,0,0,0-5.88,4.67A8.83,8.83,0,0,0,36.71,45a8.64,8.64,0,0,0,7.53,1L39.18,30.78a7.36,7.36,0,0,1,6.38.86,7.17,7.17,0,0,1,2.51,9.15,7.37,7.37,0,0,1-4.93,4Zm4.25,16.92,3.85-1L43.48,29.61l-3.85,1Zm3.34-.91A8.66,8.66,0,0,0,53,40.88a8.8,8.8,0,0,0,1-6L38.24,38a7.15,7.15,0,0,1,.76-4.9,7.36,7.36,0,0,1,5-3.62Zm6.63-11L52.65,30.4,37.3,34.91l1.11,3.79Z" transform="translate(15.88 15.88)"/></g><g class="cls-21"><path class="cls-22" d="M41.19,13l1.67-7.82L39,20.69Zm2.08.6,4,6.93,16.43-9.42L45.46,5.9Zm-5.05,2.89-4-6.94-7.42,4.26,4.75,7.12ZM39,17.75,32.1,21.87l4,6.72,6.8-3.9Zm5-2.89,7.69,2.19L57.11-1.88,40,7.92Zm-.6,2.07-7.69-2.19-.09.31-.06.32Zm.52.89-1.57,7.85h0Zm.89-.52L37.1,15.22l-.07.26-.05.25Zm1-3.85,7.73,2.08.06-.26.06-.25Zm-.52-.89-2.08,7.72.25.07.26,0Zm-3.85-1,2.07-7.73-.25-.06-.26-.06Zm-.9.52-7.84-1.58-.16.79V12Zm.6,1-1.58,7.85L42.86,5.18ZM39,20.69l2.08.6L45.46,5.9l-2.07-.59Zm.29-14-5,2.89,8,13.88,5-2.9ZM31.57,20.93l.08.15.08.13.09.17.28.49,13.72-8.24,0-.1-.08-.13a1.65,1.65,0,0,1-.1-.19c-.16-.27-.4-.69-.71-1.16Zm11.37,3.76L48,21.8,40,7.92,35,10.81Zm-6.63-12-.59,2.08,15.39,4.39.59-2.08Zm-.74,2.71a8.83,8.83,0,0,0,.94,6,8.66,8.66,0,0,0,5.85,4.3L45.51,10a7.34,7.34,0,0,1,5,3.63,7.17,7.17,0,0,1,.76,4.89Zm6.79,10.3a8.85,8.85,0,0,0,6-.94,8.68,8.68,0,0,0,4.3-5.85L37,15.73a7.32,7.32,0,0,1,3.63-5A7.11,7.11,0,0,1,45.5,10Zm10.19-6.29,1-3.85L38.14,11.37l-1,3.85ZM53.71,15a8.8,8.8,0,0,0-1-6,8.64,8.64,0,0,0-5.84-4.3L43.77,20.4a7.37,7.37,0,0,1-5-3.63A7.17,7.17,0,0,1,38,11.88ZM47.42,4.83l-3.86-1L39.41,19.24l3.85,1ZM43.05,3.67a8.78,8.78,0,0,0-6,1,8.64,8.64,0,0,0-4.3,5.84l15.69,3.15a7.37,7.37,0,0,1-3.63,5,7.18,7.18,0,0,1-4.89.75ZM32.59,12a9.34,9.34,0,0,0,1.24,4.63,8.67,8.67,0,0,0,5.78,4.18L42.76,5.16a7.35,7.35,0,0,1,4.92,3.49A6.75,6.75,0,0,1,48.59,12ZM42.86,5.18h0L39.51,20.82h0Z" transform="translate(15.88 15.88)"/></g><g class="cls-23"><path class="cls-24" d="M8.77,37l-2.19,7.7,5.77-14.85ZM6.7,36.44l-4-6.95-16.49,9.43L4.5,44.13Zm5.19-3,4,7,7.43-4.25L18.55,29Zm-.74-1.33,6.66-4.43-4.14-6.22-6.49,3.7Zm-5.2,3-7.69-2.2L-7.14,51.8,9.92,42.05ZM6.55,33l7.69,2.2.09-.32.06-.31ZM6,32.14,7.6,24.29h0Zm-.89.52,7.72,2.08.07-.25.05-.26Zm-1,3.85L11.69,39l.07-.22.06-.23Zm.07.6-7.59,2.52.18.55.26.51Zm.45.37L2.09,45.07l.22.07.23.06Zm3.86,1L6.4,46.24l.25.07.26,0ZM9.37,38l7.84,1.57,0-.13,0-.13Zm-.6-1,1.32-7.89-4.89,15ZM11,29.34l-2.08-.59L4.5,44.13l2.08.6Zm-.3,14.05,5.19-3L7.92,26.53l-5.19,3ZM18.55,29a5,5,0,0,1,.27.46c0,.07.07.13,0,.06l-.21-.4c-.11-.2-.27-.48-.47-.79L4.86,37.24c-.13-.2-.23-.36-.28-.46s-.07-.13,0-.06l.2.4c.12.2.27.48.48.79Zm-.37-.67a5,5,0,0,1,.27.46c0,.08.07.14,0,.06l-.21-.4c-.11-.2-.27-.47-.47-.78L4.49,36.57l-.28-.45c0-.08-.07-.14,0-.07l.2.4c.11.2.27.48.48.79Zm-11-3.18L2,28.16,9.92,42.05l5.2-3ZM13.65,37.3l.59-2.07-15.38-4.4-.6,2.08Zm.74-2.7a8.85,8.85,0,0,0-.94-6,8.66,8.66,0,0,0-5.85-4.3L4.45,40a7.39,7.39,0,0,1-5-3.62,7.21,7.21,0,0,1-.76-4.9ZM7.6,24.29a8.8,8.8,0,0,0-6,.95A8.6,8.6,0,0,0-2.7,31.08L13,34.23a7.34,7.34,0,0,1-3.62,5,7.15,7.15,0,0,1-4.9.76ZM-2.59,30.58l-1,3.85,15.44,4.16,1-3.85ZM-3.49,34a8.48,8.48,0,0,0-.27,4.39,10,10,0,0,0,.29,1.1,1.18,1.18,0,0,1,.06.18v0l15.18-5.05a1.2,1.2,0,0,0-.06-.18s0,0,0,0a8.39,8.39,0,0,1,.22.82,7.39,7.39,0,0,1,.13,1.81,7.25,7.25,0,0,1-.37,2Zm.51,6.7a8.79,8.79,0,0,0,5.07,4.38L7.15,29.89a7.23,7.23,0,0,1,4.18,3.64ZM2.54,45.2l3.86,1,4.16-15.45-3.86-1Zm4.37,1.16a8.87,8.87,0,0,0,6-.94,8.65,8.65,0,0,0,4.29-5.85L1.52,36.42a7.34,7.34,0,0,1,3.63-5A7.18,7.18,0,0,1,10,30.67Zm10.35-7c.55-3.32-1-9.14-7.17-10.17L7.45,44.92a7.32,7.32,0,0,1-5.11-3.53,7.11,7.11,0,0,1-.87-4.7ZM5.2,44.19h0l7.15-14.31h0Z" transform="translate(15.88 15.88)"/></g><g class="cls-25"><path class="cls-26" d="M12.11,9.37,6.43,3.74-4,14.3l14.57,2.91ZM13,8.85,5.31,6.65,5.22,7l-.06.31Zm.59-2.08,6.93-4L11.07-13.53,5.9,4.57Zm3,5.12-6.92,4,4.41,7.61,7.16-5.11Zm1.26-.74L21.94,18,28.69,14l-4-6.81ZM14.86,6l2.19-7.69L-2-7.11,7.93,10Zm2.07.59-2.2,7.69.32.09.32.07Zm.89-.52,7.85,1.58h0Zm-.52-.89-2.08,7.73.25.07.26.05Zm-3.85-1,2.08-7.72-.26-.07-.26,0Zm-.89.52,7.72,2.08.07-.25,0-.25Zm-1,3.86L3.79,6.47l-.27,1v1Zm.59.82L17.79,15l8.5-8.58L15.08,1.94Zm-1.57,7.84a8.86,8.86,0,0,0,6-.94,8.62,8.62,0,0,0,4.29-5.85L5.16,7.27a7.36,7.36,0,0,1,3.62-5,7.21,7.21,0,0,1,4.9-.76Zm10.15-6.16L21.29,9,5.9,4.57,5.31,6.65Zm-14-.27,3,5.12,13.84-8-3-5.12ZM21.21,18.4c-.08.06-.16.1-.13.09l.08,0,.16-.09.62-.34L13.7,4.29l.06,0-.12.06-.22.12a15.9,15.9,0,0,0-1.51.94ZM24.74,7.14,21.78,2,7.93,10l3,5.12ZM12.66,13.72l2.07.59,4.4-15.38-2.08-.59Zm2.71.75a8.78,8.78,0,0,0,6-1,8.64,8.64,0,0,0,4.3-5.84L10,4.53a7.32,7.32,0,0,1,3.63-5,7.11,7.11,0,0,1,4.89-.76Zm10.3-6.8a8.81,8.81,0,0,0-1-6,8.63,8.63,0,0,0-5.84-4.29L15.73,13.06a7.32,7.32,0,0,1-5-3.63A7.12,7.12,0,0,1,10,4.54ZM19.38-2.51l-3.85-1L11.37,11.9l3.85,1ZM15-3.67a8.83,8.83,0,0,0-6,.94,8.68,8.68,0,0,0-4.3,5.85L20.4,6.27a7.34,7.34,0,0,1-3.63,5,7.11,7.11,0,0,1-4.89.76ZM4.83,2.61l-1,3.86,15.45,4.16,1-3.86ZM3.52,8.53A8.94,8.94,0,0,0,9.14,16.8L15.08,1.94a7,7,0,0,1,3.19,2.54,7.22,7.22,0,0,1,1.25,4.09ZM6.43,3.74h0L17.79,15h0Z" transform="translate(15.88 15.88)"/></g><g class="cls-27"><path class="cls-28" d="M37.92,40.67,42,47.56,60.05,36.93,39.49,32.82Zm-.89.52,7.7,2.2.08-.31.07-.32Zm-.59,2.07-6.92,4L39,63.56l5.17-18.1Zm-3-5.11,6.93-4-4.08-7-7,4.18Zm-1.26.74-4-6.95-7,4,4,7Zm3,5.12L33,51.7,52,57.15,42.1,40Zm-2.08-.6,2.2-7.69-.2-.06-.2,0Zm-.37,1.41,2.08-7.72-.14,0-.14,0Zm3.86,1-2.08,7.73.25.06.26.06Zm.89-.52-7.73-2.08-.06.25-.05.26Zm1-3.86,7.72,2.08.28-1V41.49Zm-.6-.81-4.05-6.9L19.81,42,35,48.1Zm1.57-7.85a8.78,8.78,0,0,0-6,1,8.64,8.64,0,0,0-4.3,5.84l15.69,3.15a7.37,7.37,0,0,1-3.63,5,7.18,7.18,0,0,1-4.89.75ZM29.34,39l-.59,2.08,15.38,4.39.6-2.07Zm14,.26-3-5.12-13.85,8,3,5.12Zm-14-8c-.36.21-.67.4-1.12.65l7.94,13.89L37.59,45ZM25.29,42.9l3,5.12L42.1,40l-3-5.11Zm12.09-6.59-2.08-.59L30.9,51.11,33,51.7Zm-2.48-.69a8.73,8.73,0,1,0-4,17L34.53,37A7.27,7.27,0,0,1,31.3,51.21ZM30.65,52.55l3.86,1,4.16-15.45-3.86-1ZM35,53.71a8.8,8.8,0,0,0,6-1,8.6,8.6,0,0,0,4.29-5.84L29.64,43.77a7.39,7.39,0,0,1,3.62-5,7.21,7.21,0,0,1,4.9-.75ZM45.2,47.42l1-3.86L30.79,39.4l-1,3.86Zm1.32-5.93a8.93,8.93,0,0,0-5.63-8.25L35,48.1a7,7,0,0,1-3.19-2.55,7.15,7.15,0,0,1-1.25-4.07ZM42,47.56h0L33.87,33.77h0Z" transform="translate(15.88 15.88)"/></g></g></svg>